<?xml version="1.0" encoding="utf-8"?>
<!-- Generator: Adobe Illustrator 16.0.0, SVG Export Plug-In . SVG Version: 6.00 Build 0)  -->
<!DOCTYPE svg PUBLIC "-//W3C//DTD SVG 1.1//EN" "http://www.w3.org/Graphics/SVG/1.1/DTD/svg11.dtd">
<svg version="1.1" id="Capa_1" xmlns="http://www.w3.org/2000/svg" xmlns:xlink="http://www.w3.org/1999/xlink" x="0px" y="0px"
	 width="150px" height="150px" viewBox="0 0 150 150" enable-background="new 0 0 150 150" xml:space="preserve">
<g>
	<path fill="#6E9E96" d="M148.871,58.173c-0.467-1.445-0.479-2.89,0-4.334C148.871,55.283,148.871,56.728,148.871,58.173z"/>
	<path fill="#6E9E96" d="M0.918,53.26c0.543,0.502,0.183,1.15,0.28,1.725c-0.088,0.142-0.182,0.138-0.28,0.009
		C0.918,54.416,0.918,53.838,0.918,53.26z"/>
	<path fill="#6E9E96" d="M0.918,54.994c0.093,0,0.187-0.004,0.28-0.009c-0.053,0.492,0.2,1.044-0.28,1.454
		C0.918,55.958,0.918,55.476,0.918,54.994z"/>
	<path fill="#6E9E96" d="M1.157,59.634c-0.011,0.303,0.226,0.675-0.239,0.851c0-0.289,0-0.578,0-0.867
		C1.007,59.483,1.087,59.488,1.157,59.634z"/>
	<path fill="#6E9E96" d="M0.918,58.462c0.261,0.12,0.284,0.343,0.254,0.588c-0.09,0.12-0.174,0.117-0.254-0.011
		C0.918,58.847,0.918,58.654,0.918,58.462z"/>
	<path fill="#6E9E96" d="M0.918,59.04c0.085,0.001,0.17,0.004,0.254,0.011c-0.005,0.194-0.01,0.389-0.015,0.583
		c-0.08-0.004-0.16-0.009-0.239-0.016C0.918,59.425,0.918,59.232,0.918,59.04z"/>
	<path fill="#6E9E96" d="M148.871,59.907c-0.389-0.193-0.334-0.385,0-0.578C148.871,59.521,148.871,59.714,148.871,59.907z"/>
	<path fill="#6E9E96" d="M148.536,46.68c-0.646-4.71-2.052-9.212-3.985-13.539c-3.525-7.886-8.729-14.426-16.141-18.967
		c-9.459-5.794-19.706-7.118-30.456-4.697c-7.791,1.755-14.966,4.986-21.547,9.498c-1.026,0.704-1.815,0.752-2.845,0.018
		c-3.183-2.269-6.591-4.168-10.125-5.834C54.853,9.111,45.891,7.15,36.377,8.4c-8.72,1.145-16.19,4.93-22.32,11.157
		C8.405,25.299,4.883,32.3,2.697,40.035C1.739,43.425,1,46.882,1,50.371c0,0.963,0,1.927,0,2.89c0,0.545,0.074,1.138,0.149,1.703
		C1.08,55.453,1,55.973,1,56.439c0,0.674,0,1.349,0,2.023c0,0.184,0,0.428,0,0.654c0,0.176,0,0.352,0,0.528c0,0.283,0,0.595,0,0.84
		c0,0.385,0,0.771,0,1.156c0,2.612,0.396,5.244,0.941,7.831C5.14,84.68,12.493,97.695,22.887,109.066
		c6.789,7.427,14.526,13.74,23.027,19.145c8.197,5.209,16.843,9.499,25.833,13.139c2.229,0.902,4.379,0.797,6.585-0.117
		c6.145-2.547,12.111-5.444,17.932-8.658c8.465-4.676,16.373-10.159,23.502-16.68c6.625-6.057,12.635-12.688,17.373-20.383
		c4.395-7.138,7.935-14.66,10.01-22.813C148.1,68.964,149,65.186,149,61.352c0-0.482,0-0.963,0-1.445c0-0.193,0-0.385,0-0.578
		c0-0.385,0-0.771,0-1.156c0-1.445,0-2.89,0-4.334c0-0.963,0-1.927,0-2.89C148,49.542,148.73,48.098,148.536,46.68z M72.345,134.66
		c-0.646,0.387-1.492-0.393-2.229-0.705c-10.959-4.674-21.259-10.48-30.629-17.88c-0.524-0.414-1.041-0.839-1.729-1.396
		c2.216-0.892,4.057-2.017,5.596-3.572c0.505-0.51,1.05-0.567,1.692-0.565c8.71,0.026,17.42,0.062,26.13,0.035
		c1.051-0.003,1.263,0.345,1.257,1.315c-0.043,6.881-0.017,13.764-0.058,20.645C72.371,133.273,72.909,134.32,72.345,134.66z
		 M72.544,102.673c-0.22,0.741,0.692,2.108-1.079,2.103c-7.848-0.026-15.695-0.031-23.543-0.049
		c-0.138-0.002-0.276-0.056-0.411-0.082c-0.008-0.113-0.041-0.215-0.019-0.304c0.62-2.534,0.621-2.536,3.265-2.532
		c6.885,0.006,13.77,0.012,20.655,0.024C71.986,101.834,72.857,101.613,72.544,102.673z M74.291,95.259
		c-0.2,0.582-0.505,0.787-1.144,0.785c-7.995-0.032-15.989-0.054-23.984-0.017c-1.29,0.007-0.917-0.814-0.917-1.438
		c0.004-13.003,0.024-26.007,0.041-39.01c0.005-3.853-0.006-7.706,0.015-11.559c0.022-3.968,2.685-6.801,6.655-6.823
		c8.764-0.049,17.529,0.03,26.293,0.037c1.395,0.001,2.336,0.654,3.111,1.752c3.77,5.346,7.615,10.639,11.33,16.023
		c1.744,2.53,4,3.891,7.052,3.614c2.235-0.203,3.88,0.582,5.495,2.088c3.311,3.083,6.783,5.994,10.226,8.931
		c0.642,0.548,0.925,1.078,0.92,1.938c-0.022,5.021-0.515,5.548-5.538,5.534c-8.429-0.022-16.854-0.032-25.283-0.105
		c-3.83-0.032-7.373-1.188-10.686-3.084c-0.539-0.308-1.051-0.669-1.697-0.761c-1.395-0.2-2.657,0.463-3.181,1.701
		c-0.565,1.335-0.122,2.787,1.216,3.634c2.742,1.731,5.711,2.942,8.877,3.659c0.273,0.063,0.59,0.025,0.777,0.416
		c-2.887,2.244-5.408,4.857-7.316,8.027C75.658,92.089,74.855,93.617,74.291,95.259z M114.822,58.802
		c4.166-0.425,4.869,0.197,4.402,3.806C117.771,61.351,116.395,60.16,114.822,58.802z M142.354,64.938
		c-2.41,15.535-9.867,28.614-20.414,40.009C109.67,118.202,95,127.434,78,134.566c0-4.619,0-9.084,0-13.56
		c0,0,0.434-0.039,0.482,0.005c4.846,4.303,10.436,4.537,16.289,2.701c1.321-0.415,2.196-1.46,2.016-2.85
		c-0.689-5.262-2.63-9.84-7.452-12.68c-3.099-1.824-6.426-2.506-9.979-1.809c-0.932,0.184-1.114-0.088-1.119-0.994
		c-0.057-12.099,9.513-22.085,21.604-22.385c5.197-0.129,10.401-0.037,15.603-0.046c5.996-0.011,9.709-3.726,9.72-9.729
		c0.007-4.093,0.019-8.186,0.008-12.279c-0.012-4.858-3.168-8.034-8.036-8.065c-4.768-0.03-9.533-0.053-14.302-0.012
		c-1.076,0.009-1.765-0.32-2.39-1.215c-3.692-5.281-7.485-10.493-11.156-15.789c-2.129-3.071-4.96-4.5-8.678-4.484
		c-8.425,0.036-16.853-0.041-25.279-0.019c-6.511,0.017-11.459,4.035-12.639,10.234c-0.196,1.03-0.189,2.107-0.191,3.163
		c-0.042,18.058-0.064,36.116-0.107,54.173c-0.013,5.393-2.902,9.34-7.629,10.582c-1.538,0.404-2.699,0.24-3.959-1.027
		C20.236,97.846,12.245,85.693,8.601,70.993c-3.036-12.246-2.727-24.358,2.468-36.017c4.626-10.382,12.254-17.486,23.592-19.99
		c8.592-1.898,16.815-0.298,24.758,3.154c4.647,2.02,8.948,4.644,13.03,7.636c1.951,1.431,2.829,1.457,4.797,0.066
		C84.096,21,91.41,17.121,99.695,15.436c17.557-3.569,32.705,4.552,39.596,21.175C143.076,45.742,143.859,55.235,142.354,64.938z
		 M81.008,111.932c4.313-0.429,8.367,2.478,9.37,6.786c-4.36,0.981-8.692-1.346-10.196-5.434
		C79.854,112.389,79.988,112.033,81.008,111.932z"/>
	<path fill="#6E9E96" d="M57.261,75.466c6.962-1.38,11.956-7.223,12.167-14.149c0.071-2.31,0.016-4.623,0.047-6.934
		c0.028-2.059,1.214-3.411,2.937-3.405c1.739,0.005,2.908,1.32,2.869,3.427c-0.072,3.886,0.332,7.797-0.669,11.64
		c-2.325,8.923-10.636,15.491-19.739,15.553c-2.309,0.017-3.412-1.018-3.412-3.289c0-11.941,0.012-23.884,0.029-35.826
		c0.003-2.033,1.217-3.392,2.948-3.362c1.747,0.03,2.845,1.342,2.844,3.453c-0.002,10.401-0.014,20.802-0.022,31.203
		C57.261,74.303,57.261,74.83,57.261,75.466z"/>
	<path fill="#6E9E96" d="M81.939,44.938c-2.525-0.011-4.697,2.153-4.707,4.691c-0.01,2.539,2.137,4.699,4.684,4.712
		c2.536,0.013,4.697-2.138,4.709-4.687C86.637,47.123,84.477,44.949,81.939,44.938z M82.012,50.724
		c-0.75,0.048-1.183-0.391-1.176-1.104c0.006-0.632,0.389-1.065,1.08-1.062c0.668,0.004,1.043,0.365,1.115,1.031
		C83.008,50.259,82.68,50.68,82.012,50.724z"/>
</g>
</svg>
