<?xml version="1.0" encoding="utf-8"?>
<!-- Generator: Adobe Illustrator 16.0.0, SVG Export Plug-In . SVG Version: 6.00 Build 0)  -->
<!DOCTYPE svg PUBLIC "-//W3C//DTD SVG 1.1//EN" "http://www.w3.org/Graphics/SVG/1.1/DTD/svg11.dtd">
<svg version="1.1" id="Capa_1" xmlns="http://www.w3.org/2000/svg" xmlns:xlink="http://www.w3.org/1999/xlink" x="0px" y="0px"
	 width="150px" height="150px" viewBox="0 0 150 150" enable-background="new 0 0 150 150" xml:space="preserve">
<g>
	<path fill="#6E9E96" d="M2.736,61.504c0.255,0.118,0.277,0.334,0.243,0.574c-0.085,0.114-0.167,0.116-0.243-0.01
		C2.736,61.88,2.736,61.692,2.736,61.504z"/>
	<path fill="#6E9E96" d="M2.736,62.069c0.081,0.002,0.162,0.005,0.243,0.01c0.029,0.233,0.037,0.457-0.243,0.555
		C2.736,62.445,2.736,62.257,2.736,62.069z"/>
	<path fill="#6E9E96" d="M122.369,86.257c-2.709,0.927-5.036,2.447-7.213,4.425c-2.629-8.69-7.465-15.741-14.479-21.314
		c3.97-2.827,5.994-5.586,6.648-9.548c0.264-1.598,0.668-3.105,1.274-4.58c0.91-2.212,1.81-4.43,2.392-6.754
		c0.153-0.619,0.438-0.931,1.061-1.123c1.972-0.607,3.933-1.247,5.868-1.955c7.266-2.66,10.297-10.123,6.953-17.095
		c-0.934-1.944-1.911-3.867-2.896-5.787c-2.715-5.301-6.838-8.985-12.523-10.868c-3.419-1.132-6.954-1.001-10.479-0.969
		c-0.727,0.006-1.332-0.14-1.967-0.548C84.207,1.886,70.882,1.572,57.156,7.577c-3.465,2.814-7.488,3.177-11.809,3.265
		c-5.907,0.122-10.81,2.865-14.59,7.454c-2.689,3.263-4.328,7.136-6.019,10.939c-2.713,6.103,0.145,13.138,6.291,15.723
		c2.198,0.924,4.491,1.625,6.761,2.367c0.639,0.209,1.023,0.459,1.197,1.164c0.688,2.785,1.841,5.409,2.909,8.061
		c0.28,0.695,0.559,1.389,0.604,2.159c0.109,1.859,0.717,3.572,1.581,5.208c1.203,2.277,3.011,3.99,5.243,5.467
		c-7.493,5.927-12.447,13.384-14.955,22.599c-5.513-5.855-9.195-12.504-11.302-20.042c-1.172-4.191-1.498-8.489-1.74-12.813
		c-0.398-7.111-7.961-11.11-14.039-7.427C4.857,53.173,4,55.489,3,58.118c0,1.129,0,2.258,0,3.387c0,0.156,0.139,0.365,0.146,0.564
		C3.139,62.268,3,62.477,3,62.633c0,0.658,0,1.317,0,1.976c0,0.174,0.115,0.558,0.158,0.854c0.314,2.185,0.418,4.399,0.875,6.553
		c3.41,16.063,11.495,29.193,24.579,39.187c1.268,0.969,2.575,1.863,3.902,2.751c0.475,0.317,0.575,0.709,0.474,1.2
		c-0.115,0.564-0.594,0.328-0.926,0.356c-0.842,0.07-1.69,0.093-2.532,0.159c-7.997,0.639-12.955,9.696-9.167,16.771
		c2.394,4.47,6.237,6.404,11.214,6.401c24.599-0.012,49.196,0,73.796-0.024c0.918,0,1.564,0.25,2.203,0.916
		c2.021,2.102,4.138,4.109,6.154,6.215c0.682,0.71,1.024,0.861,1.799,0.021c8.797-9.546,17.645-19.043,26.477-28.556
		c2.76-2.975,4.43-6.441,5.04-10.48C149.15,93.014,135.674,81.709,122.369,86.257z M116.957,23.157
		c1.594,2.593,2.97,5.331,4.08,8.169c1.516,3.875-0.307,7.943-4.162,9.488c-1.216,0.487-2.508,0.788-3.719,1.285
		c-0.893,0.366-1.023,0.095-0.971-0.741c0.219-3.398-0.056-6.764-0.836-10.079c-1.293-5.481-3.732-10.396-7.343-14.726
		c-0.267-0.32-0.528-0.643-1.012-1.229C109.209,15.592,113.844,18.097,116.957,23.157z M90.292,11.506
		c10.849,5.087,17.983,17.167,17.251,29.169c-0.193,3.164-0.779,6.223-1.939,9.376c-2.42-3.629-5.563-5.865-9.664-6.546
		c-2.696-0.448-5.438-0.234-8.162-0.22c-0.824,0.004-1.16-0.145-1.338-1.082c-0.688-3.646-3.539-5.883-7.489-5.842
		c-1.314,0.013-1.548-0.359-1.417-1.571c0.966-9.031,4.666-16.708,11.193-23.031C89.255,11.249,89.623,11.192,90.292,11.506z
		 M80.979,45.65c-1.182,1.208-2.359,2.419-3.582,3.583c-1.477,1.406-3.299,1.43-4.767,0.047c-1.263-1.19-2.473-2.437-3.683-3.682
		c-0.85-0.874-1.206-1.912-0.69-3.078c0.489-1.105,1.464-1.546,2.613-1.576c1.407-0.037,2.815-0.009,4.223-0.009
		c1.314,0,2.628-0.024,3.942,0.006c1.201,0.027,2.215,0.462,2.707,1.644C82.234,43.771,81.824,44.786,80.979,45.65z M84.48,9.336
		c-2.166,2.317-4.021,4.605-5.576,7.11c-1.524,2.453-2.764,5.058-3.93,8.178c-2.165-5.97-5.25-10.839-9.493-15.27
		C71.899,7.964,78.064,7.992,84.48,9.336z M40.011,26.715c-1.766,4.675-2.541,9.517-2.225,14.51
		c0.064,1.007-0.142,1.239-1.114,0.834c-1.166-0.484-2.411-0.776-3.583-1.248c-3.852-1.549-5.785-5.667-4.124-9.48
		c1.845-4.234,3.496-8.651,7.089-11.86c3.022-2.7,6.576-4.037,10.941-4.12C43.85,18.899,41.566,22.594,40.011,26.715z M44.38,50.031
		c-5.523-14.904,1.021-31.44,15.039-38.412c0.852-0.424,1.342-0.358,2.036,0.325c6.399,6.308,10.028,13.917,10.983,22.84
		c0.128,1.196-0.08,1.59-1.409,1.579c-4.103-0.035-6.74,2.132-7.542,6.113c-0.166,0.825-0.561,0.792-1.145,0.797
		c-2.723,0.021-5.464-0.207-8.163,0.21C50.014,44.128,46.83,46.377,44.38,50.031z M47.101,56.207c0.477-4.36,4.056-7.843,8.515-8.19
		c1.448-0.113,2.912-0.018,4.887-0.018c3.022-0.993,5.434,0.662,7.565,3.273c1.366,1.674,2.994,3.111,5.278,3.512
		c2.785,0.488,5.21-0.164,7.244-2.153c1.242-1.217,2.514-2.41,3.672-3.704c0.648-0.726,1.295-1.034,2.283-1
		c2.439,0.084,4.891-0.034,7.329,0.054c4.429,0.16,7.969,3.183,8.878,7.469c0.861,4.067-1.208,8.234-5.08,10.184
		c-1.322,0.666-2.742,0.948-4.219,0.952c-2.444,0.005-4.889-0.023-7.331,0.019c-0.677,0.011-1.113-0.213-1.567-0.697
		c-1.255-1.335-2.556-2.626-3.871-3.901c-3.343-3.236-8-3.247-11.351-0.047c-0.204,0.195-0.391,0.407-0.6,0.596
		c-1.448,1.312-2.548,3.692-4.271,3.868c-3.545,0.362-7.248,0.701-10.785-0.295C49.289,64.892,46.608,60.709,47.101,56.207z
		 M73.619,73.631C77.146,73.644,77,73.677,77,70.196c0-1.534,0-3.068,0-4.969c2,1.632,3.288,2.914,4.484,4.515
		c0.559,0.747,0.455,1.604,0.322,2.444c-0.605,3.828-3.638,6.251-7.537,5.981c-3.507-0.244-6.285-3.364-6.325-7.051
		c-0.006-0.543,0.123-1.029,0.443-1.448c1.191-1.557,2.686-2.815,4.289-4.467c0,2.738-0.029,5.041-0.091,7.34
		C72.563,73.42,72.757,73.628,73.619,73.631z M8.797,72.249c-0.72-3.458-1.219-6.938-1.325-10.675c0-0.689-0.064-1.587,0.013-2.473
		c0.196-2.267,2.032-4.006,4.263-4.112c2.439-0.116,4.528,1.428,4.839,3.777c0.395,2.978,0.209,6.013,0.814,8.977
		c0.215,1.057,0.356,2.131,0.614,3.177c0.169,0.685-0.044,0.908-0.703,1.007c-2.414,0.363-4.829,0.731-7.226,1.188
		C9.247,73.274,8.973,73.09,8.797,72.249z M33.007,108.691c-8.455-6.022-14.787-13.485-19.292-22.51
		c-1.214-2.433-2.235-4.945-3.129-7.516c-0.218-0.627-0.256-0.919,0.508-1.033c2.504-0.377,5.012-0.75,7.497-1.234
		c0.841-0.162,1.057,0.199,1.283,0.828c2.709,7.547,6.999,14.073,12.751,19.646c0.37,0.357,0.713,0.676,0.651,1.303
		C32.939,101.591,33.004,105.021,33.007,108.691z M44.766,133.078c-0.04,0.555,0.085,1.143-0.817,1.125
		c-4.652-0.087-9.312,0.203-13.956-0.141c-3.606-0.269-6.334-3.387-6.293-6.918c0.042-3.656,2.967-6.74,6.656-6.908
		c2.018-0.092,4.045-0.09,6.063-0.008c1.035,0.041,1.335-0.211,1.323-1.293c-0.063-5.453-0.098-10.908-0.016-16.36
		c0.194-12.913,5.593-23.132,16.059-30.692c0.72-0.52,1.418-0.72,2.333-0.668c2.015,0.115,4.042,0.083,6.062,0.043
		c0.838-0.017,1.203,0.125,1.287,1.11c0.503,5.937,5.665,10.6,11.561,10.546c5.908-0.055,10.977-4.648,11.481-10.488
		c0.077-0.888,0.296-1.196,1.226-1.177c2.254,0.045,4.513-0.03,6.767-0.067c0.336-0.005,0.638,0.005,0.937,0.205
		c5.86,3.908,10.344,8.993,13.459,15.703c-3.355-1.525-6.617-1.938-9.978-1.874c-6.696,0.127-12.069,2.771-15.948,8.284
		c-0.4,0.568-0.652,0.825-1.421,0.445c-9.878-4.879-20.414,1.669-20.557,12.771c-0.053,4.137-0.027,8.274,0.006,12.411
		c0.007,0.89-0.036,1.304-1.186,1.188C52.249,119.559,45.306,125.488,44.766,133.078z M66.459,134c-0.657,0-1.314,0-2.172,0
		c-0.911,0-2.331,0.573-3.058-0.127c-0.735-0.708-0.251-2.091-0.213-3.193c0.034-0.986-0.243-1.313-1.233-1.195
		c-1.104,0.132-2.574-0.447-3.228,0.25c-0.548,0.584-0.271,2.049-0.179,3.105c0.099,1.146-0.318,1.436-1.4,1.374
		c-1.59-0.089-3.19-0.045-4.785-0.01c-0.698,0.017-0.845-0.205-0.776-0.904c0.461-4.675,4.209-8.192,9.025-8.405
		c4.448-0.197,8.609,3.096,9.407,7.564C68.13,134.045,68.088,134,66.459,134z M79.66,126.525c-1.264,1.914-2.068,3.99-2.188,6.289
		c-0.052,1.006-0.332,1.545-1.49,1.4c-1.018-0.127-2.245,0.27-3.039-0.175c-0.803-0.449-0.377-1.806-0.599-2.747
		c-0.853-3.633-2.762-6.534-5.851-8.631c-0.546-0.37-0.853-0.71-0.847-1.438c0.039-4.979-0.047-9.961,0.038-14.939
		c0.12-7.021,7.132-11.415,13.333-8.441c0.989,0.475,1.424,0.911,1.146,2.215c-1.33,6.283,0.121,11.914,4.48,16.688
		c1.133,1.239,2.475,2.288,3.721,3.424c-0.094,0.142-0.188,0.284-0.281,0.427C84.535,121.533,81.689,123.455,79.66,126.525z
		 M94.343,134.204c-0.696,0.01-0.737-0.351-0.728-0.881c0.021-1.031-0.02-2.065,0.018-3.097c0.02-0.553-0.17-0.783-0.718-0.707
		c-0.046,0.006-0.095,0-0.142,0.002c-1.213,0.028-2.741-0.375-3.547,0.213c-0.764,0.559-0.213,2.182-0.218,3.332
		c-0.002,0.813-0.161,1.186-1.079,1.146c-1.687-0.068-3.379-0.049-5.066-0.006c-0.704,0.018-0.842-0.234-0.824-0.896
		c0.127-4.854,5.74-9.349,10.419-8.321c0.294,0.063,0.522,0.172,0.726,0.374c2.859,2.839,5.719,5.678,8.894,8.828
		C99.195,134.191,96.77,134.173,94.343,134.204z M138.395,114.469c-7.643,8.238-15.309,16.456-22.922,24.723
		c-0.781,0.85-1.16,0.758-1.914,0c-8.187-8.239-16.425-16.428-24.615-24.662c-3.969-3.99-5.623-8.733-4.037-14.271
		c1.795-6.267,7.012-10.163,13.537-10.327c0.423-0.011,0.847,0,1.271,0c4.712-0.236,8.593,1.521,11.854,4.86
		c0.996,1.021,1.912,2.83,3.125,2.728c1.08-0.09,2.047-1.768,3.029-2.776c3.215-3.31,7.055-5.021,11.729-4.775
		c7.334,0.384,13.475,7.276,13.109,14.615C142.366,108.423,140.98,111.684,138.395,114.469z"/>
	<path fill="#6E9E96" d="M137.667,103.965c0.022,2.575-0.979,4.732-2.685,6.607c-5.977,6.568-11.957,13.133-17.91,19.723
		c-0.547,0.604-0.889,0.813-1.522,0.117c-0.788-0.864-2.298-1.583-2.36-2.447c-0.061-0.828,1.31-1.783,2.09-2.646
		c5.306-5.846,10.625-11.678,15.931-17.521c1.978-2.177,2.306-4.288,1.078-6.402c-0.625-1.076-1.536-1.738-2.728-2.045
		c-0.301-0.076-0.817,0.067-0.842-0.322c-0.087-1.402-0.139-2.815-0.061-4.217c0.029-0.513,0.634-0.213,0.951-0.176
		C134.258,95.184,137.658,99.135,137.667,103.965z"/>
	<path fill="#6E9E96" d="M65.567,31.615c-0.422,0-0.849-0.04-1.266,0.009c-0.687,0.08-0.948-0.169-1.112-0.869
		c-0.568-2.416-2.284-3.764-4.586-3.738c-2.269,0.026-4.001,1.464-4.478,3.865c-0.124,0.623-0.342,0.764-0.891,0.739
		c-0.656-0.029-1.313-0.007-1.971-0.006c-2.102,0-2.102,0-1.671-2.02c0.888-4.165,4.933-7.378,9.176-7.29
		c4.464,0.092,8.364,3.421,9.087,7.756C68.116,31.614,68.116,31.614,65.567,31.615z"/>
	<path fill="#6E9E96" d="M98.332,31.614c-0.328,0-0.66-0.031-0.984,0.006c-0.953,0.109-1.41-0.101-1.625-1.239
		c-0.383-2.042-2.35-3.375-4.447-3.368c-2.118,0.007-3.983,1.347-4.409,3.422c-0.212,1.029-0.623,1.304-1.57,1.192
		c-0.603-0.071-1.219-0.013-1.829-0.014c-1.611-0.001-1.636-0.032-1.337-1.646c0.815-4.407,4.92-7.783,9.31-7.659
		c4.639,0.131,8.381,3.511,9.066,8.074c0.148,0.993-0.001,1.391-1.048,1.24C99.09,31.57,98.708,31.615,98.332,31.614z"/>
</g>
</svg>
