<?xml version="1.0" encoding="utf-8"?>
<!-- Generator: Adobe Illustrator 16.0.0, SVG Export Plug-In . SVG Version: 6.00 Build 0)  -->
<!DOCTYPE svg PUBLIC "-//W3C//DTD SVG 1.1//EN" "http://www.w3.org/Graphics/SVG/1.1/DTD/svg11.dtd">
<svg version="1.1" id="Capa_1" xmlns="http://www.w3.org/2000/svg" xmlns:xlink="http://www.w3.org/1999/xlink" x="0px" y="0px"
	 width="150px" height="150px" viewBox="0 0 150 150" enable-background="new 0 0 150 150" xml:space="preserve">
<g>
	<path fill-rule="evenodd" clip-rule="evenodd" fill="#6E9E96" d="M138.06,77.486c-0.061,1.25-0.781,1.959-1.534,2.598
		c-0.762,0.643-0.791,1.16,0.002,1.777c0.363,0.283,0.676,0.646,0.959,1.014c0.844,1.09,0.771,2.223-0.169,3.154
		c-0.944,0.936-2.082,0.92-3.181,0.156c-0.143-0.1-0.292-0.211-0.387-0.35c-0.991-1.459-1.853-1.381-2.998-0.031
		c-1.047,1.234-2.574,1.203-3.547,0.236c-0.984-0.979-1.03-2.486,0.208-3.539c1.358-1.154,1.33-1.91-0.005-3.057
		c-1.234-1.063-1.188-2.561-0.198-3.541c0.978-0.968,2.492-0.999,3.545,0.244c1.147,1.355,1.958,1.379,3.011-0.025
		c0.705-0.942,1.773-1.115,2.844-0.698C137.572,75.801,137.962,76.645,138.06,77.486z"/>
	<path fill-rule="evenodd" clip-rule="evenodd" fill="#6E9E96" d="M36.748,69.022c0.054,1.367-1.084,2.559-2.484,2.599
		c-1.402,0.043-2.604-1.06-2.652-2.434c-0.049-1.36,1.1-2.562,2.487-2.603C35.501,66.543,36.693,67.641,36.748,69.022z"/>
	<path fill-rule="evenodd" clip-rule="evenodd" fill="#6E9E96" d="M31.92,100.16c0.025,1.418-1.058,2.545-2.471,2.572
		c-1.442,0.027-2.535-1.023-2.564-2.467c-0.03-1.449,1.021-2.543,2.463-2.566C30.792,97.676,31.895,98.732,31.92,100.16z"/>
	<path fill-rule="evenodd" clip-rule="evenodd" fill="#6E9E96" d="M129.6,38.926c-7.301-2-14.601-4.002-21.912-5.961
		c-1.066-0.285-1.574-0.618-1.619-1.921c-0.234-6.671-2.652-12.493-7.297-17.323c-6.039-6.276-13.561-8.377-22.088-8.123
		c-13.716,0.408-25.149,11.543-25.51,25.236c-0.036,1.409-0.561,1.823-1.807,2.152c-7.374,1.947-14.719,4.012-22.088,5.979
		c-1.823,0.487-2.586,1.505-2.511,3.396c0.099,2.507,0.021,5.021,0.025,7.533c0.004,3.011,0.577,3.59,3.573,3.592
		c10.689,0.002,21.378,0,32.066,0c0.623,0,1.246,0,2.108,0c-0.412,0.709-0.675,1.207-0.979,1.68
		c-4.577,7.105-9.159,14.211-13.741,21.316c-1.895,2.939-3.806,5.869-5.678,8.824c-0.942,1.484-0.723,2.912,0.488,3.68
		c1.246,0.791,2.503,0.398,3.547-1.113c0.165-0.24,0.307-0.496,0.465-0.74c6.983-10.828,13.964-21.658,20.961-32.476
		c0.314-0.484,0.535-1.472,1.314-1.026c0.565,0.321-0.05,1.056-0.219,1.569c-1.91,5.808-3.846,11.605-5.774,17.407
		c-1.505,4.53-3.015,9.059-4.505,13.594c-0.463,1.408,0.098,2.441,1.398,2.973c1.363,0.557,2.375-0.037,3.01-1.301
		c0.207-0.414,0.351-0.861,0.498-1.303c3.422-10.27,6.887-20.525,10.215-30.826c0.552-1.708,1.185-2.555,3.094-2.296
		c1.436,0.193,2.925,0.137,4.373,0.01c1.393-0.122,2.001,0.333,2.451,1.714c3.427,10.519,6.959,21.003,10.458,31.496
		c0.746,2.238,1.901,3.109,3.396,2.559c1.53-0.564,1.884-1.863,1.13-4.146c-0.036-0.111-0.083-0.217-0.119-0.328
		c-3.304-9.88-6.615-19.757-9.881-29.65c-0.154-0.467-0.85-1.186-0.168-1.518c0.756-0.367,0.959,0.611,1.332,1.08
		c0.217,0.272,0.378,0.588,0.566,0.882c6.791,10.535,13.581,21.071,20.377,31.604c0.346,0.537,0.68,1.107,1.133,1.545
		c0.855,0.828,1.887,0.932,2.878,0.262c1.034-0.701,1.399-1.707,0.893-2.898c-0.227-0.531-0.573-1.014-0.888-1.502
		c-6.313-9.804-12.629-19.605-18.934-29.414c-0.304-0.473-0.771-0.873-0.797-1.656c0.65,0,1.277,0,1.906,0
		c10.688,0,21.377,0.002,32.065,0c2.952-0.002,3.636-0.676,3.64-3.566c0.004-2.395,0.003-4.789,0.001-7.184
		C132.447,40.076,132.116,39.616,129.6,38.926z M65.752,21.36c1.637-2.251,3.641-4.237,5.9-5.885
		c0.883-0.643,1.932-0.291,2.684,0.514c0.811,0.867,1.034,1.983,0.248,2.855c-1.71,1.9-3.566,3.672-5.405,5.452
		c-0.308,0.297-0.831,0.37-1.075,0.473C66.153,24.833,64.729,22.768,65.752,21.36z M123.644,48.721c-3.095,0-6.19,0-9.285,0
		c-3.483,0-3.481,0-3.488-3.4c-0.001-0.526,0.01-1.054-0.036-1.576c-0.119-1.385-0.964-2.162-2.281-2.177
		c-1.397-0.015-2.316,0.768-2.389,2.245c-0.061,1.224-0.087,2.455-0.005,3.676c0.069,1.027-0.322,1.375-1.289,1.237
		c-0.229-0.032-0.466-0.004-0.7-0.005c-1.635-0.014-3.651,0.557-4.801-0.197c-1.276-0.838-0.301-2.996-0.455-4.57
		c-0.142-1.461-0.881-2.268-2.286-2.399c-1.329-0.126-2.319,0.901-2.441,2.397c-0.02,0.232,0.003,0.468-0.016,0.701
		c-0.107,1.32,0.599,3.124-0.313,3.834c-0.849,0.66-2.568,0.223-3.904,0.229c-3.003,0.016-3.002,0.006-3.003-2.981
		c0-0.583,0.007-1.167-0.007-1.751c-0.037-1.464-0.841-2.278-2.245-2.429c-1.329-0.142-2.38,0.856-2.487,2.363
		c-0.082,1.163-0.107,2.343-0.008,3.501c0.098,1.133-0.352,1.469-1.387,1.308c-0.229-0.036-0.467-0.003-0.699-0.005
		c-1.629-0.022-3.681,0.543-4.766-0.236c-1.043-0.748-0.219-2.933-0.346-4.48c-0.123-1.499-1.075-2.519-2.414-2.453
		c-1.449,0.07-2.258,0.932-2.362,2.333c-0.095,1.278-0.065,2.569-0.021,3.853c0.025,0.751-0.211,1.087-0.985,0.99
		c-0.287-0.037-0.584-0.006-0.876-0.006c-1.635-0.006-3.646,0.573-4.804-0.172c-1.28-0.826-0.284-2.985-0.474-4.551
		c-0.184-1.505-1.101-2.52-2.445-2.444c-1.533,0.087-2.309,1.017-2.375,2.503c-0.055,1.225-0.052,2.453-0.003,3.678
		c0.03,0.748-0.196,1.086-0.978,0.994c-0.404-0.047-0.817-0.002-1.227-0.01c-1.568-0.025-3.539,0.506-4.592-0.246
		c-1.01-0.723-0.229-2.818-0.34-4.306c-0.123-1.648-1.055-2.65-2.461-2.628c-1.393,0.021-2.283,1.051-2.367,2.701
		c-0.075,1.443,0.628,3.371-0.26,4.204c-0.961,0.901-2.884,0.247-4.385,0.264c-3.62,0.038-7.241-0.02-10.861,0.034
		c-0.987,0.015-1.267-0.271-1.283-1.268c-0.065-4.057-0.103-4.056,3.795-5.133c6.174-1.703,12.348-3.401,18.519-5.117
		c1.188-0.33,2.382-0.469,3.619-0.465c7.708,0.026,15.417,0.014,23.126,0.014c6.773,0,13.549,0.08,20.321-0.033
		c3.31-0.057,6.462,0.432,9.628,1.359c5.922,1.734,11.891,3.315,17.859,4.886c0.98,0.257,1.279,0.62,1.285,1.63
		C127.666,48.721,127.705,48.721,123.644,48.721z"/>
	<path fill-rule="evenodd" clip-rule="evenodd" fill="#6E9E96" d="M139.887,139.652c-0.565-0.109-1.164-0.059-1.746-0.059
		c-13.434-0.004-26.866-0.02-40.299,0.027c-1.291,0.004-1.654-0.246-1.555-1.617c0.451-6.23,0.773-12.471,1.134-18.707
		c0.03-0.523,0.017-1.018,0.452-1.438c1.408-1.361,2.619-2.986,5.018-2.461c0.875,0.191,1.841-0.063,2.755-0.332
		c3.886-1.148,5.79-4.066,6.998-7.654c0.659-1.957,0.047-3.207-1.962-3.645c-2.393-0.52-4.785-1.189-7.208-1.367
		c-3.667-0.266-5.911-1.6-5.87-5.65c0.014-1.271-0.656-2.383-2.156-2.566c-1.587-0.195-2.288,0.822-2.822,2.092
		c-1.671,3.969-3.384,7.92-5.027,11.9c-0.377,0.91-0.803,1.346-1.897,1.336c-7.008-0.063-14.017-0.047-21.024-0.012
		c-0.889,0.002-1.537-0.279-2.184-0.852c-1.527-1.357-3.107-2.654-4.675-3.963c-0.837-0.699-1.716-1.199-2.872-0.684
		c-1.218,0.545-1.466,1.559-1.455,2.734c0.004,0.291,0,0.584,0,0.875c0,9.111,0.004,18.223-0.004,27.334
		c0,1.523,0.033,3.033,0.873,4.646c-0.921,0-1.56,0-2.197,0c-12.674,0-25.347-0.002-38.02,0.006c-0.639,0-1.299-0.014-1.908,0.139
		c-1.236,0.311-1.842,1.17-1.766,2.455c0.073,1.223,0.813,1.906,1.941,2.158c0.504,0.113,1.047,0.059,1.572,0.059
		c41.466,0.002,82.932,0.002,124.398,0c0.467,0,0.943,0.045,1.399-0.027c1.306-0.207,2.136-0.943,2.173-2.318
		C141.99,140.678,141.182,139.904,139.887,139.652z M64.383,139.609c-1.133,0.006-1.063-0.451-0.793-1.266
		c0.857-2.592,1.754-5.178,2.461-7.813c0.34-1.268,0.941-1.316,2.01-1.084c4.529,0.99,9.096,1.324,13.71,0.605
		c2.819-0.439,2.774-0.395,3.475,2.455c0.565,2.309,0.821,4.699,1.958,7.082C79.417,139.59,71.899,139.574,64.383,139.609z
		 M94.562,114.355c-1.171,1.289-1.88,2.527-1.952,4.277c-0.217,5.193-0.546,10.379-0.832,15.566c-0.562,0.738,0.554,1.9-0.632,2.479
		c-0.813-3.52-1.603-7.043-2.446-10.555c-0.445-1.852-1.646-2.627-3.371-1.973c-6.139,2.33-12.281,1.563-18.434,0.186
		c-3.17-0.709-3.725-0.434-4.707,2.643c-1.111,3.473-2.213,6.949-3.73,10.365c0-8.535,0-17.07,0-25.748
		c0.057-0.045,0.273,0.084,0.415,0.256c1.911,2.32,4.44,2.531,7.247,2.479c7.18-0.141,14.365-0.084,21.549-0.021
		c1.767,0.016,2.826-0.627,3.471-2.273c0.975-2.484,2.086-4.916,3.19-7.492c0.753,0.877,1.605,1.201,2.596,1.383
		c3.38,0.621,6.743,1.33,10.233,2.029c-0.892,1.957-2.496,2.943-4.32,2.688C99.18,110.133,96.828,111.867,94.562,114.355z"/>
	<path fill-rule="evenodd" clip-rule="evenodd" fill="#6E9E96" d="M91.146,136.678c0.757-0.688,0.094-1.736,0.632-2.479
		c0.078,0.955,0.354,1.934-0.328,2.797c-0.016,0.02-0.133-0.006-0.159-0.041C91.229,136.871,91.191,136.77,91.146,136.678z"/>
	<path fill-rule="evenodd" clip-rule="evenodd" fill="#6E9E96" d="M16.4,72.609c-4.573-0.007-8.336,3.749-8.355,8.336
		c-0.02,4.619,3.666,8.383,8.25,8.428c4.646,0.045,8.516-3.791,8.485-8.41C24.749,76.395,20.959,72.616,16.4,72.609z M16.426,84.541
		c-1.994,0.014-3.547-1.488-3.586-3.471s1.47-3.572,3.438-3.623c2.034-0.057,3.704,1.557,3.695,3.564
		C19.964,82.971,18.401,84.525,16.426,84.541z"/>
</g>
</svg>
