<?xml version="1.0" encoding="utf-8"?>
<!-- Generator: Adobe Illustrator 16.0.0, SVG Export Plug-In . SVG Version: 6.00 Build 0)  -->
<!DOCTYPE svg PUBLIC "-//W3C//DTD SVG 1.1//EN" "http://www.w3.org/Graphics/SVG/1.1/DTD/svg11.dtd">
<svg version="1.1" id="Capa_1" xmlns="http://www.w3.org/2000/svg" xmlns:xlink="http://www.w3.org/1999/xlink" x="0px" y="0px"
	 width="150px" height="150px" viewBox="0 0 150 150" enable-background="new 0 0 150 150" xml:space="preserve">
<path fill="#6E9E96" d="M130.443,6.988H17.914c-5.156,0-9.346,4.248-9.346,9.463v112.324c0,5.215,4.189,9.463,9.346,9.463h112.53
	c5.156,0,9.375-4.248,9.375-9.463V16.451C139.818,11.236,135.6,6.988,130.443,6.988z M48.236,119.488H28.783V56.852h19.482v62.637
	H48.236z M38.509,48.297c-6.24,0-11.279-5.068-11.279-11.279s5.039-11.279,11.279-11.279c6.211,0,11.279,5.068,11.279,11.279
	C49.789,43.258,44.75,48.297,38.509,48.297z M121.156,119.488h-19.453V89.02c0-7.266-0.146-16.611-10.107-16.611
	c-10.137,0-11.689,7.91-11.689,16.084v30.996H60.453V56.852h18.663v8.555h0.264c2.607-4.922,8.965-10.107,18.428-10.107
	c19.688,0,23.35,12.979,23.35,29.854V119.488z"/>
</svg>
