<?xml version="1.0" encoding="utf-8"?>
<!-- Generator: Adobe Illustrator 16.0.0, SVG Export Plug-In . SVG Version: 6.00 Build 0)  -->
<!DOCTYPE svg PUBLIC "-//W3C//DTD SVG 1.1//EN" "http://www.w3.org/Graphics/SVG/1.1/DTD/svg11.dtd">
<svg version="1.1" id="Capa_1" xmlns="http://www.w3.org/2000/svg" xmlns:xlink="http://www.w3.org/1999/xlink" x="0px" y="0px"
	 width="150px" height="150px" viewBox="0 0 150 150" enable-background="new 0 0 150 150" xml:space="preserve">
<g>
	<path fill="#6E9E96" d="M146.744,33.24c-1.253,1.576-2.982,1.527-4.76,1.471c-2.1-0.066-4.201-0.001-6.303-0.022
		c-1.57-0.016-2.529-0.847-2.563-2.162c-0.036-1.374,0.938-2.274,2.587-2.295c2.381-0.03,4.768,0.08,7.143-0.04
		c1.729-0.086,3.073,0.312,3.896,1.924C146.744,32.49,146.744,32.865,146.744,33.24z"/>
	<path fill="#6E9E96" d="M35.105,60.765c0.647,0.002,1.176,0.272,1.625,0.72c0.531,0.529,1.11,1.019,1.576,1.6
		c0.609,0.76,1.095,0.82,1.734,0.027c0.496-0.616,1.091-1.161,1.688-1.686c1.02-0.897,2.277-0.868,3.146,0.023
		c0.835,0.857,0.864,2.054,0.057,3.052c-0.757,0.937-2.344,1.612-2.279,2.651c0.056,0.893,1.482,1.676,2.248,2.556
		c0.836,0.962,0.794,2.197-0.027,3.047c-0.866,0.896-2.135,0.939-3.146,0.043c-0.7-0.62-1.357-1.292-1.988-1.983
		c-0.41-0.449-0.707-0.475-1.129-0.014c-0.631,0.69-1.292,1.36-1.992,1.98c-1.013,0.896-2.273,0.858-3.147-0.033
		c-0.863-0.88-0.839-2.125,0.042-3.155c0.75-0.876,2.257-1.535,2.186-2.541c-0.061-0.863-1.394-1.634-2.162-2.45
		c-0.715-0.759-0.915-1.637-0.461-2.581C33.471,61.199,34.17,60.764,35.105,60.765z"/>
	<path fill="#6E9E96" d="M133.173,27.98c-0.989-0.021-1.698-0.457-2.079-1.278c-0.377-0.813-0.348-1.709,0.295-2.367
		c2.317-2.374,4.644-4.744,7.057-7.016c0.884-0.831,2.033-0.722,2.912,0.155c0.873,0.871,1.031,2.003,0.176,2.903
		c-2.315,2.438-4.73,4.78-7.121,7.146C134.068,27.862,133.591,27.952,133.173,27.98z"/>
	<path fill="#6E9E96" d="M124.13,16.84c0.001-1.45-0.034-2.9,0.011-4.349c0.047-1.503,0.875-2.314,2.246-2.31
		c1.37,0.004,2.219,0.816,2.24,2.318c0.043,2.852,0.039,5.705,0.002,8.557c-0.02,1.494-1.013,2.477-2.322,2.437
		c-1.252-0.039-2.13-0.99-2.168-2.446C124.102,19.646,124.129,18.242,124.13,16.84z"/>
	<path fill="#6E9E96" d="M60.368,45.874c-1.88,0.01-3.389-1.507-3.363-3.381c0.024-1.818,1.499-3.277,3.321-3.289
		c1.853-0.012,3.415,1.552,3.382,3.386C63.676,44.382,62.168,45.865,60.368,45.874z"/>
	<path fill="#6E9E96" d="M127.624,38.902c-0.739-4.14-1.81-8.145-4.819-11.328c-2.296-2.427-5.365-2.616-7.875-0.413
		c-2.923,2.565-5.877,5.099-8.689,7.781c-1.178,1.123-2.438,1.635-3.986,1.686c-6.104,0.198-11.184,2.759-15.65,6.75
		c-1.816,1.623-3.641,3.24-5.461,4.858c-0.805,0.716-1.584,1.464-2.422,2.139c-6.337,5.11-6.268,13.218-2.511,18.83
		c0.454,0.677,0.61,1.252,0.38,2.066c-0.5,1.753-0.895,3.539-1.266,5.327c-0.134,0.644-0.449,1.086-0.912,1.516
		c-7.29,6.746-14.735,13.316-22.338,19.713c-8.23,6.925-12.467,15.646-11.431,26.585c0.065,0.683-0.109,0.991-0.754,1.241
		c-3.041,1.176-6.18,1.884-9.429,2.07c-5.778,0.334-11.153-1.027-16.104-4.01c-2.418-1.456-4.918-1.771-7.513-0.638
		c-2.084,0.913-3.425,2.521-3.575,4.825c-0.144,2.209,0.981,3.871,2.819,5.008c5.804,3.589,12.109,5.668,18.931,6.048
		c5.931,0.332,11.797-0.127,17.534-1.771c0.518-0.146,0.793-0.268,0.991,0.44c0.567,2.021,0.854,2.19,2.948,2.19
		c10.542,0.002,21.086,0.002,31.628,0.002c10.309,0,20.617,0,30.925-0.002c0.563,0,1.127,0.013,1.687-0.032
		c3.485-0.277,6.389-2.951,6.686-6.14c0.281-3.006-2.119-5.961-5.566-6.809c-0.679-0.167-1.389-0.304-2.078-0.279
		c-0.944,0.032-1.049-0.341-0.953-1.175c0.432-3.771,0.877-7.541,1.156-11.321c0.295-3.963,1.207-7.686,2.911-11.317
		c2.96-6.312,5.615-12.763,8.405-19.154c0.339-0.778,0.618-1.543,0.57-2.428c-0.318-6.176-0.504-12.361-0.963-18.526
		c-0.184-2.471,0.074-4.562,1.91-6.364c0.826-0.812,1.393-1.883,2.151-2.772c2.185-2.559,2.914-5.598,3.03-8.856
		C128.061,42.717,127.963,40.798,127.624,38.902z M93.727,135.404c-15.041,0.021-30.082,0.009-45.123,0.029
		c-0.709,0.002-1.004-0.248-1.13-0.912c-0.148-0.776-0.322-1.568-0.942-2.149c-0.833-0.781-1.738-0.683-2.742-0.337
		c-8.354,2.865-16.842,3.414-25.451,1.316c-3.435-0.836-6.629-2.281-9.651-4.108c-0.44-0.267-0.976-0.538-0.882-1.144
		c0.096-0.613,0.635-0.873,1.19-1.068c1.187-0.418,2.186,0.019,3.184,0.609c5.673,3.366,11.802,4.92,18.398,4.558
		c4.539-0.251,8.871-1.357,13.002-3.245c1.567-0.719,1.967-1.43,1.707-3.105c-1.553-9.99,1.981-18,9.503-24.459
		c1.528-1.311,3.083-2.593,4.629-3.885c0.305-0.253,0.592-0.684,1.037-0.163c1.801,2.107,4.175,3.351,6.749,4.368
		c-3.139,0.527-6.051,1.434-8.645,3.212c-1.01,0.69-1.944,1.464-2.789,2.349c-1.208,1.263-1.324,2.609-0.31,3.569
		c0.976,0.925,2.282,0.81,3.457-0.39c2.324-2.371,5.11-3.811,8.422-4.034c5.167-0.353,9.283,1.688,12.067,6.01
		c2.839,4.406,2.938,9.072,0.579,13.767c-0.252,0.502-0.59,0.959-0.84,1.459c-0.566,1.131-0.254,2.318,0.752,2.959
		c0.977,0.623,2.365,0.461,2.957-0.635c0.641-1.188,1.515-1.262,2.645-1.236c2.716,0.057,5.436,0.002,8.15,0.023
		c2.174,0.016,3.582,1.319,3.599,3.279C97.266,134,95.875,135.402,93.727,135.404z M123.492,45.525
		c-0.133,1.873-0.7,3.556-1.924,5.024c-0.898,1.079-1.74,2.21-2.53,3.371c-0.57,0.84-1.21,1.337-2.292,1.276
		c-1.055-0.059-1.938,0.369-2.375,1.41c-0.441,1.055-0.082,1.987,0.715,2.66c1.156,0.978,1.374,2.206,1.432,3.619
		c0.244,5.899,0.553,11.795,0.862,17.692c0.034,0.646-0.182,1.184-0.425,1.743c-3.35,7.682-6.654,15.383-10.064,23.035
		c-0.854,1.92-0.843,3.926-1.074,5.904c-0.631,5.446-1.174,10.9-1.729,16.354c-0.267,2.606,0.488,3.405,3.12,3.413
		c0.844,0.003,1.688,0.009,2.531,0.007c0.669-0.002,1.305,0.143,1.888,0.467c0.677,0.375,1.288,0.862,1.298,1.704
		c0.01,0.844-0.604,1.329-1.27,1.721c-0.623,0.367-1.317,0.479-2.027,0.481c-2.529,0.012-5.063-0.003-7.591,0.022
		c-0.731,0.008-0.948-0.08-0.71-0.94c1.537-5.548-2.049-10.206-7.825-10.247c-2.203-0.018-4.408-0.077-6.606,0.023
		c-1.211,0.057-1.342-0.328-1.15-1.414c1.324-7.545-2.077-14.842-8.624-18.654c-1.786-1.041-3.729-1.668-5.725-2.321
		c0.682-0.12,1.37-0.212,2.046-0.358c9.436-2.086,13.646-13.736,7.528-21.22c-1.303-1.594-1.589-2.881-0.719-4.625
		c0.557-0.048,0.805,0.502,1.18,0.796c5.766,4.496,14.916,3.862,19.781-1.397c1.791-1.935,2.762-4.217,2.783-6.863
		c0.023-2.812,0.021-5.624,0.003-8.436c-0.009-1.659-0.881-2.665-2.242-2.665c-1.358,0-2.229,1.013-2.239,2.663
		c-0.017,2.671-0.052,5.343,0.008,8.013c0.052,2.272-0.933,3.965-2.69,5.272c-3.563,2.648-9.285,2.566-12.758-0.191
		c-0.509-0.403-1.075-0.852-1.349-1.411c-1.084-2.231-2.649-4.187-3.694-6.421c-1.902-4.067-0.968-8.101,2.385-11.06
		c2.39-2.109,4.853-4.142,7.131-6.363c4.359-4.25,9.489-6.593,15.593-6.709c1.58-0.03,2.834-0.589,4.01-1.686
		c3.05-2.842,6.233-5.541,9.31-8.356c0.938-0.86,1.597-0.905,2.415,0.116c0.742,0.925,1.391,1.889,1.816,2.985
		C123.141,37.681,123.771,41.533,123.492,45.525z"/>
	<path fill="#6E9E96" d="M131.984,83.948c-4.327,0-7.844,3.526-7.842,7.862c0.002,4.264,3.485,7.768,7.75,7.793
		c4.365,0.025,7.877-3.432,7.896-7.772C139.809,87.489,136.301,83.948,131.984,83.948z M132.031,95.119
		c-1.901,0.027-3.383-1.441-3.375-3.348c0.01-1.885,1.539-3.387,3.4-3.34c1.813,0.047,3.24,1.529,3.233,3.365
		C135.286,93.648,133.87,95.092,132.031,95.119z"/>
	<path fill="#6E9E96" d="M103.977,77.273c3.739-0.008,6.709,2.939,6.715,6.664c0.006,3.701-2.993,6.719-6.687,6.722
		c-3.696,0.004-6.721-3.005-6.726-6.692C97.271,80.264,100.255,77.282,103.977,77.273z"/>
	<path fill="#6E9E96" d="M93.979,110.79c-1.883,0.03-3.397-1.464-3.393-3.347c0.005-1.829,1.45-3.295,3.273-3.319
		c1.844-0.024,3.33,1.382,3.387,3.202C97.309,109.229,95.863,110.761,93.979,110.79z"/>
	<path fill="#6E9E96" d="M110.695,45.903c-0.004,1.226-1.002,2.223-2.227,2.222c-1.229,0-2.217-0.992-2.22-2.224
		c-0.002-1.22,1.007-2.234,2.224-2.235C109.684,43.667,110.695,44.688,110.695,45.903z"/>
	<path fill="#6E9E96" d="M72.621,126.448c0.015,3.741-2.91,6.698-6.649,6.725c-3.712,0.024-6.724-2.95-6.737-6.657
		c-0.014-3.72,2.945-6.701,6.67-6.725C69.638,119.771,72.605,122.712,72.621,126.448z"/>
</g>
</svg>
