<?xml version="1.0" encoding="utf-8"?>
<!-- Generator: Adobe Illustrator 16.0.0, SVG Export Plug-In . SVG Version: 6.00 Build 0)  -->
<!DOCTYPE svg PUBLIC "-//W3C//DTD SVG 1.1//EN" "http://www.w3.org/Graphics/SVG/1.1/DTD/svg11.dtd">
<svg version="1.1" id="Capa_1" xmlns="http://www.w3.org/2000/svg" xmlns:xlink="http://www.w3.org/1999/xlink" x="0px" y="0px"
	 width="150px" height="150px" viewBox="0 0 150 150" enable-background="new 0 0 150 150" xml:space="preserve">
<g>
	<path fill-rule="evenodd" clip-rule="evenodd" fill="#010101" d="M78.699,57.19c-1.109,0.018-1.777-0.739-2.414-1.465
		c-0.554-0.631-0.9-0.593-1.488,0c-1.655,1.671-2.782,1.875-3.853,0.845c-1.091-1.05-0.909-2.26,0.724-3.851
		c0.627-0.611,0.78-1.029,0.019-1.584c-0.272-0.198-0.501-0.464-0.723-0.722c-0.916-1.067-0.929-2.25-0.05-3.143
		c0.88-0.893,2.057-0.88,3.13,0.034c0.074,0.063,0.158,0.123,0.211,0.202c0.88,1.303,1.702,1.188,2.629-0.002
		c0.648-0.833,1.565-1.167,2.607-0.711c0.822,0.36,1.293,1.004,1.344,1.925c0.035,0.623-0.141,1.219-0.618,1.578
		c-1.421,1.068-1.646,2.059-0.044,3.169c0.438,0.303,0.635,0.843,0.661,1.414C80.892,56.092,79.911,57.166,78.699,57.19z"/>
	<path fill-rule="evenodd" clip-rule="evenodd" d="M134.748,16.879c0.023,1.07-0.719,1.693-1.411,2.286
		c-0.69,0.592-0.749,1.053,0.005,1.592c0.195,0.14,0.352,0.335,0.518,0.514c1.094,1.171,1.177,2.42,0.227,3.344
		c-0.966,0.938-2.272,0.939-3.326-0.294c-1.037-1.217-1.689-1.03-2.658,0.052c-1.06,1.184-2.398,1.167-3.324,0.19
		c-0.886-0.936-0.9-2.236,0.263-3.213c1.251-1.05,1.2-1.726-0.013-2.763c-1.156-0.988-1.132-2.277-0.238-3.219
		c0.926-0.976,2.297-1.02,3.309,0.199c1.088,1.308,1.82,1.155,2.768-0.067c0.614-0.794,1.512-1.069,2.492-0.66
		C134.247,15.212,134.715,15.909,134.748,16.879z"/>
	<path fill-rule="evenodd" clip-rule="evenodd" fill="#030303" d="M39.691,8.326c0.007,1.353-1.027,2.441-2.365,2.486
		c-1.394,0.046-2.533-1.057-2.536-2.458c-0.004-1.405,1.124-2.527,2.507-2.495C38.615,5.891,39.684,6.993,39.691,8.326z"/>
	<path fill-rule="evenodd" clip-rule="evenodd" fill="#030303" d="M83.209,26.368c1.319-0.014,2.43,1.052,2.478,2.381
		c0.051,1.414-1.028,2.558-2.425,2.571c-1.34,0.013-2.426-1.029-2.473-2.373C80.741,27.538,81.824,26.383,83.209,26.368z"/>
	<path fill-rule="evenodd" clip-rule="evenodd" fill="#8C8C8C" d="M27.808,81.1c0.357-0.1,0.721-0.3,1.07-0.278
		c0.581,0.036,0.469,0.306,0.078,0.552C28.648,80.966,28.163,81.305,27.808,81.1z"/>
	<path fill-rule="evenodd" clip-rule="evenodd" fill="#C5C5C5" d="M135.081,90.832c-0.121-0.305-0.44-0.246-0.664-0.362
		c0.39-0.284,0.819-0.463,1.319-0.492C135.756,90.463,135.511,90.719,135.081,90.832z"/>
	<path fill-rule="evenodd" clip-rule="evenodd" d="M143.746,81.964c-1.039-0.713-2.004-0.406-2.953,0.306
		c-1.525,1.145-3.175,2.098-4.916,2.881c-6.523,2.937-12.66,2.666-18.346-2.078c-1.951-1.629-3.813-3.35-5.709-5.037
		c-2.254-2.007-4.783-3.533-7.654-4.473c-4.363-1.428-8.88-1.813-13.434-1.846c-6.053-0.043-12.109,0.049-18.161-0.061
		c-5.009-0.091-9.923-0.813-14.478-3.108c-0.429-0.216-0.94-0.334-1.201-0.792c-1.333-2.338-3.585-3.825-5.333-5.779
		c-0.48-0.537-1.182-0.862-1.852-0.607c-0.92,0.35-1.445-0.012-1.997-0.649c-0.574-0.663-1.182-1.306-1.835-1.89
		c-0.818-0.731-1.121-1.581-1.164-2.688c-0.082-2.096-0.398-4.181-0.9-6.224c-0.716-2.911-1.663-5.728-3.733-8.004
		c-1.195-1.313-2.413-1.341-3.647-0.059c-0.878,0.913-1.7,1.884-2.486,2.878c-0.415,0.524-0.666,0.562-1.095,0.026
		c-0.981-1.225-2.09-2.329-3.457-3.128c-2.528-1.478-4.308-0.542-4.487,2.369c-0.162,2.626,0.407,5.158,1.285,7.597
		c0.4,1.112,0.172,1.63-0.898,1.887c-4.117,0.988-6.543,3.526-7.125,7.758c-0.121,0.879-0.689,1.297-1.462,1.64
		c-3.211,1.421-6.403,2.885-9.592,4.355c-1.83,0.843-2.184,1.768-1.4,3.637c0.943,2.248,1.934,4.478,2.869,6.729
		c0.435,1.048,1.163,1.624,2.284,1.795c3.522,0.538,7.046,1.069,10.557,1.672c2.135,0.365,4.251,0.576,6.381,0.029
		c0.428-0.098,0.899-0.378,1.148,0.273c-0.277,0.275-0.555,0.549-0.83,0.825c-1.746,1.751-1.75,2.646-0.002,4.407
		c1.271,1.283,2.552,2.559,3.83,3.835c0.416,0.416,0.846,0.916,1.457,0.898c0.867-0.024,1.052,0.529,1.236,1.155
		c0.919,3.127,2.54,5.882,4.401,8.531c1.767,2.516,3.414,5.115,5.151,7.652c0.437,0.639,0.613,1.268,0.573,2.041
		c-0.34,6.534-0.656,13.068-0.953,19.604c-0.033,0.718-0.259,1.304-0.654,1.89c-1.803,2.669-3.569,5.363-5.364,8.038
		c-0.578,0.861-0.924,1.735-0.349,2.725c0.527,0.905,1.367,1.151,2.366,1.147c4.053-0.019,8.105-0.033,12.158,0.006
		c1.35,0.013,2.211-0.555,2.75-1.754c0.82-1.824,1.71-3.617,2.496-5.455c1.513-3.537,3.486-6.875,4.563-10.602
		c1.341-4.637,2.744-9.257,4.042-13.905c0.282-1.011,0.695-1.388,1.772-1.451c2.677-0.16,5.354-0.423,8.012-0.779
		c5.656-0.759,11.263-1.774,16.602-3.845c0.092,0.185,0.158,0.268,0.174,0.357c0.023,0.144,0.021,0.292,0.019,0.438
		c-0.14,7.288,2.534,13.473,7.638,18.545c1.468,1.458,2.09,2.864,1.9,4.845c-0.076,0.803-0.25,1.294-0.975,1.74
		c-3.313,2.038-5.352,4.934-5.65,8.901c-0.15,1.979,0.719,2.933,2.691,2.946c2.49,0.018,4.982-0.057,7.471,0.028
		c1.447,0.049,2.355-0.534,3.123-1.713c2.502-3.846,5.022-7.682,7.648-11.442c1.027-1.471,1.18-2.718,0.234-4.288
		c-1.189-1.976-2.129-4.095-2.844-6.496c1.506,0.632,3.055,0.914,3.656,2.34c1.721,4.082,2.254,8.264,0.279,12.422
		c-0.855,1.802-1.978,3.477-2.952,5.224c-1.327,2.379-0.44,3.919,2.255,3.928c3.125,0.011,6.25,0.006,9.375,0.002
		c2.307-0.003,2.945-0.587,3.144-2.868c0.673-7.732,1.304-15.468,2.045-23.193c0.15-1.565-0.212-2.647-1.397-3.72
		c-4.204-3.807-7.297-8.35-8.836-13.888c-0.301-1.082,0.012-1.208,0.961-1.233c2.938-0.078,5.834-0.507,8.635-1.424
		c6.533-2.141,11.396-6.074,13.619-12.809C144.806,83.832,144.874,82.736,143.746,81.964z M53.826,72.341
		c0.393-0.397,0.689-0.706,1.348-0.338c6.215,3.476,13.044,4.068,19.965,4.122c4.779,0.037,9.558-0.008,14.335-0.085
		c1.135-0.019,1.609,0.275,1.459,1.47c-0.102,0.816-0.015,1.655-0.02,2.484c-0.029,4.409-2.601,7.021-6.988,7.04
		c-5.463,0.023-10.925,0.006-16.387,0.006c-5.658,0-11.315-0.031-16.971,0.027c-1.107,0.012-1.41-0.289-1.375-1.384
		c0.082-2.582,0.047-5.169,0.012-7.753c-0.01-0.688,0.178-1.189,0.68-1.669C51.226,74.982,52.523,73.659,53.826,72.341z
		 M29.74,47.981c0.168-0.146,0.389,0.116,0.417,0.377c1.297,1.285,1.876,2.791,1.365,4.766c-0.827-1.372-1.176-2.816-1.643-4.211
		C29.597,48.633,29.399,48.278,29.74,47.981z M30.754,71.58c-0.706-1.309-1.914-1.734-3.042-1.15
		c-1.131,0.585-1.462,1.789-0.86,3.141c0.099,0.223,0.216,0.438,0.325,0.655c1.167,2.339,1.174,2.392-1.485,2.736
		c-2.412,0.312-4.72-0.561-7.084-0.819c-1.791-0.195-3.559-0.594-5.348-0.818c-0.669-0.085-1.091-0.297-1.275-0.954
		c-0.078-0.279-0.217-0.542-0.331-0.811c-1.282-3.017-1.281-3.015,1.758-4.385c2.177-0.982,4.341-1.993,6.531-2.943
		c0.963-0.418,1.744-1.025,1.875-2.067c0.521-4.127,2.967-6.357,6.853-7.375c1.138-0.298,2.343-0.722,2.95-2.08
		c0.775,1.239,1.673,1.914,2.991,1.411c1.257-0.479,1.465-1.553,1.441-2.759c-0.042-2.178-0.366-4.438,1.51-6.15
		c0.137-0.125,0.276-0.247,0.508-0.455c1.194,2.316,1.613,4.748,1.999,7.189c0.045,0.289,0.14,0.586,0.11,0.869
		c-0.387,3.723,1.356,6.451,4.109,8.654c1.236,0.989,1.029,1.633-0.037,2.653c-3.349,3.204-6.611,6.5-9.84,9.825
		c-0.873,0.898-1.188,0.761-1.641-0.31C32.185,74.248,31.471,72.909,30.754,71.58z M34.636,85.318
		c-0.237,0.236-0.504,0.442-1.104,0.964c-0.378-0.541-0.744-1.062-1.106-1.583c-0.409-0.59,0.207-0.775,0.463-1.032
		c5.438-5.464,10.907-10.896,16.324-16.379c0.711-0.719,1.07-0.504,1.605,0.103c0.456,0.518,0.984,0.818,0.192,1.599
		C45.522,74.403,40.089,79.871,34.636,85.318z M41.498,96.496c-1.204-1.047-1.437-2.597-2.167-3.863
		c-1.753-3.043-1.341-5.41,1.612-7.475c1.353-0.945,2.383-2.353,3.798-3.794C44.931,86.935,45.266,92.111,41.498,96.496z
		 M119.37,94.791c-2.6-0.088-3.419,0.705-3.075,3.25c1.004,7.423,4.586,13.502,9.85,18.668c0.711,0.698,0.896,1.332,0.805,2.295
		c-0.621,6.512-1.199,13.028-1.717,19.549c-0.079,0.995-0.425,1.221-1.322,1.173c-1.213-0.064-2.432-0.016-3.738-0.016
		c0.162-1.023,0.828-1.708,1.225-2.515c0.365-0.743,1.014-1.417,1.152-2.19c0.916-5.126,1.065-10.208-1.592-14.955
		c-0.731-1.307-1.818-2.352-3.221-2.884c-3.275-1.241-5.875-3.441-8.424-5.726c-3.785-3.395-7.279-7.076-10.639-10.889
		c-1.631-1.852-2.368-1.897-4.281-0.411c-2.975,2.312-6.546,3.216-10.108,4.045c-5.378,1.253-10.854,1.904-16.351,2.39
		c-0.9,0.079-1.207-0.12-1.184-1.061c0.059-2.342,0.037-4.687,0.015-7.029c-0.017-1.719-0.861-2.691-2.24-2.661
		c-1.326,0.029-2.285,0.991-2.099,2.604c0.996,8.622-1.89,16.537-4.216,24.584c-1.625,5.624-4.538,10.665-6.774,16.009
		c-0.258,0.619-0.691,0.71-1.275,0.698c-1.317-0.027-2.634-0.009-4.094-0.009c0.446-1.105,1.334-1.741,2.104-2.379
		c2.292-1.897,3.432-4.214,3.879-7.209c1.001-6.702,2.382-13.349,3.585-20.022c0.423-2.344-0.436-3.574-2.765-3.239
		c-3.612,0.519-5.778-0.853-7.381-4.01c-1.204-2.37-1.415-2.252,0.079-4.371c1.245-1.767,2.288-3.649,2.786-5.764
		c0.242-1.028,0.687-1.349,1.77-1.345c11.424,0.047,22.849,0.049,34.272,0.021c5.436-0.014,9.865-3.683,10.719-8.948
		c0.271-1.67,0.158-3.407,0.155-5.114c-0.001-0.752,0.175-1.017,0.999-0.937c4.981,0.482,9.555,1.892,13.261,5.473
		c1.368,1.322,2.821,2.556,4.253,3.812c6.02,5.279,12.82,7.226,20.634,4.793c0.343-0.103,0.692-0.217,0.664,0.362
		C130.384,94.292,124.979,94.982,119.37,94.791z"/>
	<path fill-rule="evenodd" clip-rule="evenodd" d="M107.483,43.113c-4.239-0.054-7.755,3.416-7.771,7.669
		c-0.016,4.184,3.398,7.662,7.578,7.72c4.219,0.059,7.752-3.428,7.777-7.674C115.094,46.667,111.652,43.167,107.483,43.113z
		 M107.322,54.083c-1.779-0.033-3.238-1.528-3.222-3.304c0.017-1.782,1.488-3.239,3.279-3.245c1.774-0.006,3.28,1.464,3.305,3.227
		C110.711,52.573,109.148,54.116,107.322,54.083z"/>
	<path fill-rule="evenodd" clip-rule="evenodd" d="M55.566,18.21c-4.243-0.018-7.726,3.475-7.709,7.732
		c0.017,4.183,3.461,7.636,7.64,7.659c4.218,0.023,7.737-3.505,7.714-7.737C63.189,21.683,59.738,18.228,55.566,18.21z
		 M55.47,29.181c-1.779-0.031-3.237-1.525-3.225-3.302c0.013-1.78,1.489-3.245,3.276-3.25c1.773-0.005,3.282,1.466,3.309,3.228
		C58.857,27.668,57.296,29.213,55.47,29.181z"/>
	<path fill-rule="evenodd" clip-rule="evenodd" fill="#030303" d="M27.264,60.702c1.232,0.007,2.189,1.016,2.146,2.264
		c-0.041,1.195-0.968,2.085-2.167,2.081c-1.25-0.005-2.188-0.986-2.146-2.247C25.137,61.618,26.09,60.696,27.264,60.702z"/>
</g>
</svg>
