<?xml version="1.0" encoding="utf-8"?>
<!-- Generator: Adobe Illustrator 16.0.0, SVG Export Plug-In . SVG Version: 6.00 Build 0)  -->
<!DOCTYPE svg PUBLIC "-//W3C//DTD SVG 1.1//EN" "http://www.w3.org/Graphics/SVG/1.1/DTD/svg11.dtd">
<svg version="1.1" id="Capa_1" xmlns="http://www.w3.org/2000/svg" xmlns:xlink="http://www.w3.org/1999/xlink" x="0px" y="0px"
	 width="150px" height="150px" viewBox="0 0 150 150" enable-background="new 0 0 150 150" xml:space="preserve">
<g>
	<path fill-rule="evenodd" clip-rule="evenodd" fill="#F3F8F7" d="M75.236,17.946c2.5-3.054,5.414-5.361,9.258-6.089
		c6.746-1.275,11.666,1.729,15.443,7.002c2.318,3.236,3.599,6.923,3.981,10.888c0.12,1.24,0.485,1.705,1.878,1.734
		c6.298,0.132,11.577,4.922,13.121,11.853c1.646,7.391-0.139,14.111-4.301,20.28c-0.585,0.866-0.879,1.698-0.934,2.734
		c-0.998,18.851-2.028,37.7-3.051,56.55c-0.232,4.26-0.436,8.521-0.7,12.779c-0.114,1.837-1.065,2.838-2.47,2.784
		c-1.499-0.059-2.347-1.168-2.243-3.122c0.774-14.648,1.566-29.297,2.358-43.945c0.479-8.87,0.99-17.739,1.428-26.611
		c0.064-1.3,0.518-2.305,1.254-3.342c3.992-5.619,5.729-11.732,3.498-18.504c-1.678-5.092-5.572-7.341-10.865-6.523
		c-2.712,0.418-3.584-0.373-3.543-3.202c0.061-4.32-0.959-8.344-3.473-11.893c-4.693-6.627-12.291-6.652-17.051-0.089
		c-0.479,0.658-0.874,1.377-1.302,2.071c-1.243,2.015-3.356,2.044-4.578,0.027c-0.788-1.302-1.596-2.577-2.652-3.687
		c-4.105-4.306-9.936-4.455-14.125-0.221c-3.843,3.884-5.17,8.76-5.085,14.089c0.036,2.225-1.009,3.498-2.973,2.955
		c-5.874-1.622-11.562,2.206-12.287,10.157c-0.499,5.464,1.034,10.411,4.307,14.78c0.893,1.191,1.253,2.384,1.33,3.849
		c0.847,16.226,1.758,32.447,2.645,48.67c0.392,7.178,0.784,14.356,1.144,21.536c0.088,1.76-0.83,2.916-2.227,2.999
		c-1.388,0.083-2.414-0.999-2.587-2.731c-0.006-0.058-0.007-0.116-0.01-0.176c-0.489-9.221-0.975-18.442-1.468-27.663
		c-0.739-13.831-1.487-27.662-2.215-41.494c-0.057-1.083-0.404-1.979-1.005-2.902c-4.791-7.359-6.624-15.205-3.008-23.568
		c2.287-5.292,6.437-8.352,12.39-8.461c1.044-0.019,1.189-0.417,1.294-1.308c0.625-5.294,2.458-10.08,6.254-13.949
		c6.264-6.384,15.259-6.195,21.374,0.412C74.43,17.037,74.808,17.47,75.236,17.946z"/>
	<path fill-rule="evenodd" clip-rule="evenodd" fill="#F3F8F7" d="M75.294,59.465c7.29,0.028,13.897,4.514,16.59,11.335
		c0.345,0.873,0.797,1.396,1.653,1.812c5.934,2.873,8.438,9.795,5.744,15.707c-2.732,5.999-9.593,8.602-15.751,5.937
		c-0.693-0.3-1.247-0.349-1.979-0.084c-4.208,1.526-8.447,1.58-12.653-0.016c-0.729-0.277-1.294-0.189-1.983,0.102
		c-6.234,2.64-12.994,0.08-15.748-5.925c-2.745-5.984-0.246-12.783,5.874-15.774c0.832-0.406,1.193-0.964,1.508-1.744
		C61.356,63.854,67.897,59.436,75.294,59.465z"/>
	<path fill-rule="evenodd" clip-rule="evenodd" fill="#F3F8F7" d="M29.356,28.054c-0.702,0.072-1.389-0.388-1.9-1.042
		c-0.89-1.141-1.704-1.447-2.628-0.055c-0.186,0.28-0.486,0.509-0.778,0.689c-1.077,0.663-2.138,0.583-3.019-0.314
		c-0.822-0.837-0.943-1.861-0.308-2.876c0.273-0.437,0.631-0.859,1.043-1.16c1.008-0.736,0.795-1.347-0.051-2.021
		c-0.36-0.287-0.69-0.643-0.941-1.026c-0.648-0.992-0.607-2.002,0.19-2.888c0.85-0.944,1.889-1.065,3.003-0.469
		c0.202,0.108,0.423,0.245,0.546,0.429c1.063,1.577,2.001,1.573,3.225,0.047c0.922-1.151,2.246-1.17,3.398-0.154
		c1.083,0.955,1.132,2.424-0.13,3.511c-1.387,1.194-1.399,2.026,0.026,3.146c0.805,0.633,1.145,1.599,0.679,2.675
		C31.301,27.494,30.608,28.01,29.356,28.054z"/>
	<path fill-rule="evenodd" clip-rule="evenodd" fill="#F3F8F7" d="M26.072,83.317c0.028,1.353-1.069,2.49-2.38,2.472
		c-1.239-0.019-2.292-1.089-2.319-2.357c-0.028-1.368,1.039-2.47,2.377-2.451C25.03,80.997,26.046,82.019,26.072,83.317z"/>
	<path fill-rule="evenodd" clip-rule="evenodd" fill="#F3F8F7" d="M126.678,88.181c-0.008,1.37-1.08,2.383-2.469,2.331
		c-1.289-0.047-2.289-1.083-2.281-2.362c0.008-1.278,1.021-2.299,2.313-2.33C125.633,85.786,126.688,86.807,126.678,88.181z"/>
	<path fill-rule="evenodd" clip-rule="evenodd" fill="#F3F8F7" d="M112.184,49.51c-0.895-7.527-7.938-11.121-14.486-7.306
		c-4.377,2.551-6.495,6.541-6.803,10.834c-0.043,7.635,5.526,12.123,11.963,10.354C108.492,61.844,112.873,55.322,112.184,49.51z
		 M102.135,58.59c-3.213,1.26-6.107-0.507-6.37-3.943c-0.275-3.586,1.247-6.328,4.208-8.249c1.593-1.032,3.362-1.327,5.134-0.382
		c1.481,0.789,2.292,2.493,2.294,4.605C107.405,54.014,105.167,57.401,102.135,58.59z"/>
	<path fill-rule="evenodd" clip-rule="evenodd" fill="#F3F8F7" d="M52.811,42.247c-3.189-1.82-6.513-2.261-9.829-0.394
		c-3.389,1.909-4.667,5.048-4.792,9.24c0.364,5.053,2.76,9.29,7.831,11.68c6.184,2.915,12.443-0.591,13.375-7.365
		C60.097,50.319,57.397,44.864,52.811,42.247z M52.445,58.438c-1.732,0.988-3.492,0.642-5.142-0.314
		c-2.981-1.728-4.724-5.43-4.166-8.771c0.502-3.006,3.049-4.541,5.948-3.586c3.185,1.05,5.65,4.564,5.657,8.562
		C54.704,55.729,54.188,57.443,52.445,58.438z"/>
	<path fill-rule="evenodd" clip-rule="evenodd" fill="#F3F8F7" d="M69.021,21.65c-3.164-3.87-8.283-3.894-11.503-0.086
		c-3.609,4.268-3.534,11.854,0.158,16.043c3.094,3.51,7.9,3.564,11.038,0.077c2.093-2.326,2.872-5.148,2.9-8.167
		C71.584,26.58,70.872,23.914,69.021,21.65z M65.146,34.458c-1.174,1.313-2.559,1.298-3.787,0.028
		c-2.283-2.36-2.264-7.695,0.035-10.03c1.245-1.266,2.542-1.235,3.774,0.089c1.005,1.08,1.613,2.899,1.624,4.872
		C66.801,31.28,66.421,33.03,65.146,34.458z"/>
	<path fill-rule="evenodd" clip-rule="evenodd" fill="#F3F8F7" d="M92.76,21.397c-2.842-3.298-7.416-3.552-10.559-0.619
		c-4.565,4.26-4.483,13.413,0.158,17.557c2.94,2.624,6.943,2.584,9.793-0.143c2.475-2.367,3.365-5.375,3.384-8.708
		C95.551,26.465,94.755,23.714,92.76,21.397z M89.131,34.422c-1.205,1.362-2.666,1.343-3.895-0.001
		c-2.186-2.391-2.176-7.491,0.02-9.858c1.306-1.408,2.563-1.411,3.862,0.005c1.256,1.367,1.522,3.083,1.69,4.799
		C90.697,31.228,90.393,32.995,89.131,34.422z"/>
	<path fill-rule="evenodd" clip-rule="evenodd" fill="#F3F8F7" d="M132.694,102.561c-4.596-0.004-8.371,3.728-8.406,8.31
		c-0.036,4.63,3.8,8.423,8.485,8.392c4.625-0.032,8.299-3.749,8.282-8.382C141.039,106.268,137.316,102.564,132.694,102.561z
		 M132.775,114.517c-1.98,0.058-3.682-1.636-3.659-3.643c0.021-1.923,1.659-3.554,3.571-3.556c1.938-0.001,3.529,1.59,3.553,3.552
		C136.262,112.831,134.715,114.461,132.775,114.517z"/>
</g>
</svg>
