<?xml version="1.0" encoding="utf-8"?>
<!-- Generator: Adobe Illustrator 16.0.0, SVG Export Plug-In . SVG Version: 6.00 Build 0)  -->
<!DOCTYPE svg PUBLIC "-//W3C//DTD SVG 1.1//EN" "http://www.w3.org/Graphics/SVG/1.1/DTD/svg11.dtd">
<svg version="1.1" id="Capa_1" xmlns="http://www.w3.org/2000/svg" xmlns:xlink="http://www.w3.org/1999/xlink" x="0px" y="0px"
	 width="150px" height="150px" viewBox="0 0 150 150" enable-background="new 0 0 150 150" xml:space="preserve">
<g>
	<path fill-rule="evenodd" clip-rule="evenodd" d="M50.828,37.039c0,1.273,0.006,2.546,0,3.819c-0.012,2.33-0.757,3.092-3.049,3.105
		c-1.665,0.009-3.331,0.047-4.993-0.017c-0.873-0.033-1.208,0.174-1.165,1.124c0.082,1.808,0.043,3.622,0.018,5.434
		c-0.025,1.76-0.861,2.6-2.623,2.614c-2.839,0.022-5.679,0.021-8.519,0c-1.822-0.013-2.638-0.861-2.658-2.733
		c-0.02-1.811-0.04-3.624,0.013-5.434c0.022-0.768-0.201-1.025-0.984-1.002c-1.81,0.052-3.623,0.035-5.434,0.011
		c-1.941-0.026-2.755-0.844-2.768-2.786c-0.019-2.741-0.018-5.483,0-8.225c0.013-2.044,0.781-2.783,2.869-2.797
		c1.567-0.011,3.139-0.085,4.699,0.023c1.238,0.086,1.758-0.174,1.636-1.561c-0.146-1.652-0.06-3.327-0.026-4.991
		c0.033-1.651,0.901-2.532,2.557-2.55c2.888-0.033,5.777-0.032,8.666,0c1.715,0.019,2.552,0.913,2.573,2.68
		c0.021,1.762,0.058,3.527-0.017,5.286c-0.041,0.935,0.274,1.164,1.165,1.131c1.809-0.067,3.622-0.04,5.434-0.013
		c1.773,0.027,2.566,0.83,2.602,2.624C50.85,34.199,50.828,35.619,50.828,37.039z"/>
	<path fill-rule="evenodd" clip-rule="evenodd" fill="#020202" d="M121.124,83.067c1.125,0.001,2.251-0.042,3.373,0.013
		c1.316,0.064,2.243,1.021,2.264,2.23c0.021,1.213-0.858,2.252-2.188,2.299c-2.344,0.083-4.694,0.085-7.038,0.011
		c-1.419-0.045-2.309-1.092-2.25-2.38c0.058-1.229,0.963-2.11,2.319-2.164C118.776,83.029,119.951,83.066,121.124,83.067z"/>
	<path fill-rule="evenodd" clip-rule="evenodd" fill="#020202" d="M137.144,83.064c1.124,0,2.251-0.036,3.373,0.01
		c1.384,0.056,2.257,0.901,2.315,2.152c0.062,1.315-0.801,2.348-2.223,2.396c-2.297,0.079-4.598,0.07-6.895,0.007
		c-1.418-0.04-2.369-1.06-2.354-2.307c0.017-1.245,1.008-2.175,2.408-2.26c0.098-0.006,0.195-0.006,0.293-0.006
		c1.027-0.001,2.054-0.001,3.081-0.001C137.144,83.06,137.144,83.063,137.144,83.064z"/>
	<path fill-rule="evenodd" clip-rule="evenodd" fill="#010101" d="M131.338,93.381c0,1.173,0.043,2.348-0.012,3.518
		c-0.061,1.302-1.041,2.25-2.232,2.265c-1.197,0.014-2.235-0.906-2.271-2.215c-0.066-2.344-0.066-4.691-0.006-7.034
		c0.036-1.36,0.982-2.222,2.229-2.233c1.3-0.013,2.232,0.903,2.29,2.33c0.045,1.121,0.009,2.247,0.009,3.37
		C131.342,93.381,131.34,93.381,131.338,93.381z"/>
	<path fill-rule="evenodd" clip-rule="evenodd" fill="#010101" d="M131.34,77.339c0.002,1.125,0.039,2.251-0.008,3.373
		c-0.058,1.397-1.043,2.362-2.303,2.341c-1.211-0.021-2.18-0.93-2.213-2.271c-0.059-2.345-0.063-4.694,0.008-7.039
		c0.04-1.351,1.014-2.181,2.283-2.162c1.263,0.019,2.158,0.879,2.22,2.238C131.381,74.99,131.338,76.165,131.34,77.339z"/>
	<path fill-rule="evenodd" clip-rule="evenodd" fill="#040404" d="M16.35,11.697c-1.302,0.005-2.351-1.048-2.314-2.328
		c0.035-1.23,1.041-2.199,2.288-2.204c1.295-0.005,2.363,1.063,2.326,2.326C18.614,10.701,17.581,11.691,16.35,11.697z"/>
	<path fill-rule="evenodd" clip-rule="evenodd" fill="#040404" d="M41.639,76.135c0.006,1.3-1.035,2.307-2.353,2.278
		c-1.23-0.027-2.241-1.039-2.249-2.251c-0.009-1.269,1.075-2.312,2.37-2.283C40.65,73.907,41.633,74.9,41.639,76.135z"/>
	<path fill-rule="evenodd" clip-rule="evenodd" d="M134.787,35.282c-2.583-1.048-5.129-2.224-7.783-3.048
		c-3.791-1.177-6.84-3.186-8.928-6.615c-0.556-0.912-1.328-1.694-2.015-2.524c-4.26-5.151-9.741-7.716-16.419-7.733
		c-3.771-0.009-7.543-0.029-11.314,0.019c-0.917,0.012-1.533-0.219-2.102-0.982c-1.346-1.806-2.762-3.561-4.215-5.282
		c-2.219-2.628-5.674-2.573-7.833,0.119c-1.288,1.605-1.742,3.454-1.472,5.511c1.273,9.718,2.098,19.471,2.27,29.277
		c0.02,1.132-0.229,2.058-0.822,3.017c-9.262,14.995-18.494,30.008-27.73,45.018c-5.131,8.338-10.257,16.681-15.394,25.017
		c-0.313,0.509-0.491,1.152-1.387,1.019c-5.455-0.817-10.696-3.834-12.325-10.021c-0.414-1.573-0.533-3.179-0.625-4.795
		c-0.071-1.262-1-2.164-2.176-2.146c-1.209,0.02-2.044,0.618-2.306,1.852c-0.091,0.429-0.134,0.873-0.149,1.312
		c-0.16,4.49,0.303,8.914,1.683,13.196c2.843,8.821,8.503,14.821,17.885,16.183c4.115,0.597,7.415,2.158,10.437,4.752
		c0.482,0.413,1.032,0.747,1.522,1.152c2.842,2.354,6.095,3.325,9.787,3.304c12.05-0.068,24.1-0.025,36.149-0.026
		c0.686,0,1.374,0.027,2.057-0.019c1.5-0.102,2.312-0.957,2.33-2.462c0.023-1.893-0.426-3.694-1.197-5.409
		c-1.336-2.965-3.476-5.174-6.363-6.669c-0.373-0.194-1.119-0.284-0.393-0.968c3.34-3.139,6.103-6.725,8.486-10.738
		c0.247,1.731,0.494,3.463,0.742,5.194c0.895,6.252,1.793,12.504,2.684,18.757c0.188,1.32,0.832,2.267,2.238,2.276
		c5.779,0.039,11.559,0.039,17.338-0.005c1.309-0.011,2.079-0.842,2.158-2.147c0.07-1.171,0.061-2.353-0.004-3.523
		c-0.256-4.557-3.107-8.332-7.463-9.741c-0.916-0.296-1.211-0.684-1.252-1.604c-0.236-5.284-0.489-10.568-0.82-15.847
		c-0.801-12.804-1.004-25.645-2.51-38.403c-0.429-3.64,0.645-6.884,3.124-9.609c1.021-1.122,2.189-2.114,3.169-3.269
		c0.996-1.173,2.117-1.574,3.68-1.574c7.99,0,14.303-4.567,16.947-12.116c0.695-1.985,1.342-3.986,1.995-5.986
		C137.113,37.026,136.682,36.051,134.787,35.282z M71.715,59.697c1.877-2.92,3.684-5.887,5.467-8.866
		c0.443-0.741,0.805-0.853,1.619-0.486c8.334,3.747,16.688,7.453,25.051,11.135c0.818,0.361,1.113,0.597,0.633,1.552
		c-1.712,3.404-1.835,7.044-1.344,10.75c0.17,1.29,0.268,2.59,0.424,4.134c-2.932-1.525-5.65-2.933-8.363-4.353
		c-7.665-4.014-15.316-8.053-23.002-12.025C71.178,61.01,71.123,60.619,71.715,59.697z M109.256,131.472
		c3.216,0.405,5.492,2.658,5.792,5.683c0.077,0.774-0.045,1.163-0.97,1.151c-3.624-0.045-7.249-0.055-10.873,0.005
		c-0.984,0.017-1.106-0.498-1.211-1.236c-1.484-10.519-2.932-21.043-4.503-31.548c-0.562-3.756-0.55-7.647-2.229-11.181
		c-3.042-6.402-8.105-9.873-15.184-10.347c-6.956-0.467-12.703,1.782-16.807,7.618c-1.051,1.494-1.777,3.15-2.289,4.9
		c-0.494,1.69,0.039,2.958,1.394,3.35c1.374,0.396,2.448-0.327,3.01-2.027c2.95-8.93,13.912-12.415,21.514-6.813
		c3.363,2.479,4.893,5.884,5.314,10.03c1.15,11.343-4.486,19.225-12.824,25.792c-0.943,0.743-1.713,1.488-1.399,2.804
		c0.335,1.406,1.399,1.721,2.668,1.813c3.698,0.271,6.294,2.143,7.907,5.473c0.547,1.129,0.281,1.375-0.928,1.371
		c-11.607-0.037-23.215-0.028-34.823-0.018c-2.185,0.003-4.134-0.602-5.872-1.945c-1.86-1.438-3.775-2.802-5.631-4.244
		c-1.995-1.549-4.216-2.358-6.745-2.577c-6.664-0.574-11.796-3.601-14.922-9.675c-0.106-0.207-0.19-0.425-0.285-0.638
		c3.381,1.95,6.95,3.022,10.729,3.561c1.889,0.27,3.093-0.32,4.114-1.989c11.165-18.246,22.402-36.447,33.571-54.691
		c0.67-1.096,1.109-1.18,2.222-0.589C80.89,71.28,91.813,77,102.754,82.685c0.947,0.492,1.346,1.032,1.399,2.098
		c0.592,11.837,1.231,23.671,1.853,35.506c0.145,2.738,0.256,5.479,0.412,8.217C106.54,130.651,107.086,131.198,109.256,131.472z
		 M131.279,40.138c-0.543,1.361-0.883,2.806-1.458,4.152c-2.188,5.125-6.093,8.162-11.663,8.093
		c-3.47-0.043-5.925,0.965-8.125,3.552c-2.045,2.407-2.209,2.283-5.152,0.975c-8.047-3.573-16.082-7.17-24.143-10.713
		c-0.84-0.369-1.176-0.8-1.186-1.726c-0.104-10.05-0.973-20.046-2.229-30.012c-0.025-0.194-0.045-0.389-0.088-0.759
		c0.024-0.168,0.041-0.513,0.13-0.838c0.104-0.375,0.244-0.797,0.651-0.917c0.494-0.146,0.644,0.354,0.871,0.635
		c1.574,1.939,3.174,3.86,4.675,5.854c0.853,1.133,1.874,1.564,3.271,1.546c4.261-0.054,8.522-0.018,12.783-0.02
		c5.338-0.003,9.68,2.086,13.037,6.222c1.513,1.863,3.069,3.696,4.478,5.636c1.083,1.492,2.432,2.436,4.153,3.067
		c3.122,1.144,6.17,2.489,9.282,3.66C131.487,38.893,131.623,39.275,131.279,40.138z"/>
	<path fill-rule="evenodd" clip-rule="evenodd" d="M15.26,62.351c-4.42-0.055-8.057,3.527-8.095,7.974
		c-0.039,4.464,3.5,8.065,7.951,8.093c4.481,0.026,8.06-3.487,8.097-7.949C23.249,66.014,19.715,62.406,15.26,62.351z
		 M15.227,73.842c-1.866,0.023-3.469-1.54-3.494-3.409c-0.024-1.856,1.553-3.466,3.417-3.488c1.861-0.021,3.47,1.548,3.497,3.412
		C18.673,72.21,17.096,73.817,15.227,73.842z"/>
	<path fill-rule="evenodd" clip-rule="evenodd" fill="#020202" d="M105.954,34.846c-0.022-1.617,1.252-2.917,2.843-2.901
		c1.513,0.015,2.797,1.289,2.826,2.804c0.031,1.59-1.265,2.883-2.877,2.869C107.164,37.604,105.976,36.424,105.954,34.846z"/>
</g>
</svg>
