<?xml version="1.0" encoding="utf-8"?>
<!-- Generator: Adobe Illustrator 16.0.0, SVG Export Plug-In . SVG Version: 6.00 Build 0)  -->
<!DOCTYPE svg PUBLIC "-//W3C//DTD SVG 1.1//EN" "http://www.w3.org/Graphics/SVG/1.1/DTD/svg11.dtd">
<svg version="1.1" id="Capa_1" xmlns="http://www.w3.org/2000/svg" xmlns:xlink="http://www.w3.org/1999/xlink" x="0px" y="0px"
	 width="150px" height="150px" viewBox="0 0 150 150" enable-background="new 0 0 150 150" xml:space="preserve">
<path fill="#6E9E96" d="M120.967,26.447C108.691,14.143,92.344,7.375,74.971,7.375c-35.859,0-65.039,29.18-65.039,65.039
	c0,11.455,2.988,22.646,8.672,32.52l-9.229,33.691l34.482-9.053c9.492,5.186,20.186,7.91,31.084,7.91h0.029
	c35.83,0,65.654-29.18,65.654-65.039C140.625,55.07,133.242,38.752,120.967,26.447z M74.971,126.525
	c-9.727,0-19.248-2.607-27.539-7.529l-1.963-1.172l-20.449,5.361l5.449-19.951l-1.289-2.051c-5.42-8.613-8.262-18.545-8.262-28.77
	c0-29.795,24.258-54.053,54.082-54.053c14.443,0,28.008,5.625,38.203,15.85S129.668,58,129.639,72.443
	C129.639,102.268,104.766,126.525,74.971,126.525z M104.619,86.037c-1.611-0.82-9.609-4.746-11.104-5.273
	c-1.494-0.557-2.578-0.82-3.662,0.82s-4.189,5.273-5.156,6.387c-0.938,1.084-1.904,1.23-3.516,0.41
	c-9.551-4.775-15.82-8.525-22.119-19.336c-1.67-2.871,1.67-2.666,4.775-8.877c0.527-1.084,0.264-2.021-0.146-2.842
	s-3.662-8.818-5.01-12.07c-1.318-3.164-2.666-2.725-3.662-2.783c-0.938-0.059-2.021-0.059-3.105-0.059s-2.842,0.41-4.336,2.021
	c-1.494,1.641-5.684,5.566-5.684,13.564s5.83,15.732,6.621,16.816c0.82,1.084,11.455,17.49,27.773,24.551
	c10.313,4.453,14.355,4.834,19.512,4.072c3.135-0.469,9.609-3.926,10.957-7.734s1.348-7.061,0.938-7.734
	C107.314,87.238,106.23,86.828,104.619,86.037z"/>
</svg>
