<?xml version="1.0" encoding="utf-8"?>
<!-- Generator: Adobe Illustrator 16.0.0, SVG Export Plug-In . SVG Version: 6.00 Build 0)  -->
<!DOCTYPE svg PUBLIC "-//W3C//DTD SVG 1.1//EN" "http://www.w3.org/Graphics/SVG/1.1/DTD/svg11.dtd">
<svg version="1.1" id="Capa_1" xmlns="http://www.w3.org/2000/svg" xmlns:xlink="http://www.w3.org/1999/xlink" x="0px" y="0px"
	 width="150px" height="150px" viewBox="0 0 150 150" enable-background="new 0 0 150 150" xml:space="preserve">
<g>
	<path fill-rule="evenodd" clip-rule="evenodd" fill="#6E9E96" d="M135.93,120.093c-0.05,1.096-0.646,1.913-1.869,2.156
		c-0.568,0.113-1.173,0.128-1.754,0.087c-0.75-0.052-1.105,0.176-1.018,0.977c0.047,0.436,0.033,0.884-0.002,1.322
		c-0.113,1.418-1.033,2.336-2.333,2.354c-1.31,0.019-2.241-0.883-2.374-2.302c-0.019-0.194-0.038-0.397-0.006-0.588
		c0.242-1.396-0.269-1.88-1.729-1.786c-1.864,0.12-2.922-0.843-2.921-2.32c0.001-1.496,1.026-2.416,2.919-2.291
		c1.442,0.095,1.848-0.35,1.76-1.77c-0.115-1.849,0.852-2.944,2.301-2.956c1.451-0.012,2.492,1.107,2.354,2.909
		c-0.117,1.537,0.396,1.914,1.856,1.814C134.881,117.581,135.902,118.519,135.93,120.093z"/>
	<path fill-rule="evenodd" clip-rule="evenodd" fill="#6E9E96" d="M128.963,87.133c-1.283,0.02-2.355-1.009-2.375-2.278
		c-0.021-1.271,1.023-2.341,2.305-2.361c1.27-0.02,2.365,1.032,2.387,2.291C131.301,86.033,130.236,87.113,128.963,87.133z"/>
	<path fill-rule="evenodd" clip-rule="evenodd" fill="#6E9E96" d="M76.803,69.909c0.115-1.317,0.672-1.518,1.855-1.515
		c17.085,0.039,34.17,0.028,51.254,0.023c0.784,0,1.574-0.01,2.352-0.097c4.76-0.532,8.323-4.331,8.34-9.116
		c0.049-14.188,0.053-28.376-0.002-42.563c-0.021-5.176-4.065-9.096-9.22-9.099c-27.443-0.012-54.886-0.005-82.33-0.007
		c-1.037,0-2.047,0.111-3.034,0.471c-3.827,1.393-6.173,4.767-6.187,9.109c-0.029,9.181-0.054,18.361,0.005,27.541
		c0.035,5.396-0.287,10.798,0.211,16.186c0.061,0.654-0.273,0.736-0.754,0.79c-0.975,0.107-1.968,0.14-2.915,0.368
		c-1.115,0.269-1.621,0.023-1.919-1.173c-0.762-3.051-2.223-5.738-4.549-7.932c-1.739-1.641-2.945-3.666-3.829-5.875
		c-0.428-1.07-1.018-1.948-2.264-2.027c-1.318-0.083-2.014,0.764-2.566,1.841c-2.644,5.148-5.315,10.283-7.972,15.425
		c-0.803,1.556-1.158,3.213-1.173,4.965c-0.027,2.95,0.723,5.739,1.784,8.443c0.365,0.931,0.277,1.606-0.211,2.453
		c-2.724,4.72-4.26,9.815-4.28,15.274c-0.057,15.612-0.036,31.051-0.041,46.662C9.357,142.604,9.932,143,12.473,143
		c20.422,0,40.845,0,61.268,0c20.374,0,40.748,0,61.121,0c0.393,0,0.787,0.19,1.178,0.169c1.345-0.073,2.154-0.737,2.213-1.987
		c0.062-1.324-0.599-2.107-1.865-2.396c-0.517-0.118-1.072-0.065-1.609-0.065c-17.771-0.004-35.544-0.009-53.315,0.039
		c-1.367,0.004-1.81-0.241-1.803-1.725c0.065-13.893,0.022-27.783,0.046-41.677c0.01-6.215-1.313-12.07-4.487-17.45
		c-0.403-0.683-0.366-1.234-0.079-1.918C75.96,74.038,76.619,72.016,76.803,69.909z M73.657,138.745
		c-9.72-0.01-19.439-0.007-29.159-0.007c-9.67,0-19.341-0.018-29.012,0.024c-1.112,0.004-1.498-0.223-1.489-1.432
		c0.06-7.903,0.013-15.807,0.037-23.71c0.023-7.621,3.858-12.555,11.233-14.533c2.529-0.679,2.799-1.045,2.82-3.667
		c0.013-1.52-0.06-3.055,0.13-4.555c0.448-3.539,3.523-6.109,7.038-6.029c3.538,0.081,6.468,2.767,6.854,6.285
		c0.038,0.342,0.023,0.69,0.087,1.026c0.244,1.275,1.019,2.001,2.324,2.04c1.209,0.036,2.231-0.906,2.3-2.214
		c0.098-1.889,0.655-3.556,1.974-4.937c1.987-2.081,4.938-2.782,7.566-1.726c2.824,1.135,4.348,3.278,4.544,6.301
		c0.095,1.467,0.013,2.944,0.026,4.417c0.015,1.789,0.515,2.446,2.267,2.893c3.514,0.895,6.595,2.501,8.92,5.36
		c1.899,2.337,2.819,5.061,2.837,8.036c0.051,8.442,0.005,16.887,0.064,25.329C75.029,138.818,74.438,138.746,73.657,138.745z
		 M74.996,96.77c-0.041,1.103-0.006,2.208-0.006,3.597c-2.666-2.585-5.419-4.406-8.657-5.415c-0.681-0.213-0.722-0.681-0.705-1.257
		c0.045-1.573,0.049-3.155-0.382-4.679c-1.215-4.299-3.927-7.242-8.257-8.403c-4.427-1.188-8.388-0.11-11.567,3.239
		c-0.817,0.86-1.101,0.76-1.842-0.037c-3.248-3.489-8.307-4.661-12.705-2.843c-4.584,1.895-7.265,5.406-7.355,10.397
		c-0.043,2.407-0.516,3.77-3.022,4.504c-2.393,0.702-4.346,2.406-6.114,4.175c-0.142-0.089-0.282-0.133-0.285-0.185
		c-0.459-7.438,0.245-14.628,4.603-21.003c0.752-1.101,0.758-2.129,0.215-3.314c-0.549-1.199-0.981-2.457-1.382-3.715
		c-1.008-3.161-1.047-6.186,0.76-9.199c1.712-2.854,3.093-5.907,4.637-8.863c0.195-0.373,0.261-0.866,0.819-1.06
		c1.073,1.693,2.521,3.085,3.843,4.59c1.875,2.137,2.521,4.84,3.032,7.557c0.439,2.334,1.46,3.034,3.699,2.397
		c1.658-0.472,3.379-0.632,5.036-1.047c2.768-0.695,4.895,0.772,7.165,1.815c0.509,0.234,0.313,0.78,0.316,1.197
		c0.017,1.914,0.031,3.829-0.001,5.743c-0.02,1.191,0.355,2.132,1.489,2.624c1.175,0.51,2.07-0.023,2.888-0.847
		c2.456-2.473,4.955-4.905,7.377-7.41c0.681-0.705,1.384-0.938,2.328-0.924c3.289,0.044,6.582,0.107,9.866-0.023
		c1.545-0.061,1.545,0.545,1.287,1.709c-0.44,1.975-1.093,3.869-1.931,5.701c-0.462,1.009-0.542,1.978,0.095,2.932
		C73.896,84.192,75.238,90.269,74.996,96.77z M59.824,63.705c-1.614-0.003-2.805,0.434-3.867,1.633
		c-1.284,1.45-2.705,2.779-4.066,4.16c-0.113-0.069-0.225-0.139-0.337-0.208c0-0.978,0.025-1.956-0.006-2.932
		c-0.051-1.643-0.761-2.41-2.371-2.623c-3.141-0.416-4.67-2.131-4.673-5.336c-0.011-13.646-0.011-27.293,0-40.939
		c0.002-3.452,1.82-5.306,5.252-5.308c26.998-0.012,53.997-0.013,80.995,0c3.376,0.001,5.19,1.815,5.196,5.199
		c0.02,13.695,0.018,27.391,0,41.086c-0.004,3.486-1.891,5.296-5.436,5.296C106.949,63.739,83.387,63.752,59.824,63.705z"/>
	<path fill-rule="evenodd" clip-rule="evenodd" fill="#6E9E96" d="M109.031,94.221c-4.497-0.022-8.195,3.599-8.244,8.073
		c-0.049,4.56,3.609,8.28,8.166,8.304c4.491,0.022,8.198-3.604,8.256-8.078C117.269,97.978,113.589,94.244,109.031,94.221z
		 M108.996,105.918c-1.939,0.002-3.529-1.626-3.495-3.582c0.032-1.886,1.608-3.44,3.49-3.442c1.937-0.003,3.534,1.635,3.5,3.585
		C112.457,104.361,110.878,105.916,108.996,105.918z"/>
	<path fill-rule="evenodd" clip-rule="evenodd" fill="#6E9E96" d="M70.289,49.65c0.001-2.208-0.023-4.417,0.008-6.625
		c0.026-1.861,0.867-2.726,2.696-2.746c2.896-0.032,5.792-0.028,8.687,0c1.67,0.017,2.641,0.899,2.652,2.309
		c0.012,1.471-0.979,2.337-2.747,2.356c-1.864,0.02-3.733,0.071-5.594-0.02c-1.112-0.054-0.966,0.591-1.014,1.288
		c-0.056,0.801,0.159,1.155,1.042,1.101c1.173-0.073,2.356-0.051,3.532-0.007c1.518,0.057,2.461,1.005,2.442,2.375
		c-0.018,1.304-0.921,2.23-2.37,2.305c-1.225,0.063-2.457,0.076-3.679,0c-0.999-0.062-0.954,0.514-0.965,1.198
		c-0.012,0.726,0.049,1.204,1.004,1.17c1.912-0.068,3.828-0.045,5.741-0.009c1.65,0.03,2.614,0.935,2.608,2.353
		c-0.007,1.421-0.971,2.296-2.644,2.311c-2.896,0.024-5.792,0.025-8.687,0c-1.83-0.016-2.679-0.874-2.705-2.733
		C70.265,54.067,70.289,51.858,70.289,49.65z"/>
	<path fill-rule="evenodd" clip-rule="evenodd" fill="#6E9E96" d="M63.288,48.338c-1.618,1.634-3.084,1.692-4.718,0
		c0,2.92,0.024,5.497-0.009,8.072c-0.022,1.715-1.179,2.822-2.666,2.561c-1.28-0.224-1.983-1.054-1.988-2.356
		c-0.021-4.658-0.015-9.317-0.003-13.976c0.002-1.034,0.527-1.794,1.471-2.177c0.953-0.386,1.838-0.147,2.573,0.563
		c0.776,0.75,1.567,1.489,2.282,2.294c0.536,0.602,0.906,0.532,1.41-0.027c0.688-0.764,1.451-1.459,2.176-2.191
		c0.767-0.774,1.679-1.037,2.687-0.626c0.95,0.387,1.446,1.186,1.45,2.201c0.018,4.659,0.039,9.317-0.015,13.976
		c-0.017,1.488-1.111,2.42-2.466,2.345c-1.289-0.071-2.137-1.007-2.173-2.475c-0.033-1.323-0.009-2.648-0.009-3.972
		C63.287,51.273,63.288,49.999,63.288,48.338z"/>
	<path fill-rule="evenodd" clip-rule="evenodd" fill="#6E9E96" d="M124.222,16.794c1.47,0,2.939-0.03,4.407,0.009
		c1.588,0.042,2.645,1.018,2.645,2.362c0,1.337-1.074,2.28-2.657,2.333c-2.048,0.068-2.047,0.068-2.047,2.145
		c0.001,3.037,0.012,6.073-0.007,9.11c-0.01,1.757-0.889,2.796-2.308,2.806c-1.431,0.009-2.335-1.02-2.347-2.764
		c-0.021-3.379-0.037-6.759,0.012-10.138c0.014-0.893-0.23-1.276-1.146-1.164c-0.385,0.047-0.783,0.024-1.174,0
		c-1.422-0.092-2.347-0.998-2.361-2.293c-0.015-1.301,0.873-2.305,2.282-2.377c1.563-0.08,3.134-0.018,4.701-0.018
		C124.222,16.8,124.222,16.797,124.222,16.794z"/>
	<path fill-rule="evenodd" clip-rule="evenodd" fill="#6E9E96" d="M91.413,46.067c0.001-1.08-0.022-2.16,0.007-3.238
		c0.043-1.518,0.959-2.518,2.281-2.544c1.332-0.027,2.346,0.961,2.375,2.449c0.045,2.256,0.043,4.515-0.001,6.771
		c-0.028,1.493-1.033,2.498-2.351,2.486c-1.301-0.013-2.238-1.042-2.311-2.538c-0.004-0.098-0.002-0.196-0.002-0.294
		C91.412,48.128,91.412,47.098,91.413,46.067z"/>
	<path fill-rule="evenodd" clip-rule="evenodd" fill="#6E9E96" d="M96.078,56.724c-0.022,1.286-1.082,2.307-2.371,2.283
		c-1.291-0.023-2.307-1.077-2.283-2.369c0.024-1.29,1.081-2.309,2.369-2.284C95.078,54.379,96.1,55.44,96.078,56.724z"/>
	<path fill-rule="evenodd" clip-rule="evenodd" fill="#6E9E96" d="M37.462,91.807c0.028,1.275-1.014,2.357-2.294,2.382
		c-1.265,0.023-2.368-1.03-2.395-2.29c-0.027-1.238,1.056-2.361,2.304-2.389C36.333,89.482,37.434,90.543,37.462,91.807z"/>
	<path fill-rule="evenodd" clip-rule="evenodd" fill="#6E9E96" d="M56.213,91.892c-0.024,1.274-1.108,2.325-2.372,2.298
		c-1.274-0.027-2.292-1.094-2.272-2.383c0.019-1.275,1.091-2.32,2.357-2.298C55.189,89.532,56.237,90.623,56.213,91.892z"/>
	<path fill-rule="evenodd" clip-rule="evenodd" fill="#6E9E96" d="M19.733,66.993c0.038-1.733,0.427-3.22,1.567-4.43
		c0.948-1.006,2.16-1.182,3.161-0.478c1.071,0.753,1.383,2.064,0.56,3.23c-0.796,1.126-0.575,2.213-0.246,3.354
		c0.149,0.516,0.369,1.01,0.533,1.522c0.404,1.261-0.082,2.428-1.211,2.948c-1.111,0.512-2.377,0.121-3.013-1.05
		C20.206,70.474,19.826,68.708,19.733,66.993z"/>
	<path fill-rule="evenodd" clip-rule="evenodd" fill="#6E9E96" d="M84.338,22.368c-0.047-3.22-2.23-5.456-5.449-5.56
		c-1.912-0.062-3.829-0.035-5.743-0.008c-2.018,0.028-2.832,0.86-2.853,2.91c-0.023,2.159-0.005,4.319-0.005,6.479
		c0,2.16-0.017,4.32,0.005,6.479c0.021,2.048,0.844,2.881,2.843,2.897c1.865,0.016,3.731,0.02,5.596-0.002
		c3.284-0.038,5.556-2.266,5.605-5.538C84.376,27.473,84.373,24.92,84.338,22.368z M79.717,29.305
		c0.03,1.104-0.293,1.579-1.49,1.578C74.995,30.882,75,30.93,75,27.694c0-0.54,0-1.079,0-1.618c0-1.177-0.013-2.354-0.001-3.53
		c0.003-0.285-0.01-0.775,0.114-0.821c1.269-0.465,2.603-0.283,3.89-0.146c0.932,0.099,0.686,1.044,0.692,1.695
		C79.715,25.285,79.661,27.296,79.717,29.305z"/>
	<path fill-rule="evenodd" clip-rule="evenodd" fill="#6E9E96" d="M100.775,26.193c0-1.274,0.018-2.548-0.003-3.821
		c-0.048-3.051-2.134-5.331-5.149-5.548c-1.268-0.091-2.553-0.092-3.818,0.008c-2.873,0.227-5.016,2.453-5.089,5.318
		c-0.068,2.692-0.069,5.39-0.001,8.082c0.076,2.986,2.4,5.245,5.379,5.328c1.126,0.031,2.254,0.037,3.38-0.001
		c2.963-0.1,5.229-2.412,5.296-5.397C100.799,28.839,100.774,27.516,100.775,26.193z M96.092,24.774c0.008,0.49,0.002,0.979,0,1.469
		c0,1.175,0.004,2.351-0.002,3.526c-0.003,0.454-0.046,0.998-0.596,1.028c-1.168,0.066-2.348,0.065-3.516-0.013
		c-0.551-0.037-0.564-0.599-0.565-1.047c-0.005-2.35,0.01-4.701-0.009-7.051c-0.008-0.887,0.402-1.205,1.26-1.196
		C96.695,21.534,96.039,21.083,96.092,24.774z"/>
	<path fill-rule="evenodd" clip-rule="evenodd" fill="#6E9E96" d="M67.835,32.493c-0.596-3.824-1.236-7.641-1.865-11.46
		c-0.691-4.191-0.754-4.24-5.07-4.24c-0.539,0-1.078-0.004-1.618,0.001c-2.101,0.022-2.797,0.614-3.151,2.69
		c-0.198,1.159-0.382,2.32-0.572,3.48c-0.541,3.287-1.122,6.568-1.605,9.864c-0.208,1.412,0.63,2.482,1.893,2.704
		c1.242,0.219,2.354-0.568,2.683-1.936c0.148-0.619,0.241-1.251,0.337-1.881c0.061-0.397,0.082-0.84,0.613-0.84
		c1.073,0.001,2.234-0.191,3.188,0.161c0.646,0.238,0.397,1.42,0.57,2.171c0.376,1.635,1.315,2.511,2.656,2.338
		C67.322,35.363,68.102,34.203,67.835,32.493z M60.84,26.246c-0.554,0.025-1.125,0.06-0.969-0.802
		c0.201-1.097,0.383-2.198,0.57-3.298c0.05-0.294,0.116-0.615,0.474-0.625c0.374-0.009,0.427,0.324,0.478,0.615
		c0.189,1.099,0.377,2.198,0.565,3.297C62.125,26.453,61.379,26.222,60.84,26.246z"/>
	<path fill-rule="evenodd" clip-rule="evenodd" fill="#6E9E96" d="M117.219,21.913c0.025-3.083-2.105-5.257-5.078-5.125
		c-0.979,0.043-1.963,0.007-2.944,0.008c-1.178,0.001-2.357-0.04-3.532,0.011c-1.658,0.072-2.51,0.95-2.518,2.625
		c-0.022,4.515-0.021,9.03,0,13.545c0.006,1.522,0.922,2.528,2.24,2.58c1.393,0.055,2.371-0.944,2.43-2.555
		c0.042-1.176,0.039-2.356,0-3.533c-0.023-0.703,0.242-0.962,0.939-0.947c1.324,0.029,2.652,0.052,3.975-0.015
		c2.61-0.132,4.354-1.919,4.479-4.534C117.243,23.288,117.214,22.6,117.219,21.913z M112.572,23.609
		c-0.031,0.301-0.473,0.259-0.762,0.261c-0.535,0.005-1.071,0.001-1.607,0.001c-0.389,0-0.784-0.042-1.167,0.008
		c-0.958,0.127-1.245-0.249-1.256-1.214c-0.011-0.967,0.276-1.319,1.235-1.255c0.773,0.052,1.557-0.041,2.335-0.03
		c0.405,0.006,0.991-0.219,1.128,0.351C112.624,22.333,112.637,22.99,112.572,23.609z"/>
	<path fill-rule="evenodd" clip-rule="evenodd" fill="#6E9E96" d="M61.454,101.455c-1.386-0.316-2.474,0.429-2.883,2.025
		c-0.354,1.377-0.589,2.787-1.004,4.144c-0.682,2.223-2.254,3.155-4.5,2.766c-1.74-0.302-3.471-0.647-5.21-0.954
		c-0.563-0.099-1.167-0.194-0.992-0.942c0.213-0.913-0.703-2.231,0.628-2.697c1.187-0.414,1.988-1.223,2.876-1.974
		c0.883-0.747,1.371-1.671,1.033-2.86c-0.337-1.186-1.25-1.69-2.374-1.928c-1.508-0.318-3.036-0.067-4.551-0.174
		c-1.66,0.111-3.349-0.216-4.979,0.294c-1.921,0.602-2.625,2.58-1.416,4.072c0.677,0.835,1.434,1.836,2.433,2.076
		c2.03,0.488,1.607,1.927,1.653,3.276c0.021,0.607-0.187,0.868-0.798,0.969c-1.597,0.262-3.18,0.603-4.774,0.883
		c-2.525,0.446-4.04-0.45-4.848-2.896c-0.508-1.536-0.91-3.107-1.436-4.637c-0.435-1.266-1.621-1.894-2.779-1.59
		c-1.254,0.329-2.002,1.476-1.659,2.85c0.523,2.09,1.049,4.194,1.94,6.164c0.904,1.999,2.348,3.882,4.457,4.2
		c3.135,0.474,3.042,2.366,2.856,4.597c-0.021,0.244-0.003,0.49,0,0.736c0.057,5.284,4.108,9.457,9.237,9.517
		c5.184,0.06,9.31-3.936,9.511-9.234c0.046-1.226,0.073-2.458-0.002-3.681c-0.057-0.926,0.237-1.232,1.182-1.374
		c3.807-0.569,6.106-2.902,7.15-6.524c0.38-1.318,0.637-2.673,0.925-4.016C63.472,102.954,62.815,101.766,61.454,101.455z
		 M49.239,115.736c-0.151,1.405,0.006,2.842-0.049,4.261c-0.105,2.717-2.092,4.657-4.697,4.651c-2.539-0.005-4.51-1.891-4.646-4.54
		c-0.078-1.517,0.033-3.042-0.047-4.558c-0.074-1.385,1.024-1.141,1.718-1.241c1.074-0.158,0.597,0.783,0.618,1.239
		c0.064,1.37-0.001,2.745,0.031,4.117c0.038,1.625,0.964,2.654,2.33,2.658c1.368,0.003,2.304-1.038,2.344-2.635
		c0.018-0.734,0.003-1.471,0.003-2.205c0-0.638-0.089-1.292,0.029-1.907c0.094-0.495-0.572-1.439,0.562-1.429
		C48.392,114.156,49.404,114.201,49.239,115.736z"/>
</g>
</svg>
