<?xml version="1.0" encoding="utf-8"?>
<!-- Generator: Adobe Illustrator 16.0.0, SVG Export Plug-In . SVG Version: 6.00 Build 0)  -->
<!DOCTYPE svg PUBLIC "-//W3C//DTD SVG 1.1//EN" "http://www.w3.org/Graphics/SVG/1.1/DTD/svg11.dtd">
<svg version="1.1" id="Capa_1" xmlns="http://www.w3.org/2000/svg" xmlns:xlink="http://www.w3.org/1999/xlink" x="0px" y="0px"
	 width="150px" height="150px" viewBox="0 0 150 150" enable-background="new 0 0 150 150" xml:space="preserve">
<g>
	<path fill-rule="evenodd" clip-rule="evenodd" fill="#010101" d="M146.744,33.24c-1.253,1.576-2.982,1.527-4.76,1.471
		c-2.099-0.066-4.201-0.001-6.303-0.022c-1.569-0.016-2.529-0.847-2.563-2.162c-0.036-1.374,0.938-2.274,2.587-2.295
		c2.381-0.03,4.767,0.08,7.142-0.04c1.729-0.086,3.074,0.312,3.897,1.924C146.744,32.49,146.744,32.865,146.744,33.24z"/>
	<path fill-rule="evenodd" clip-rule="evenodd" d="M35.105,60.765c0.647,0.002,1.176,0.272,1.625,0.72
		c0.531,0.529,1.11,1.019,1.576,1.6c0.609,0.76,1.095,0.82,1.734,0.027c0.496-0.616,1.091-1.161,1.688-1.686
		c1.02-0.897,2.277-0.868,3.146,0.023c0.835,0.857,0.864,2.054,0.057,3.052c-0.757,0.937-2.344,1.612-2.279,2.651
		c0.056,0.893,1.482,1.676,2.248,2.556c0.836,0.962,0.794,2.197-0.027,3.047c-0.866,0.896-2.135,0.939-3.146,0.043
		c-0.7-0.62-1.357-1.292-1.988-1.983c-0.41-0.449-0.707-0.475-1.129-0.014c-0.631,0.69-1.292,1.36-1.992,1.98
		c-1.013,0.896-2.273,0.858-3.147-0.033c-0.863-0.88-0.839-2.125,0.042-3.155c0.75-0.876,2.257-1.535,2.186-2.541
		c-0.061-0.863-1.394-1.634-2.162-2.45c-0.715-0.759-0.915-1.637-0.461-2.581C33.471,61.199,34.17,60.764,35.105,60.765z"/>
	<path fill-rule="evenodd" clip-rule="evenodd" fill="#010101" d="M133.173,27.98c-0.99-0.021-1.698-0.457-2.079-1.278
		c-0.377-0.813-0.348-1.709,0.295-2.367c2.317-2.374,4.643-4.744,7.057-7.016c0.883-0.831,2.032-0.722,2.911,0.155
		c0.873,0.871,1.032,2.003,0.176,2.903c-2.315,2.438-4.73,4.78-7.121,7.146C134.069,27.862,133.591,27.952,133.173,27.98z"/>
	<path fill-rule="evenodd" clip-rule="evenodd" fill="#010101" d="M124.13,16.84c0.001-1.45-0.035-2.9,0.011-4.349
		c0.047-1.503,0.875-2.314,2.245-2.31c1.371,0.004,2.219,0.816,2.241,2.318c0.043,2.852,0.039,5.705,0.002,8.557
		c-0.02,1.494-1.013,2.477-2.322,2.437c-1.253-0.039-2.13-0.99-2.168-2.446C124.102,19.646,124.129,18.242,124.13,16.84z"/>
	<path fill-rule="evenodd" clip-rule="evenodd" fill="#020202" d="M60.368,45.874c-1.88,0.01-3.389-1.507-3.363-3.381
		c0.024-1.818,1.499-3.277,3.321-3.289c1.853-0.012,3.415,1.552,3.382,3.386C63.676,44.382,62.168,45.865,60.368,45.874z"/>
	<path fill-rule="evenodd" clip-rule="evenodd" d="M127.624,38.902c-0.739-4.14-1.809-8.145-4.819-11.328
		c-2.296-2.427-5.366-2.616-7.876-0.413c-2.922,2.565-5.876,5.099-8.689,7.781c-1.178,1.123-2.438,1.635-3.986,1.686
		c-6.103,0.198-11.184,2.759-15.65,6.75c-1.817,1.623-3.641,3.24-5.461,4.858c-0.805,0.716-1.584,1.464-2.422,2.139
		c-6.337,5.11-6.268,13.218-2.511,18.83c0.454,0.677,0.611,1.252,0.38,2.066c-0.5,1.753-0.895,3.539-1.266,5.326
		c-0.134,0.644-0.449,1.087-0.912,1.516c-7.29,6.747-14.735,13.317-22.338,19.713c-8.23,6.925-12.467,15.646-11.431,26.585
		c0.065,0.683-0.109,0.992-0.754,1.241c-3.041,1.176-6.18,1.884-9.429,2.071c-5.778,0.334-11.153-1.027-16.104-4.01
		c-2.418-1.456-4.918-1.771-7.513-0.638c-2.084,0.913-3.425,2.521-3.575,4.826c-0.144,2.208,0.981,3.871,2.819,5.007
		c5.804,3.589,12.109,5.668,18.931,6.048c5.931,0.332,11.797-0.127,17.534-1.77c0.518-0.147,0.793-0.268,0.991,0.44
		c0.567,2.021,0.854,2.19,2.948,2.19c10.542,0.002,21.086,0.002,31.628,0.002c10.309,0,20.618,0,30.925-0.002
		c0.563,0,1.127,0.013,1.687-0.032c3.485-0.277,6.388-2.951,6.685-6.14c0.281-3.005-2.119-5.96-5.567-6.808
		c-0.678-0.167-1.388-0.304-2.078-0.279c-0.944,0.032-1.049-0.341-0.952-1.175c0.431-3.771,0.877-7.541,1.156-11.322
		c0.295-3.963,1.207-7.685,2.911-11.317c2.96-6.311,5.615-12.763,8.405-19.154c0.339-0.778,0.618-1.543,0.571-2.428
		c-0.319-6.176-0.505-12.361-0.963-18.526c-0.184-2.471,0.074-4.562,1.91-6.364c0.826-0.812,1.392-1.883,2.151-2.772
		c2.185-2.559,2.914-5.598,3.03-8.856C128.061,42.717,127.963,40.798,127.624,38.902z M93.727,135.404
		c-15.041,0.022-30.082,0.009-45.123,0.029c-0.709,0.002-1.004-0.247-1.13-0.911c-0.148-0.777-0.322-1.569-0.942-2.15
		c-0.833-0.781-1.738-0.682-2.742-0.337c-8.354,2.866-16.842,3.414-25.451,1.317c-3.435-0.836-6.629-2.281-9.651-4.109
		c-0.44-0.266-0.976-0.538-0.882-1.144c0.096-0.612,0.635-0.873,1.19-1.068c1.187-0.418,2.186,0.019,3.184,0.609
		c5.673,3.367,11.802,4.921,18.398,4.558c4.539-0.251,8.871-1.357,13.002-3.245c1.567-0.718,1.967-1.429,1.707-3.106
		c-1.553-9.99,1.981-17.999,9.503-24.458c1.528-1.311,3.083-2.593,4.629-3.885c0.305-0.253,0.592-0.684,1.037-0.163
		c1.801,2.107,4.175,3.351,6.749,4.368c-3.139,0.527-6.051,1.433-8.645,3.212c-1.01,0.691-1.944,1.464-2.789,2.349
		c-1.208,1.262-1.324,2.609-0.31,3.569c0.976,0.925,2.282,0.809,3.457-0.39c2.324-2.371,5.11-3.81,8.422-4.034
		c5.167-0.353,9.283,1.688,12.067,6.01c2.839,4.406,2.938,9.072,0.58,13.767c-0.252,0.501-0.591,0.958-0.841,1.459
		c-0.566,1.13-0.253,2.318,0.752,2.958c0.977,0.624,2.366,0.461,2.957-0.634c0.641-1.188,1.515-1.262,2.645-1.237
		c2.716,0.057,5.436,0.002,8.151,0.024c2.173,0.015,3.581,1.319,3.598,3.279C97.265,134,95.875,135.402,93.727,135.404z
		 M123.492,45.525c-0.132,1.873-0.7,3.556-1.923,5.024c-0.899,1.079-1.741,2.21-2.531,3.371c-0.57,0.84-1.21,1.337-2.292,1.276
		c-1.054-0.059-1.938,0.369-2.375,1.41c-0.442,1.055-0.082,1.987,0.715,2.66c1.156,0.978,1.374,2.206,1.432,3.619
		c0.244,5.899,0.553,11.795,0.862,17.692c0.034,0.646-0.182,1.184-0.425,1.744c-3.35,7.681-6.654,15.382-10.064,23.034
		c-0.854,1.92-0.843,3.926-1.074,5.905c-0.632,5.446-1.175,10.9-1.73,16.354c-0.266,2.606,0.488,3.406,3.12,3.414
		c0.844,0.002,1.688,0.008,2.531,0.006c0.669-0.002,1.305,0.143,1.888,0.467c0.677,0.375,1.288,0.862,1.298,1.704
		c0.01,0.844-0.604,1.329-1.27,1.721c-0.623,0.367-1.317,0.479-2.027,0.481c-2.53,0.012-5.062-0.003-7.591,0.022
		c-0.732,0.008-0.948-0.08-0.71-0.94c1.537-5.548-2.048-10.206-7.825-10.247c-2.203-0.018-4.408-0.077-6.606,0.023
		c-1.211,0.057-1.342-0.327-1.151-1.413c1.325-7.546-2.077-14.842-8.624-18.655c-1.786-1.041-3.729-1.667-5.725-2.321
		c0.682-0.12,1.37-0.212,2.046-0.359c9.436-2.085,13.646-13.736,7.528-21.219c-1.303-1.594-1.589-2.881-0.719-4.625
		c0.557-0.048,0.804,0.502,1.18,0.796c5.765,4.496,14.915,3.862,19.781-1.397c1.791-1.935,2.761-4.217,2.783-6.863
		c0.024-2.812,0.022-5.624,0.003-8.436c-0.009-1.659-0.881-2.665-2.242-2.665c-1.358,0-2.23,1.013-2.24,2.663
		c-0.016,2.671-0.051,5.343,0.008,8.013c0.052,2.272-0.932,3.965-2.69,5.272c-3.563,2.648-9.285,2.566-12.758-0.191
		c-0.508-0.403-1.075-0.852-1.348-1.411c-1.084-2.231-2.65-4.187-3.695-6.421c-1.902-4.067-0.967-8.101,2.385-11.06
		c2.389-2.109,4.853-4.142,7.131-6.363c4.359-4.25,9.489-6.593,15.593-6.709c1.58-0.03,2.833-0.589,4.01-1.686
		c3.049-2.842,6.233-5.541,9.309-8.356c0.939-0.86,1.596-0.905,2.415,0.116c0.742,0.925,1.39,1.889,1.817,2.985
		C123.14,37.681,123.771,41.533,123.492,45.525z"/>
	<path fill-rule="evenodd" clip-rule="evenodd" d="M131.984,83.948c-4.327,0-7.844,3.526-7.842,7.862
		c0.002,4.264,3.486,7.768,7.75,7.793c4.366,0.026,7.878-3.431,7.897-7.772C139.809,87.489,136.301,83.948,131.984,83.948z
		 M132.031,95.119c-1.901,0.028-3.383-1.441-3.375-3.348c0.01-1.884,1.539-3.386,3.401-3.339c1.813,0.047,3.24,1.529,3.233,3.365
		C135.286,93.649,133.87,95.092,132.031,95.119z"/>
	<path fill-rule="evenodd" clip-rule="evenodd" d="M103.977,77.274c3.739-0.008,6.709,2.939,6.715,6.664
		c0.005,3.701-2.994,6.718-6.687,6.721c-3.696,0.004-6.721-3.005-6.726-6.692C97.272,80.263,100.255,77.282,103.977,77.274z"/>
	<path fill-rule="evenodd" clip-rule="evenodd" fill="#010101" d="M93.979,110.79c-1.883,0.03-3.398-1.464-3.393-3.346
		c0.005-1.83,1.45-3.296,3.274-3.32c1.843-0.024,3.33,1.382,3.386,3.202C97.308,109.229,95.863,110.761,93.979,110.79z"/>
	<path fill-rule="evenodd" clip-rule="evenodd" fill="#060606" d="M110.695,45.903c-0.004,1.226-1.002,2.223-2.226,2.222
		c-1.229,0-2.217-0.992-2.22-2.224c-0.002-1.22,1.007-2.234,2.223-2.235C109.683,43.667,110.696,44.688,110.695,45.903z"/>
	<path fill-rule="evenodd" clip-rule="evenodd" d="M72.621,126.448c0.015,3.742-2.91,6.698-6.649,6.725
		c-3.712,0.024-6.724-2.951-6.737-6.657c-0.014-3.72,2.945-6.702,6.67-6.725C69.638,119.771,72.605,122.712,72.621,126.448z"/>
</g>
</svg>
