<?xml version="1.0" encoding="utf-8"?>
<!-- Generator: Adobe Illustrator 16.0.0, SVG Export Plug-In . SVG Version: 6.00 Build 0)  -->
<!DOCTYPE svg PUBLIC "-//W3C//DTD SVG 1.1//EN" "http://www.w3.org/Graphics/SVG/1.1/DTD/svg11.dtd">
<svg version="1.1" id="Capa_1" xmlns="http://www.w3.org/2000/svg" xmlns:xlink="http://www.w3.org/1999/xlink" x="0px" y="0px"
	 width="150px" height="150px" viewBox="0 0 150 150" enable-background="new 0 0 150 150" xml:space="preserve">
<g>
	<path fill-rule="evenodd" clip-rule="evenodd" d="M139.688,122.496c-0.03,1.481-1.094,2.546-2.853,2.417
		c-1.717-0.126-2.263,0.357-2.128,2.105c0.14,1.806-1.009,2.926-2.547,2.892c-1.468-0.031-2.538-1.122-2.403-2.868
		c0.134-1.735-0.392-2.254-2.13-2.129c-1.822,0.131-2.92-1.018-2.866-2.561c0.051-1.477,1.118-2.499,2.893-2.342
		c1.773,0.156,2.221-0.443,2.102-2.139c-0.128-1.798,1.032-2.952,2.537-2.907c1.443,0.045,2.575,1.178,2.412,2.881
		c-0.179,1.876,0.511,2.283,2.232,2.161C138.653,119.886,139.717,120.995,139.688,122.496z"/>
	<path fill-rule="evenodd" clip-rule="evenodd" fill="#030303" d="M134.74,85.005c-0.026,1.326-1.206,2.441-2.56,2.421
		c-1.358-0.021-2.479-1.171-2.449-2.514c0.027-1.353,1.188-2.466,2.541-2.437C133.615,82.504,134.766,83.683,134.74,85.005z"/>
	<path fill-rule="evenodd" clip-rule="evenodd" d="M76.65,69.199c0.127-1.409,0.647-1.753,2.025-1.75
		c18.206,0.049,36.414,0.034,54.623,0.029c0.783,0,1.572-0.008,2.35-0.09c5.174-0.544,9.001-4.569,9.02-9.751
		c0.055-15.12,0.062-30.241-0.005-45.361c-0.023-5.523-4.322-9.669-9.842-9.672c-29.247-0.016-58.496-0.007-87.742-0.009
		c-1.105,0-2.181,0.125-3.232,0.509c-4.163,1.521-6.579,5.15-6.583,10.036c-0.011,14.336-0.007,28.671,0.002,43.007
		c0.001,1.292,0.609,2.978,0.004,3.772c-0.713,0.937-2.569,0.291-3.863,0.728c-1.092,0.369-1.545-0.03-1.823-1.132
		c-0.819-3.25-2.322-6.138-4.795-8.482c-1.848-1.752-3.171-3.882-4.117-6.239c-0.473-1.18-1.085-2.206-2.493-2.284
		c-1.402-0.078-2.134,0.84-2.721,1.986c-2.815,5.488-5.661,10.959-8.493,16.439c-0.508,0.982-0.871,2.014-1.049,3.109
		c-0.627,3.855,0.314,7.485,1.666,11.033c0.385,1.012,0.376,1.788-0.188,2.762C6.483,82.864,4.859,88.3,4.838,94.118
		c-0.059,16.586-0.037,33.004-0.044,49.59C4.793,146.604,5.367,147,8.293,147c21.713,0,43.426,0,65.139,0
		c14.126,0,28.253,0,42.379,0c7.9,0,15.801,0.175,23.701,0.16c1.675-0.002,2.583-0.717,2.658-2.146
		c0.078-1.467-0.887-2.477-2.479-2.62c-0.467-0.043-0.94,0.008-1.412,0.008c-18.939,0-37.88-0.004-56.819,0.043
		c-1.364,0.004-1.742-0.293-1.737-1.707c0.059-14.807,0.014-29.609,0.045-44.415c0.015-6.678-1.384-12.972-4.792-18.756
		c-0.388-0.658-0.419-1.205-0.125-1.898C75.735,73.594,76.449,71.443,76.65,69.199z M73.289,143c-10.359,0-20.717,0-31.076,0
		c-10.307,0-20.613-0.313-30.919-0.26c-1.247,0.006-1.561-0.471-1.552-1.711c0.058-8.371,0.021-16.813,0.033-25.184
		c0.013-8.217,4.082-13.527,12.014-15.65c2.662-0.712,2.952-1.126,2.966-3.958c0.007-1.515-0.069-3.053,0.094-4.555
		c0.423-3.889,3.622-6.725,7.429-6.707c3.882,0.02,7.042,2.945,7.432,6.9c0.062,0.627,0.054,1.273,0.394,1.821
		c0.614,0.984,1.519,1.454,2.67,1.179c1.272-0.306,1.874-1.179,1.987-2.487c0.345-4.037,2.689-6.714,6.324-7.294
		c4.382-0.699,8.42,2.543,8.648,6.991c0.077,1.514,0.019,3.033,0.025,4.551c0.009,2.261,0.443,2.851,2.61,3.411
		c3.912,1.014,7.273,2.881,9.718,6.189c1.772,2.397,2.606,5.131,2.623,8.071c0.05,8.998,0,18.287,0.067,27.283
		C74.786,142.908,74.062,143,73.289,143z M74.748,98.783c-0.038,0.812-0.005,1.627-0.005,2.756
		c-2.862-2.797-5.846-4.736-9.338-5.827c-0.759-0.236-0.643-0.848-0.63-1.413c0.055-2.534-0.159-5.006-1.324-7.331
		c-3.901-7.788-14.232-9.397-20.207-3.072c-0.814,0.863-1.095,0.91-1.959,0.022c-3.762-3.858-8.322-4.852-13.382-3.117
		c-4.705,1.613-8.009,6.047-8.023,11.111c-0.007,2.535-0.474,4.035-3.183,4.82c-2.552,0.738-4.661,2.536-6.795,4.739
		c-0.531-7.985,0.042-15.398,4.36-22.02c1.116-1.71,1.459-3.213,0.426-5.069c-0.758-1.362-1.115-2.918-1.501-4.443
		c-0.722-2.847-0.6-5.52,0.916-8.171c1.816-3.173,3.375-6.492,5.069-9.735c0.231-0.444,0.323-1.011,0.971-1.324
		c1.124,1.886,2.752,3.36,4.165,5.019c1.963,2.304,2.641,5.181,3.171,8.081c0.429,2.342,1.577,3.096,3.896,2.436
		c1.767-0.502,3.602-0.676,5.368-1.121c2.948-0.743,5.216,0.82,7.642,1.917c0.555,0.251,0.355,0.819,0.359,1.265
		c0.015,2.093,0.021,4.187,0.001,6.279c-0.012,1.215,0.43,2.154,1.562,2.656c1.171,0.52,2.127,0.072,2.97-0.772
		c2.662-2.666,5.349-5.308,7.982-8.001c0.666-0.682,1.326-1.025,2.315-1.009c3.61,0.059,7.224,0.094,10.831-0.012
		c1.441-0.043,1.529,0.505,1.273,1.649c-0.48,2.154-1.175,4.229-2.094,6.229c-0.463,1.007-0.636,2.013,0.018,2.984
		C73.785,84.516,75.094,91.438,74.748,98.783z M58.428,62.464c-1.602-0.003-2.789,0.446-3.854,1.622
		c-1.423,1.57-2.967,3.029-4.459,4.536c-0.116-0.069-0.232-0.139-0.348-0.208c0-1.041,0.027-2.082-0.006-3.121
		c-0.056-1.756-0.809-2.573-2.52-2.801c-3.353-0.447-4.987-2.274-4.989-5.682c-0.012-14.544-0.012-29.088-0.001-43.632
		c0.002-3.683,1.933-5.662,5.592-5.664c28.773-0.014,57.548-0.014,86.322,0c3.604,0.002,5.539,1.927,5.544,5.534
		c0.023,14.597,0.021,29.193,0.001,43.789c-0.006,3.776-2.02,5.654-5.946,5.655C108.651,62.495,83.54,62.506,58.428,62.464z"/>
	<path fill-rule="evenodd" clip-rule="evenodd" d="M110.969,94.973c-4.781,0.004-8.706,3.896-8.735,8.663
		c-0.031,4.843,3.913,8.807,8.759,8.804c4.774-0.005,8.713-3.906,8.751-8.67C119.781,98.947,115.812,94.969,110.969,94.973z
		 M111.006,107.447c-2.064,0.016-3.775-1.719-3.749-3.798c0.025-2.009,1.696-3.676,3.701-3.693c2.057-0.017,3.782,1.729,3.755,3.801
		C114.688,105.762,113.009,107.434,111.006,107.447z"/>
	<path fill-rule="evenodd" clip-rule="evenodd" d="M69.73,47.333c0-2.247-0.018-4.493,0.005-6.74
		c0.022-2.204,0.871-3.088,3.012-3.107c3.03-0.026,6.061-0.027,9.09,0.001c1.792,0.018,2.828,0.934,2.862,2.423
		c0.035,1.571-1.021,2.524-2.884,2.552c-1.672,0.025-3.346-0.046-5.015,0.027c-0.859,0.038-2.131-0.664-2.105,1.273
		c0.028,2.002,1.376,1.049,2.178,1.171c0.92,0.14,1.878-0.005,2.816,0.047c1.523,0.085,2.499,1.066,2.518,2.455
		c0.019,1.393-0.927,2.43-2.451,2.523c-1.354,0.082-2.719,0.084-4.073,0.008c-0.98-0.055-0.982,0.486-0.939,1.167
		c0.042,0.634-0.238,1.392,0.925,1.352c2.036-0.068,4.074-0.042,6.111-0.012c1.883,0.028,2.937,0.969,2.918,2.529
		c-0.019,1.558-1.067,2.44-2.985,2.451c-2.978,0.018-5.956,0.019-8.934,0c-2.146-0.013-3.023-0.895-3.045-3.069
		C69.71,52.036,69.73,49.685,69.73,47.333z"/>
	<path fill-rule="evenodd" clip-rule="evenodd" d="M62.275,46.071c-1.733,1.764-3.297,1.791-5.031,0.031
		c0,3.093,0.028,5.84-0.009,8.586c-0.025,1.827-1.265,3-2.849,2.723c-1.29-0.225-2.086-1.046-2.097-2.362
		c-0.042-5.018-0.028-10.035-0.017-15.052c0.002-1.102,0.565-1.911,1.574-2.315c1.017-0.407,1.956-0.149,2.739,0.611
		c0.787,0.765,1.612,1.5,2.32,2.334c0.66,0.778,1.112,0.67,1.724-0.043c0.68-0.79,1.466-1.487,2.208-2.224
		c0.819-0.814,1.788-1.104,2.866-0.659c1.016,0.419,1.533,1.273,1.538,2.352c0.02,4.965,0.042,9.931-0.017,14.895
		c-0.018,1.521-1.115,2.5-2.48,2.5c-1.433,0-2.438-1.038-2.458-2.66C62.25,52.018,62.275,49.249,62.275,46.071z"/>
	<path fill-rule="evenodd" clip-rule="evenodd" fill="#010101" d="M119.757,14.513c0.438-1.469,1.477-2.063,2.952-2.057
		c3.033,0.01,6.065-0.021,9.098,0.014c1.789,0.02,2.969,1.104,2.927,2.581c-0.04,1.415-1.193,2.376-2.912,2.425
		c-2.108,0.061-2.108,0.061-2.108,2.207c0.001,3.241,0.015,6.483-0.004,9.725c-0.011,1.909-0.902,3.007-2.411,3.052
		c-1.567,0.046-2.544-1.091-2.555-3.059c-0.02-3.293-0.087-6.591,0.029-9.88c0.054-1.561-0.271-2.342-1.996-2.06
		c-1.051,0.172-1.948-0.249-2.64-1.068C119.521,15.865,119.474,15.223,119.757,14.513z"/>
	<path fill-rule="evenodd" clip-rule="evenodd" fill="#020202" d="M92.255,43.687c0-1.254-0.05-2.512,0.014-3.764
		c0.072-1.41,1.085-2.385,2.389-2.425c1.364-0.044,2.505,0.953,2.542,2.425c0.066,2.561,0.065,5.125-0.012,7.684
		c-0.042,1.386-1.163,2.363-2.45,2.367c-1.281,0.003-2.319-0.989-2.475-2.366c-0.013-0.104-0.016-0.209-0.016-0.313
		c-0.001-1.202,0-2.405,0-3.607C92.249,43.687,92.253,43.687,92.255,43.687z"/>
	<path fill-rule="evenodd" clip-rule="evenodd" fill="#050505" d="M97.218,54.988c-0.009,1.364-1.135,2.474-2.499,2.464
		c-1.372-0.01-2.475-1.128-2.464-2.499c0.01-1.371,1.128-2.473,2.499-2.462C96.121,52.5,97.226,53.622,97.218,54.988z"/>
	<path fill-rule="evenodd" clip-rule="evenodd" fill="#050505" d="M34.75,92.486c-0.019,1.362-1.168,2.478-2.529,2.458
		c-1.349-0.02-2.494-1.188-2.474-2.522c0.021-1.323,1.212-2.48,2.539-2.464C33.623,89.974,34.769,91.15,34.75,92.486z"/>
	<path fill-rule="evenodd" clip-rule="evenodd" fill="#050505" d="M54.734,92.5c-0.025,1.354-1.19,2.478-2.535,2.449
		c-1.349-0.029-2.446-1.183-2.421-2.546c0.024-1.367,1.162-2.473,2.518-2.447C53.641,89.982,54.76,91.149,54.734,92.5z"/>
	<path fill-rule="evenodd" clip-rule="evenodd" fill="#010101" d="M15.85,65.857c0.07-1.939,0.547-3.617,1.953-4.892
		c0.976-0.886,2.099-0.957,3.143-0.175c1.035,0.776,1.479,1.959,0.717,3.034c-1.148,1.621-0.745,3.141-0.174,4.741
		c0.087,0.246,0.197,0.484,0.278,0.731c0.468,1.428-0.06,2.703-1.34,3.247c-1.192,0.506-2.509,0.047-3.177-1.223
		C16.339,69.588,15.937,67.707,15.85,65.857z"/>
	<path fill-rule="evenodd" clip-rule="evenodd" d="M84.705,18.432c-0.054-3.52-2.386-5.862-5.936-5.961
		c-1.985-0.055-3.975-0.035-5.962-0.005c-2.167,0.032-3.043,0.907-3.071,3.075c-0.029,2.301-0.007,4.603-0.006,6.905
		c0,2.407-0.036,4.813,0.012,7.219c0.038,1.874,0.972,2.773,2.839,2.8c2.092,0.029,4.186,0.033,6.277-0.002
		c3.376-0.056,5.785-2.46,5.845-5.87C84.751,23.872,84.748,21.151,84.705,18.432z M78.097,27.469C74.37,27.657,74,27.684,74,24.049
		c0-0.575,0-1.149,0-1.725c0-1.202,0.368-2.403,0.372-3.605c0.002-0.312,0.101-0.824,0.245-0.905c1.3-0.732,2.817-0.263,4.187-0.289
		c0.838-0.016,0.913,0.754,0.913,1.403c0.002,2.404-0.175,4.808-0.158,7.211C79.565,27.045,79.043,27.421,78.097,27.469z"/>
	<path fill-rule="evenodd" clip-rule="evenodd" d="M102.222,22.538c-0.001-1.462,0.031-2.925-0.009-4.386
		c-0.078-2.86-2.115-5.171-4.96-5.585c-1.604-0.233-3.236-0.21-4.843-0.028c-2.926,0.334-5.08,2.626-5.167,5.573
		c-0.087,2.921-0.094,5.849,0.003,8.77c0.103,3.113,2.567,5.474,5.667,5.578c1.2,0.04,2.401,0.038,3.602,0.001
		c3.184-0.098,5.617-2.526,5.7-5.694C102.253,25.357,102.222,23.947,102.222,22.538z M95.598,27.469
		c-3.851-0.096-3.317,0.452-3.353-3.311c-0.017-1.721,0.042-3.444-0.021-5.164c-0.041-1.169,0.435-1.559,1.573-1.537
		c3.937,0.074,3.397-0.411,3.434,3.414c0.006,0.574,0.002,1.148,0.002,1.722c0,1.096-0.062,2.196,0.016,3.286
		C97.341,27.143,96.798,27.5,95.598,27.469z"/>
	<path fill-rule="evenodd" clip-rule="evenodd" d="M67.102,29.087c-0.638-4.075-1.307-8.145-1.995-12.21
		c-0.739-4.371-0.815-4.418-5.33-4.418c-0.575,0-1.149-0.004-1.724,0c-2.316,0.022-3.043,0.653-3.429,2.973
		c-0.205,1.236-0.413,2.472-0.616,3.708c-0.566,3.451-1.172,6.897-1.679,10.357c-0.233,1.589,0.69,2.758,2.112,2.949
		c1.332,0.179,2.439-0.676,2.778-2.179c0.149-0.662,0.255-1.334,0.349-2.005c0.064-0.462,0.219-0.725,0.745-0.825
		c2.63-0.5,3.427-0.017,3.914,2.465c0.358,1.828,1.468,2.788,2.925,2.532C66.65,32.17,67.395,30.964,67.102,29.087z M59.675,22.535
		c-0.583,0.021-1.213,0.09-1.05-0.838c0.207-1.171,0.408-2.344,0.605-3.517c0.053-0.318,0.126-0.652,0.499-0.678
		c0.407-0.027,0.466,0.328,0.52,0.639c0.202,1.172,0.403,2.344,0.606,3.515C61.042,22.736,60.263,22.516,59.675,22.535z"/>
	<g>
		<path fill="none" d="M113.489,17.33c-0.822,0.078-1.658,0.11-2.483,0.057c-1.014-0.066-1.329,0.294-1.313,1.333
			c0.015,1.026,0.313,1.431,1.339,1.289c0.406-0.056,0.827-0.009,1.393-0.009c0.712-0.473,2.737,1.12,2.414-1.517
			C114.722,17.514,114.386,17.246,113.489,17.33z"/>
		<path d="M119.209,15.132c-0.938-1.604-2.307-2.582-4.183-2.631c-2.559-0.066-5.122-0.083-7.68-0.016
			c-1.679,0.043-2.586,1.027-2.596,2.714c-0.028,4.86-0.026,9.72,0,14.58c0.01,1.605,1.036,2.665,2.457,2.68
			s2.438-1.011,2.515-2.638c0.057-1.199,0.065-2.406,0-3.604c-0.051-0.942,0.239-1.315,1.228-1.265
			c1.354,0.068,2.72,0.063,4.073-0.015c2.71-0.155,4.552-2.019,4.707-4.723c0.063-1.042,0.026-2.089,0.033-3.134
			C119.58,16.431,119.395,15.781,119.209,15.132z M112.424,19.999c-0.565,0-0.986-0.046-1.393,0.009
			c-1.025,0.142-1.324-0.263-1.339-1.289c-0.016-1.038,0.3-1.399,1.313-1.333c0.825,0.053,1.661,0.021,2.483-0.057
			c0.896-0.083,1.232,0.185,1.349,1.152C115.161,21.119,113.136,19.525,112.424,19.999z"/>
	</g>
	<path fill-rule="evenodd" clip-rule="evenodd" d="M60.298,102.688c-1.477-0.328-2.622,0.468-3.059,2.178
		c-0.375,1.466-0.627,2.971-1.074,4.413c-0.735,2.376-2.391,3.349-4.805,2.93c-1.854-0.321-3.699-0.69-5.553-1.014
		c-0.612-0.105-1.23-0.237-1.041-1.021c0.234-0.969-0.76-2.374,0.684-2.866c1.27-0.433,2.11-1.312,3.063-2.106
		c0.904-0.753,1.404-1.701,1.125-2.9c-0.294-1.271-1.219-1.872-2.429-2.16c-1.606-0.379-3.234-0.097-4.848-0.143
		c-1.464,0-2.929-0.012-4.393,0.009c-0.307,0.005-0.617,0.112-0.917,0.2c-2.161,0.632-2.974,2.733-1.636,4.385
		c0.721,0.89,1.534,1.956,2.598,2.205c2.196,0.515,1.676,2.076,1.747,3.499c0.033,0.662-0.227,0.914-0.862,1.02
		c-1.701,0.283-3.389,0.645-5.088,0.942c-2.693,0.471-4.288-0.484-5.156-3.103c-0.51-1.538-0.936-3.103-1.442-4.642
		c-0.517-1.566-1.742-2.331-3.061-1.978c-1.435,0.387-2.139,1.703-1.702,3.357c0.399,1.514,0.893,3.003,1.347,4.502
		c1.146,3.784,3.584,6.208,7.515,6.933c0.843,0.155,0.978,0.494,0.953,1.222c-0.045,1.307-0.03,2.615-0.006,3.924
		c0.098,5.401,4.235,9.713,9.548,9.964c5.241,0.246,9.743-3.589,10.343-8.921c0.18-1.604,0.152-3.242,0.083-4.858
		c-0.045-1.019,0.306-1.301,1.283-1.445c3.708-0.55,6.167-2.711,7.349-6.231c0.547-1.629,0.864-3.337,1.24-5.02
		C62.48,104.276,61.758,103.012,60.298,102.688z M47.243,122.49c-0.121,2.884-2.272,4.947-5.043,4.918
		c-2.708-0.027-4.772-2.037-4.913-4.883c-0.081-1.616,0.009-3.241-0.044-4.858c-0.024-0.726,0.272-0.958,0.936-1.151
		c1.2-0.352,1.714-0.165,1.6,1.233c-0.119,1.453-0.057,2.926-0.018,4.387c0.046,1.722,1.064,2.815,2.523,2.795
		c1.461-0.019,2.422-1.124,2.46-2.847c0.017-0.784,0.002-1.568,0.002-2.352c0-0.732-0.08-1.476,0.029-2.19
		c0.071-0.471-0.558-1.459,0.636-1.32c0.828,0.097,1.987-0.157,1.877,1.411C47.176,119.245,47.31,120.873,47.243,122.49z"/>
</g>
</svg>
