<?xml version="1.0" encoding="utf-8"?>
<!-- Generator: Adobe Illustrator 16.0.0, SVG Export Plug-In . SVG Version: 6.00 Build 0)  -->
<!DOCTYPE svg PUBLIC "-//W3C//DTD SVG 1.1//EN" "http://www.w3.org/Graphics/SVG/1.1/DTD/svg11.dtd">
<svg version="1.1" id="Capa_1" xmlns="http://www.w3.org/2000/svg" xmlns:xlink="http://www.w3.org/1999/xlink" x="0px" y="0px"
	 width="150px" height="150px" viewBox="0 0 150 150" enable-background="new 0 0 150 150" xml:space="preserve">
<path fill="#6E9E96" d="M74.208,38.951c-18.633,0-33.662,15.029-33.662,33.662c0,18.633,15.029,33.663,33.662,33.663
	c18.632,0,33.662-15.029,33.662-33.663C107.869,53.98,92.84,38.951,74.208,38.951z M74.208,94.498
	c-12.041,0-21.885-9.814-21.885-21.885c0-12.07,9.814-21.885,21.885-21.885c12.07,0,21.884,9.814,21.884,21.885
	C96.092,84.684,86.248,94.498,74.208,94.498z M117.098,37.574c0,4.365-3.516,7.852-7.852,7.852c-4.365,0-7.852-3.516-7.852-7.852
	s3.516-7.852,7.852-7.852S117.098,33.238,117.098,37.574z M139.393,45.542c-0.498-10.518-2.9-19.834-10.605-27.51
	c-7.676-7.676-16.992-10.078-27.51-10.605c-10.84-0.615-43.33-0.615-54.169,0c-10.488,0.498-19.805,2.9-27.51,10.576
	S9.52,34.996,8.993,45.513c-0.615,10.84-0.615,43.331,0,54.17c0.498,10.518,2.9,19.834,10.605,27.51s16.992,10.078,27.51,10.605
	c10.84,0.615,43.33,0.615,54.169,0c10.518-0.498,19.834-2.9,27.51-10.605c7.676-7.676,10.078-16.992,10.605-27.51
	C140.008,88.844,140.008,56.382,139.393,45.542z M125.389,111.314c-2.285,5.742-6.709,10.166-12.48,12.48
	c-8.643,3.428-29.15,2.637-38.701,2.637c-9.551,0-30.088,0.762-38.701-2.637c-5.742-2.285-10.166-6.709-12.48-12.48
	c-3.428-8.643-2.637-29.15-2.637-38.702c0-9.551-0.762-30.088,2.637-38.701c2.285-5.742,6.709-10.166,12.48-12.48
	c8.643-3.428,29.15-2.637,38.701-2.637c9.55,0,30.087-0.762,38.701,2.637c5.742,2.285,10.166,6.709,12.48,12.48
	c3.428,8.643,2.637,29.15,2.637,38.701C128.025,82.164,128.816,102.701,125.389,111.314z"/>
</svg>
