<?xml version="1.0" encoding="utf-8"?>
<!-- Generator: Adobe Illustrator 16.0.0, SVG Export Plug-In . SVG Version: 6.00 Build 0)  -->
<!DOCTYPE svg PUBLIC "-//W3C//DTD SVG 1.1//EN" "http://www.w3.org/Graphics/SVG/1.1/DTD/svg11.dtd">
<svg version="1.1" id="Capa_1" xmlns="http://www.w3.org/2000/svg" xmlns:xlink="http://www.w3.org/1999/xlink" x="0px" y="0px"
	 width="150px" height="150px" viewBox="0 0 150 150" enable-background="new 0 0 150 150" xml:space="preserve">
<path fill="#6E9E96" d="M125.756,6.988H22.63c-7.767,0-14.063,6.296-14.063,14.063v103.125c0,7.766,6.296,14.063,14.063,14.063
	h40.21V93.615H44.383V72.613H62.84V56.605c0-18.208,10.84-28.266,27.443-28.266c7.951,0,16.266,1.418,16.266,1.418v17.871h-9.162
	c-9.025,0-11.842,5.602-11.842,11.347v13.638h20.15l-3.223,21.002H85.545v44.623h40.211c7.766,0,14.063-6.297,14.063-14.063V21.05
	C139.818,13.284,133.521,6.988,125.756,6.988z"/>
</svg>
