<?xml version="1.0" encoding="utf-8"?>
<!-- Generator: Adobe Illustrator 16.0.0, SVG Export Plug-In . SVG Version: 6.00 Build 0)  -->
<!DOCTYPE svg PUBLIC "-//W3C//DTD SVG 1.1//EN" "http://www.w3.org/Graphics/SVG/1.1/DTD/svg11.dtd">
<svg version="1.1" id="Capa_1" xmlns="http://www.w3.org/2000/svg" xmlns:xlink="http://www.w3.org/1999/xlink" x="0px" y="0px"
	 width="150px" height="150px" viewBox="0 0 150 150" enable-background="new 0 0 150 150" xml:space="preserve">
<path fill-rule="evenodd" clip-rule="evenodd" d="M89.291,13.206c-1.07,8.956-3.879,19.262-8.846,28.883
	c-2.351,4.548-10.377,7.613-15.52,6.383c-3.646-0.869-6.425-5.182-6.468-11.323c-0.069-9.931,1.751-19.642,7.566-27.826
	c2.419-3.4,6.478-6.368,10.42-7.801C84.463-1.394,89.485,2.857,89.291,13.206z"/>
<path fill-rule="evenodd" clip-rule="evenodd" d="M126.02,22.416c-1.001,10.678-5.272,21.27-14.106,29.31
	c-2.866,2.607-7.668,4.208-11.609,4.258c-6.981,0.09-10.942-5.624-9.463-12.431c2.218-10.188,6.944-19.21,14.202-26.674
	c2.236-2.298,5.366-4.133,8.43-5.136C121,9.28,126.154,13.386,126.02,22.416z"/>
<path fill-rule="evenodd" clip-rule="evenodd" d="M22.748,41.348c1.042-3.828,1.952-8.877,3.813-13.546
	c1.874-4.697,5.727-7.68,10.962-8.294c6.216-0.728,10.47,2.047,11.515,8.184c1.709,10.044-0.411,19.484-6.245,27.845
	c-2.359,3.378-5.799,5.632-10.34,4.717c-4.454-0.901-6.849-4.005-7.873-8.154C23.819,49.016,23.491,45.822,22.748,41.348z"/>
<path fill-rule="evenodd" clip-rule="evenodd" d="M130.309,55.921c6.385-0.031,10.064,3.202,9.518,8.028
	c-1.047,9.265-4.771,17.222-13.44,21.875c-1.919,1.029-4.188,1.708-6.356,1.91c-8.746,0.83-12.354-3.93-9.172-12.016
	c2.818-7.167,7.43-13.026,13.836-17.3C126.74,57.048,129.25,56.375,130.309,55.921z"/>
<path fill-rule="evenodd" clip-rule="evenodd" d="M98.927,120.646c-0.719-13.744-1.354-27.489-2.192-41.224
	c-0.555-9.137-4.37-14.049-13.329-15.586c-5.724-0.982-11.918-1.331-17.577-0.255c-27.604,5.245-44.806,22.596-53.629,48.583
	c-1.843,5.423-2.329,11.645-1.966,17.404c0.562,8.916,6.051,14.819,14.296,18.143c8.117,3.27,15.134,1.682,21.458-4.339
	c3.577-3.41,7.399-6.644,11.494-9.389c1.69-1.135,4.594-1.518,6.585-0.962c7.621,2.14,15.122,4.717,22.609,7.292
	c6.417,2.208,9.335,1.187,11.063-5.425c1.191-4.556,1.092-9.446,1.568-14.187C99.179,120.685,99.054,120.665,98.927,120.646z
	 M90,118.217c0,0.984-0.798,1.783-1.782,1.783H32.782c-0.984,0-1.782-0.799-1.782-1.783v-0.434c0-0.984,0.798-1.783,1.782-1.783
	h55.436c0.984,0,1.782,0.799,1.782,1.783V118.217z M90,104.217c0,0.984-0.798,1.783-1.782,1.783H32.782
	c-0.984,0-1.782-0.799-1.782-1.783v-0.434c0-0.984,0.798-1.783,1.782-1.783h55.436c0.984,0,1.782,0.799,1.782,1.783V104.217z
	 M90,90.217C90,91.201,89.202,92,88.218,92H32.782C31.798,92,31,91.201,31,90.217v-0.434C31,88.799,31.798,88,32.782,88h55.436
	C89.202,88,90,88.799,90,89.783V90.217z"/>
</svg>
