<?xml version="1.0" encoding="utf-8"?>
<!-- Generator: Adobe Illustrator 16.0.0, SVG Export Plug-In . SVG Version: 6.00 Build 0)  -->
<!DOCTYPE svg PUBLIC "-//W3C//DTD SVG 1.1//EN" "http://www.w3.org/Graphics/SVG/1.1/DTD/svg11.dtd">
<svg version="1.1" id="Capa_1" xmlns="http://www.w3.org/2000/svg" xmlns:xlink="http://www.w3.org/1999/xlink" x="0px" y="0px"
	 width="150px" height="150px" viewBox="0 0 150 150" enable-background="new 0 0 150 150" xml:space="preserve">
<g>
	<path fill-rule="evenodd" clip-rule="evenodd" d="M145.678,128.852c-5.778-5.28-10.603-11.396-15.421-17.521
		c-0.553-0.7-0.914-1.43-1.124-2.271c-1.632-6.564-3.279-13.126-4.897-19.693c-0.31-1.254-1.014-2.568,0.329-3.713
		c0.189-0.162,0.216-0.557,0.248-0.853c0.805-7.085,1.595-14.172,2.401-21.256c0.095-0.84-0.147-1.589-0.395-2.363
		c-1.758-5.505-4.28-10.759-4.987-16.609c-0.493-4.083-2.895-7.412-5.284-10.605c-1.778-2.379-1.706-4.765-0.987-7.407
		c0.966-3.554,2.569-6.756,4.734-9.725c1.694-2.324,1.908-4.886,0.538-7.432c-1.369-2.545-3.622-3.835-6.493-3.634
		c-2.349,0.165-4.374-0.325-6.135-1.888c-0.188-0.166-0.415-0.288-0.63-0.42c-3.177-1.952-6.944-1.802-9.807,0.39
		c-2.856,2.189-4.119,5.848-2.942,9.349c0.678,2.015,0.911,4.008,0.845,6.092c-0.046,1.466,0.072,2.941-0.025,4.402
		c-0.21,3.079,0.813,5.343,3.98,6.307c-1.762,1.555-1.9,2.286-0.882,4.348c0.247,0.497,0.462,1.018,0.773,1.473
		c0.609,0.892,0.385,1.564-0.211,2.427c-2.875,4.168-6.358,7.907-7.949,12.953c-0.987,3.137-2.883,5.988-4.361,8.972
		c-0.271,0.55-0.57,1.03-1.135,1.36c-5.608,3.27-10.909,7.15-17.406,8.631c-0.821,0.187-1.596,0.664-1.742,1.523
		c-0.371,2.194-0.567,4.483,0.076,6.588c0.359,1.177-0.01,1.422-0.77,1.854c-8.774,4.994-17.586,9.928-26.282,15.056
		c-1.937,1.142-3.524,1.31-5.592,0.541c-1.779-0.661-3.183-1.471-4.26-3.083c-1.544-2.306-3.286-4.485-4.984-6.688
		c-1.343-1.741-3.07-1.671-4.347,0.143c-0.582,0.824-1.203,1.635-1.68,2.521c-1.481,2.756-3.476,4.895-6.544,5.888
		c-0.987,0.319-1.538,1.153-1.848,2.086c-0.837,2.517-2.503,4.168-5.007,4.999c-0.143,0.047-0.283,0.11-0.417,0.182
		c-1.759,0.924-2.15,2.064-1.263,3.872c1.467,2.989,2.954,5.971,4.458,8.94c0.785,1.551,1.674,1.943,3.342,1.535
		c2.207-0.538,4.463-0.939,6.599-1.685c2.674-0.935,4.771,0.675,7.103,1.248c0.468,0.114,0.418,0.632,0.526,1.013
		c0.425,1.504,0.78,3.037,1.34,4.49c0.294,0.765-0.079,0.989-0.53,1.326c-1.702,1.271-3.4,2.545-5.099,3.82
		c-1.101,0.826-1.483,1.846-0.945,3.184c1.582,3.93,3.113,7.88,4.714,11.801c0.625,1.532,1.714,1.992,3.314,1.484
		c2.212-0.7,4.403-1.467,6.614-2.173c0.752-0.24,1.359-0.645,1.853-1.245c0.917-0.705,0.638-1.617,0.387-2.488
		c-0.433-1.502-1.036-2.952-1.43-4.464c-0.25-0.962,0.942-2.464,1.924-2.463c1.24,0.002,1.381,0.86,1.431,1.867
		c0.101,2.007-0.089,3.921-1.225,5.655c-0.446,0.68-0.614,1.479-0.797,2.264c-0.669,1.407-1.345,2.813-2.006,4.224
		c-1.032,2.2-0.021,3.875,2.389,3.899c2.936,0.027,5.872-0.021,8.807,0.019c1.235,0.017,2.116-0.443,2.787-1.474
		c1.405-2.16,2.845-4.298,4.292-6.43c0.502-0.738,0.741-1.51,0.725-2.413c-0.041-2.126-0.017-4.252-0.011-6.378
		c0-0.488-0.121-0.994,0.574-1.217c3.018-0.971,6.022-1.981,9.068-2.99c0.204,3.296,0.205,6.402-1.309,9.399
		c-1.201,2.376-2.025,4.943-3.009,7.429c-1.03,2.598-0.075,4.049,2.678,4.059c2.784,0.011,5.569-0.047,8.351,0.021
		c1.663,0.04,2.629-0.65,3.179-2.205c0.625-1.769,1.399-3.483,2.162-5.348c0.114,0.229,0.149,0.268,0.15,0.304
		c0.009,1.316,0.016,2.632,0.021,3.948c0.01,2.497,0.773,3.279,3.236,3.282c5.822,0.004,11.642,0.001,17.464,0
		c2.922,0,3.599-0.663,3.599-3.531c0-11.844-0.003-23.687,0.009-35.53c0-0.483-0.201-1.024,0.222-1.446
		c2.177-2.17,4.358-4.336,6.619-6.584c1.705,5.128,3.37,10.093,5.005,15.069c0.351,1.071,0.854,2.029,1.535,2.927
		c3.237,4.273,6.271,8.715,9.722,12.804c2.724,3.225,4.341,6.57,3.617,10.829c-0.01,0.049-0.002,0.101,0,0.15
		c0.035,1.979,0.901,2.865,2.877,2.879c2.936,0.018,5.872-0.025,8.807,0.018c1.463,0.021,2.366-0.604,2.896-1.95
		c1.494-3.803,3.012-7.595,4.555-11.377C146.913,130.848,146.691,129.78,145.678,128.852z M116.979,47.979
		c1.734,4.894,3.461,9.788,5.182,14.687c0.423,1.208-0.053,2.405-0.171,3.588c-0.503,5.028-1.118,10.046-1.688,15.067
		c-0.139,1.222-1.704,1.993-2.819,1.38c-2.034-1.118-2.377-1.781-1.454-3.896c1.094-2.51,0.769-5.171,1.141-7.754
		c0.028-0.199,0.002-0.408,0.039-0.605c0.718-3.918-0.123-7.55-1.726-11.149c-1.35-3.032-2.385-6.209-3.503-9.342
		c-0.728-2.035,0.498-3.857,2.753-3.82C115.699,46.21,116.563,46.807,116.979,47.979z M99.333,11.393
		c-0.228-1.529,0.213-2.816,1.479-3.726c1.263-0.908,2.616-0.959,3.985-0.2c0.175,0.098,0.358,0.194,0.509,0.323
		c2.614,2.226,5.557,3.196,9.046,2.853c2.221-0.218,3.104,1.623,1.896,3.55c-0.615,0.982-1.337,1.901-1.914,2.904
		c-0.387,0.678-0.872,0.922-1.614,0.752c-0.814,0.24-1.139-0.256-1.458-0.911c-2.165-4.433-1.588-3.892-6.506-3.917
		c-1.161-0.006-2.335-0.106-3.482,0.026C99.929,13.205,99.501,12.505,99.333,11.393z M110.235,29.49
		c0.064,0.509-0.284,0.555-0.676,0.542c-0.403-0.013-0.808-0.001-1.211-0.003c-0.908-0.004-2.017,0.309-2.67-0.102
		c-0.744-0.466-0.187-1.667-0.308-2.539c-0.204-1.46-1.147-2.192-2.901-2.218c-1.948-0.028-1.948-0.028-1.948-1.996
		c0-1.462,0.038-2.927-0.017-4.388c-0.027-0.737,0.215-1.015,0.934-0.91c0.198,0.029,0.408,0.032,0.603,0
		c2.925-0.486,5.111,0.149,6.035,3.396c0.454,1.602,2.079,1.5,3.607,1.482C111.039,25.076,109.928,27.133,110.235,29.49z
		 M97.736,48.67c2.002-2.853,4.036-5.684,6.143-8.458c1.237-1.631,2.243-3.195,0.472-5.323c2.312,0,4.231-0.004,6.15,0.003
		c0.388,0.001,0.811-0.111,1.092,0.317c1.289,1.965,2.587,3.926,3.997,6.066c-1.427-0.03-2.572,0.024-3.677,0.416
		c-4.011,1.422-6.021,5.706-4.527,9.872c1.53,4.268,3.136,8.51,4.754,12.747c0.993,2.601,0.012,5.186,0.037,7.777
		c0.007,0.715-0.664,0.461-1.058,0.465c-2.377,0.021-4.755-0.033-7.129,0.033c-0.9,0.024-1.069-0.293-1.058-1.113
		c0.045-3.133-0.107-6.276,0.061-9.401c0.122-2.282-0.539-3.81-2.783-4.552c-0.765-0.253-1.418-0.76-1.987-1.353
		C96.234,54.094,95.999,51.15,97.736,48.67z M71.333,75.079c0.095-0.591,0.236-0.885,0.83-1.035
		c6.506-1.632,11.633-5.914,17.352-9.062c0.662-0.365,0.99-0.976,1.31-1.616c0.846-1.705,1.707-3.402,2.656-5.29
		c1.22,1.562,2.439,2.764,4.015,3.52c0.614,0.293,0.526,0.547,0.184,1c-1.896,2.493-3.779,4.995-5.635,7.516
		c-0.364,0.497-0.878,0.66-1.381,0.865c-1.816,0.743-3.623,1.527-5.476,2.174c-3.55,1.239-6.874,2.896-9.843,5.205
		c-0.974,0.758-1.605,0.66-2.339-0.283C72.292,77.154,71.094,76.579,71.333,75.079z M61.036,88.559
		c2.934-1.677,5.884-3.328,8.786-5.058c0.811-0.481,1.304-0.547,2.014,0.213c1.194,1.277,2.233,1.407,3.617,0.351
		c4.912-3.754,10.454-6.25,16.252-8.216c2.218-0.752,3.9-2.009,5.104-3.985c0.299-0.493,0.698-0.926,1.239-1.634
		c0.061,2.354,0.133,4.256-1.101,6.175c-2.558,3.988-4.85,8.148-7.2,12.268c-0.455,0.798-0.788,1.079-1.691,0.541
		c-1.98-1.18-4.272-1.505-6.479-1.996c-1.965-0.436-3.351,1.301-2.695,3.33c0.813,2.521,0.829,4.948-0.4,7.343
		c-0.34,0.664-0.647,0.963-1.508,0.644c-6.109-2.262-12.403-1.924-18.716-1.214c-4.161,0.467-8.259,1.519-12.487,1.363
		c-0.537-0.02-1.072-0.081-1.607-0.124c-0.02-0.112-0.038-0.224-0.056-0.336C49.75,95.002,55.394,91.782,61.036,88.559z
		 M84.323,92.979c5.272,1.572,7.132,7.719,3.743,11.745c-0.551,0.654-0.906,0.924-1.572,0.064c-1.092-1.406-3.17-2.169-3.809-3.544
		c-0.615-1.323,1.232-3.056,1.419-4.802C84.223,95.341,84.464,94.25,84.323,92.979z M27.103,110.299
		c-0.4,0.611-0.822,0.666-1.389,0.368c-3.755-1.983-7.519-1.564-11.38-0.247c-2.342,0.798-2.396,0.642-3.518-1.6
		c-0.09-0.181-0.176-0.364-0.266-0.544c-0.467-0.949-1.391-1.955-1.281-2.832c0.12-0.964,1.65-1.048,2.518-1.6
		c1.211-0.769,1.566-2.1,2.085-3.265c0.614-1.379,1.441-2.363,2.885-2.856c2.051-0.699,3.524-2.071,4.542-3.985
		c0.423-0.796,1.006-1.508,1.59-2.366c1.412,1.875,2.843,3.621,4.095,5.487c1.014,1.511,2.261,2.52,4.051,2.905
		c0.817,0.176,1.595,0.535,2.504,0.852C31.343,103.911,29.202,107.09,27.103,110.299z M31.259,128.638
		c-1.134,1.067-1.487,2.209-0.878,3.667c0.349,0.835,0.596,1.713,0.882,2.573c0.574,1.73,0.077,2.428-1.791,2.551
		c-0.551,0.175-0.578-0.247-0.705-0.563c-0.916-2.291-1.805-4.594-2.772-6.863c-0.263-0.616-0.095-0.897,0.378-1.238
		c1.188-0.854,2.357-1.739,3.515-2.635c0.409-0.318,0.701-0.325,1.164-0.018C32.702,127.208,32.76,127.225,31.259,128.638z
		 M72.844,135.344c-1.049,2.111-1.835,4.358-2.664,6.573c-0.303,0.81-0.668,1.216-1.602,1.132c-1.05-0.097-2.114-0.022-3.338-0.022
		c1.046-2.615,2.028-5.137,3.065-7.632c0.455-1.093,0.67-2.188,0.643-3.376c-0.053-2.221,0.038-4.445-0.036-6.666
		c-0.045-1.358,0.384-2.549,0.955-3.987c1.316,1.644,2.528,3.148,3.725,4.666c0.114,0.145,0.194,0.366,0.186,0.547
		C73.647,129.516,74.258,132.498,72.844,135.344z M77.039,138.887c0.279-2.583,2.095-4.669,1.542-7.45
		c1.218,0.346,2.063,1.068,3.013,1.577c0.803,0.428,0.225,0.906-0.049,1.202C80.071,135.8,78.545,137.334,77.039,138.887z
		 M82.256,143.007c-0.381-0.007-0.987,0.333-1.138-0.308c-0.121-0.516-0.109-1.059,0.372-1.517c1.343-1.28,2.641-2.609,4.131-4.093
		c0.73,2.03,1.405,3.903,2.135,5.937C85.834,143.026,84.045,143.049,82.256,143.007z M92.257,141.287
		c-0.78-2.708-1.898-5.316-2.811-7.989c-0.38-1.11-0.924-2.024-2.045-2.475c-6.736-2.709-10.577-8.512-14.836-13.868
		c-0.566-0.713-1.103-1.452-1.715-2.123c-1.417-1.555-3.476-1.195-4.234,0.775c-0.616,1.599-1.145,3.235-1.618,4.882
		c-0.249,0.868-0.701,1.309-1.566,1.587c-3.937,1.264-7.838,2.638-11.775,3.897c-1.535,0.49-2.24,1.418-2.169,3.013
		c0.044,1.01-0.098,2.037,0.027,3.034c0.469,3.755-0.479,7.014-2.96,9.918c-0.67,0.784-1.222,1.174-2.216,1.103
		c-0.946-0.069-1.901-0.015-2.857-0.015c-0.066-0.578,0.222-0.978,0.464-1.314c2.881-4.001,2.938-8.561,2.695-13.194
		c-0.066-1.283-0.747-2.028-1.881-2.479c-2.202-0.875-4.375-1.83-6.602-2.638c-2.826-1.022-4.301-3.06-5.182-5.861
		c-0.717-2.281-0.418-4.061,1.043-5.969c2.022-2.644,3.769-5.5,5.578-8.301c0.507-0.786,0.917-1.068,1.93-0.746
		c4.912,1.568,9.886,1.12,14.862,0.263c5.549-0.956,11.128-1.554,16.751-0.771c4.052,0.563,7.649,2.236,10.707,4.952
		c2.622,2.33,3.918,5.331,4.083,8.826c0.012,0.253,0.054,0.513,0.008,0.759c-0.756,4.108,0.749,7.253,4.053,9.674
		c2.683,1.966,3.93,4.615,4.109,7.972c0.157,2.908,0.754,5.793,1.156,8.685C93.718,143.317,92.764,143.047,92.257,141.287z
		 M96.982,104.221c-0.929,0.918-1.187,1.89-1.175,3.211C95.864,112.69,96,117.949,96,123.21c0,0.486,0,0.975,0,1.919
		c-1-1.752-3.291-3.225-4.728-4.67c-0.385-0.386-0.388-0.833-0.382-1.273c0.044-2.935,0.029-5.871-1.018-8.677
		c-0.213-0.574,0.027-0.825,0.398-1.125c4.188-3.37,5.933-10.128,2.682-15.495c-0.296-0.487-0.166-0.822,0.071-1.226
		c2.823-4.836,5.642-9.672,8.455-14.515c0.266-0.458,0.534-0.754,1.155-0.745c2.827,0.04,5.653,0.019,8.536,0.019
		c-0.102,1.156-0.607,2.102-0.973,3.078c-0.521,1.396-0.182,2.46,0.967,3.329c0.04,0.029,0.081,0.061,0.117,0.095
		c1.024,0.955,2.93,1.623,2.948,2.781c0.016,0.965-1.686,1.972-2.65,2.938C106.723,94.51,101.873,99.386,96.982,104.221z
		 M129.458,131.376c-1.971-2.62-3.708-5.232-5.748-7.582c-4.819-5.547-8.114-11.826-9.888-18.954c-0.583-2.339-1.49-4.6-2.306-6.876
		c-0.273-0.764-0.158-1.247,0.435-1.838c2.361-2.347,4.829-4.591,7.112-7.347c0.832,3.3,1.621,6.409,2.402,9.521
		c1.079,4.304,2.167,8.604,3.219,12.916c0.222,0.906,0.604,1.684,1.19,2.408c2.481,3.061,4.917,6.159,7.41,9.211
		c0.55,0.671,0.669,1.156,0.154,1.95C132.078,126.889,130.839,129.071,129.458,131.376z M141.111,132.237
		c-1.03,2.52-2.031,5.05-3.03,7.581c-0.198,0.499-0.417,0.826-1.067,0.797c-1.363-0.063-2.729-0.019-4.096-0.02
		c-0.394-0.002-0.846,0.095-0.812-0.559c0.09-1.777-0.262-3.553,0.909-5.234c1.6-2.299,2.931-4.783,4.537-7.453
		c1.17,1.262,2.215,2.425,3.307,3.544C141.275,131.321,141.334,131.696,141.111,132.237z"/>
	<path fill-rule="evenodd" clip-rule="evenodd" fill="#020202" d="M20.308,103.536c-1.155-0.023-2.094-0.994-2.086-2.153
		c0.008-1.132,1.009-2.106,2.146-2.087c1.146,0.021,2.105,1.007,2.089,2.148C22.44,102.579,21.433,103.56,20.308,103.536z"/>
</g>
</svg>
