<?xml version="1.0" encoding="utf-8"?>
<!-- Generator: Adobe Illustrator 16.0.0, SVG Export Plug-In . SVG Version: 6.00 Build 0)  -->
<!DOCTYPE svg PUBLIC "-//W3C//DTD SVG 1.1//EN" "http://www.w3.org/Graphics/SVG/1.1/DTD/svg11.dtd">
<svg version="1.1" id="Capa_1" xmlns="http://www.w3.org/2000/svg" xmlns:xlink="http://www.w3.org/1999/xlink" x="0px" y="0px"
	 width="150px" height="150px" viewBox="0 0 150 150" enable-background="new 0 0 150 150" xml:space="preserve">
<g>
	<path fill="#6E9E96" d="M145.678,128.852c-5.777-5.279-10.603-11.396-15.421-17.521c-0.553-0.7-0.914-1.431-1.124-2.271
		c-1.632-6.564-3.279-13.127-4.896-19.693c-0.311-1.254-1.014-2.568,0.328-3.713c0.189-0.162,0.217-0.557,0.248-0.854
		c0.806-7.085,1.596-14.172,2.401-21.256c0.095-0.84-0.147-1.589-0.396-2.363c-1.758-5.505-4.279-10.759-4.986-16.609
		c-0.493-4.083-2.895-7.412-5.284-10.605c-1.778-2.379-1.706-4.765-0.987-7.407c0.967-3.554,2.569-6.756,4.734-9.725
		c1.693-2.324,1.908-4.886,0.538-7.432c-1.369-2.545-3.622-3.835-6.493-3.634c-2.349,0.165-4.374-0.325-6.135-1.888
		c-0.188-0.166-0.415-0.288-0.63-0.42c-3.177-1.952-6.944-1.802-9.808,0.39c-2.855,2.189-4.119,5.848-2.941,9.349
		c0.678,2.015,0.91,4.008,0.845,6.092c-0.046,1.466,0.072,2.941-0.024,4.402c-0.211,3.079,0.813,5.343,3.979,6.307
		c-1.762,1.555-1.899,2.286-0.882,4.348c0.247,0.497,0.462,1.018,0.773,1.473c0.608,0.892,0.385,1.564-0.211,2.427
		c-2.875,4.168-6.358,7.907-7.949,12.953c-0.987,3.137-2.883,5.988-4.361,8.972c-0.271,0.55-0.57,1.03-1.135,1.36
		c-5.608,3.27-10.909,7.15-17.406,8.631c-0.821,0.187-1.596,0.664-1.742,1.523c-0.371,2.194-0.567,4.483,0.076,6.588
		c0.359,1.177-0.01,1.422-0.77,1.854c-8.774,4.994-17.586,9.928-26.282,15.057c-1.937,1.142-3.524,1.31-5.592,0.541
		c-1.779-0.662-3.183-1.472-4.26-3.084c-1.544-2.306-3.286-4.484-4.984-6.688c-1.343-1.741-3.07-1.671-4.347,0.143
		c-0.582,0.824-1.203,1.635-1.68,2.521c-1.481,2.756-3.476,4.895-6.544,5.888c-0.987,0.319-1.538,1.153-1.848,2.087
		c-0.837,2.516-2.503,4.168-5.007,4.998c-0.143,0.047-0.283,0.11-0.417,0.182c-1.759,0.925-2.15,2.064-1.263,3.873
		c1.467,2.988,2.954,5.971,4.458,8.939c0.785,1.551,1.674,1.943,3.342,1.535c2.207-0.538,4.463-0.939,6.599-1.686
		c2.674-0.935,4.771,0.676,7.103,1.248c0.468,0.114,0.418,0.633,0.526,1.014c0.425,1.504,0.78,3.037,1.34,4.49
		c0.294,0.765-0.079,0.988-0.53,1.326c-1.702,1.271-3.4,2.545-5.099,3.819c-1.101,0.826-1.483,1.847-0.945,3.185
		c1.582,3.93,3.113,7.879,4.714,11.801c0.625,1.531,1.714,1.992,3.314,1.484c2.212-0.701,4.403-1.468,6.614-2.174
		c0.752-0.24,1.359-0.645,1.853-1.244c0.917-0.705,0.638-1.617,0.387-2.488c-0.433-1.502-1.036-2.953-1.43-4.465
		c-0.25-0.961,0.942-2.463,1.924-2.463c1.24,0.002,1.381,0.86,1.431,1.867c0.101,2.008-0.089,3.921-1.225,5.655
		c-0.446,0.68-0.614,1.479-0.797,2.264c-0.669,1.407-1.345,2.813-2.006,4.224c-1.032,2.201-0.021,3.875,2.389,3.899
		c2.936,0.027,5.872-0.021,8.807,0.019c1.235,0.018,2.116-0.442,2.787-1.474c1.405-2.159,2.845-4.298,4.292-6.43
		c0.502-0.738,0.741-1.511,0.725-2.413c-0.041-2.126-0.017-4.252-0.011-6.378c0-0.488-0.121-0.994,0.574-1.218
		c3.018-0.971,6.022-1.98,9.068-2.989c0.204,3.296,0.205,6.401-1.309,9.399c-1.201,2.375-2.025,4.942-3.009,7.429
		c-1.03,2.598-0.075,4.049,2.678,4.059c2.784,0.011,5.569-0.047,8.351,0.021c1.663,0.04,2.629-0.65,3.179-2.205
		c0.625-1.769,1.399-3.483,2.162-5.349c0.114,0.229,0.149,0.269,0.15,0.305c0.009,1.316,0.016,2.632,0.021,3.947
		c0.01,2.498,0.772,3.279,3.235,3.283c5.822,0.004,11.642,0,17.464,0c2.922,0,3.6-0.664,3.6-3.531
		c0-11.844-0.004-23.688,0.009-35.53c0-0.483-0.201-1.024,0.222-1.446c2.178-2.17,4.357-4.336,6.619-6.584
		c1.705,5.128,3.37,10.094,5.005,15.069c0.351,1.071,0.854,2.028,1.535,2.927c3.237,4.273,6.271,8.715,9.722,12.805
		c2.725,3.225,4.342,6.569,3.617,10.828c-0.01,0.049-0.002,0.102,0,0.15c0.035,1.979,0.9,2.865,2.877,2.879
		c2.936,0.018,5.872-0.025,8.807,0.018c1.463,0.021,2.366-0.604,2.896-1.949c1.494-3.804,3.012-7.596,4.555-11.377
		C146.913,130.848,146.691,129.779,145.678,128.852z M116.979,47.979c1.734,4.894,3.461,9.788,5.183,14.687
		c0.423,1.208-0.054,2.405-0.171,3.588c-0.504,5.028-1.118,10.046-1.688,15.066c-0.139,1.223-1.704,1.994-2.819,1.381
		c-2.033-1.118-2.377-1.781-1.453-3.896c1.094-2.51,0.769-5.171,1.141-7.754c0.027-0.199,0.002-0.408,0.039-0.605
		c0.718-3.918-0.123-7.55-1.727-11.149c-1.35-3.032-2.385-6.209-3.502-9.342c-0.729-2.035,0.498-3.857,2.752-3.82
		C115.699,46.21,116.563,46.807,116.979,47.979z M99.333,11.393c-0.228-1.529,0.213-2.816,1.479-3.726
		c1.263-0.908,2.615-0.959,3.984-0.2c0.176,0.098,0.357,0.194,0.51,0.323c2.613,2.226,5.557,3.196,9.045,2.853
		c2.222-0.218,3.104,1.623,1.896,3.55c-0.615,0.982-1.337,1.901-1.914,2.904c-0.387,0.678-0.872,0.922-1.613,0.752
		c-0.814,0.24-1.14-0.256-1.459-0.911c-2.164-4.433-1.588-3.892-6.506-3.917c-1.16-0.006-2.335-0.106-3.482,0.026
		C99.93,13.205,99.501,12.505,99.333,11.393z M110.234,29.49c0.064,0.509-0.283,0.555-0.676,0.542
		c-0.402-0.013-0.808-0.001-1.211-0.003c-0.908-0.004-2.017,0.309-2.67-0.102c-0.744-0.466-0.187-1.667-0.308-2.539
		c-0.204-1.46-1.147-2.192-2.901-2.218c-1.947-0.028-1.947-0.028-1.947-1.996c0-1.462,0.037-2.927-0.018-4.388
		c-0.027-0.737,0.215-1.015,0.934-0.91c0.199,0.029,0.408,0.032,0.604,0c2.925-0.486,5.111,0.149,6.035,3.396
		c0.453,1.602,2.078,1.5,3.607,1.482C111.039,25.076,109.928,27.133,110.234,29.49z M97.736,48.67
		c2.002-2.853,4.035-5.684,6.143-8.458c1.237-1.631,2.243-3.195,0.473-5.323c2.312,0,4.23-0.004,6.149,0.003
		c0.388,0.001,0.812-0.111,1.092,0.317c1.289,1.965,2.587,3.926,3.997,6.066c-1.427-0.03-2.572,0.024-3.677,0.416
		c-4.011,1.422-6.021,5.706-4.526,9.872c1.529,4.268,3.135,8.51,4.754,12.747c0.992,2.601,0.012,5.186,0.036,7.777
		c0.007,0.715-0.663,0.461-1.058,0.465c-2.377,0.021-4.756-0.033-7.129,0.033c-0.9,0.024-1.069-0.293-1.059-1.113
		c0.045-3.133-0.106-6.276,0.062-9.401c0.122-2.282-0.539-3.81-2.783-4.552c-0.765-0.253-1.418-0.76-1.987-1.353
		C96.234,54.094,95.999,51.15,97.736,48.67z M71.333,75.079c0.095-0.591,0.236-0.885,0.83-1.035
		c6.506-1.632,11.633-5.914,17.353-9.062c0.661-0.365,0.989-0.976,1.31-1.616c0.846-1.705,1.707-3.402,2.655-5.29
		c1.221,1.562,2.439,2.764,4.016,3.52c0.613,0.293,0.525,0.547,0.184,1c-1.896,2.493-3.779,4.995-5.635,7.516
		c-0.363,0.497-0.878,0.66-1.381,0.865c-1.816,0.743-3.623,1.527-5.477,2.174c-3.549,1.239-6.873,2.896-9.842,5.205
		c-0.974,0.759-1.605,0.66-2.339-0.282C72.292,77.154,71.094,76.579,71.333,75.079z M61.036,88.559
		c2.934-1.677,5.884-3.328,8.786-5.058c0.811-0.481,1.304-0.547,2.014,0.213c1.194,1.277,2.233,1.407,3.617,0.351
		c4.912-3.754,10.454-6.25,16.252-8.215c2.218-0.752,3.9-2.01,5.104-3.985c0.299-0.493,0.698-0.926,1.239-1.634
		c0.062,2.354,0.134,4.256-1.101,6.174c-2.559,3.988-4.85,8.148-7.2,12.269c-0.455,0.798-0.788,1.079-1.69,0.541
		c-1.98-1.18-4.272-1.505-6.479-1.996c-1.966-0.436-3.351,1.302-2.695,3.33c0.813,2.521,0.829,4.948-0.399,7.343
		c-0.34,0.664-0.647,0.963-1.508,0.645c-6.109-2.262-12.404-1.924-18.717-1.215c-4.161,0.468-8.259,1.52-12.487,1.363
		c-0.537-0.02-1.072-0.08-1.607-0.123c-0.02-0.112-0.038-0.225-0.056-0.336C49.75,95.002,55.394,91.782,61.036,88.559z
		 M84.323,92.979c5.272,1.572,7.132,7.72,3.743,11.746c-0.551,0.653-0.906,0.924-1.572,0.063c-1.092-1.406-3.17-2.169-3.809-3.544
		c-0.615-1.323,1.231-3.057,1.418-4.803C84.223,95.341,84.464,94.25,84.323,92.979z M27.103,110.299
		c-0.4,0.611-0.822,0.666-1.389,0.368c-3.755-1.983-7.519-1.563-11.38-0.247c-2.342,0.798-2.396,0.643-3.518-1.6
		c-0.09-0.182-0.176-0.364-0.266-0.545c-0.467-0.948-1.391-1.955-1.281-2.832c0.12-0.963,1.65-1.047,2.518-1.6
		c1.211-0.769,1.566-2.1,2.085-3.265c0.614-1.379,1.441-2.363,2.885-2.856c2.051-0.699,3.524-2.07,4.542-3.984
		c0.423-0.797,1.006-1.508,1.59-2.366c1.412,1.875,2.843,3.621,4.095,5.487c1.014,1.511,2.261,2.52,4.051,2.904
		c0.817,0.176,1.595,0.535,2.504,0.853C31.343,103.911,29.202,107.09,27.103,110.299z M31.259,128.639
		c-1.134,1.066-1.487,2.209-0.878,3.666c0.349,0.836,0.596,1.713,0.882,2.573c0.574,1.729,0.077,2.429-1.791,2.552
		c-0.551,0.174-0.578-0.248-0.705-0.563c-0.916-2.291-1.805-4.595-2.772-6.863c-0.263-0.616-0.095-0.897,0.378-1.237
		c1.188-0.854,2.357-1.74,3.515-2.636c0.409-0.317,0.701-0.325,1.164-0.019C32.702,127.208,32.76,127.225,31.259,128.639z
		 M72.844,135.344c-1.049,2.111-1.835,4.358-2.664,6.573c-0.303,0.81-0.668,1.216-1.602,1.132c-1.05-0.097-2.114-0.021-3.338-0.021
		c1.046-2.615,2.028-5.137,3.065-7.633c0.455-1.093,0.67-2.188,0.643-3.375c-0.053-2.222,0.038-4.445-0.036-6.666
		c-0.045-1.358,0.384-2.549,0.955-3.987c1.316,1.644,2.528,3.147,3.725,4.666c0.114,0.145,0.194,0.366,0.186,0.547
		C73.647,129.516,74.258,132.498,72.844,135.344z M77.039,138.887c0.279-2.582,2.095-4.669,1.542-7.449
		c1.218,0.346,2.063,1.067,3.013,1.576c0.803,0.428,0.225,0.906-0.049,1.202C80.07,135.8,78.545,137.334,77.039,138.887z
		 M82.256,143.007c-0.381-0.007-0.986,0.333-1.138-0.308c-0.121-0.516-0.109-1.059,0.372-1.518c1.343-1.279,2.641-2.608,4.131-4.093
		c0.73,2.03,1.404,3.903,2.135,5.937C85.834,143.025,84.045,143.049,82.256,143.007z M92.257,141.287
		c-0.78-2.708-1.897-5.316-2.812-7.989c-0.379-1.11-0.924-2.024-2.045-2.475c-6.735-2.709-10.576-8.513-14.835-13.868
		c-0.566-0.713-1.103-1.452-1.715-2.123c-1.417-1.555-3.476-1.195-4.234,0.775c-0.616,1.599-1.145,3.234-1.618,4.882
		c-0.249,0.868-0.701,1.309-1.566,1.587c-3.937,1.264-7.838,2.638-11.775,3.896c-1.535,0.49-2.24,1.418-2.169,3.014
		c0.044,1.01-0.098,2.037,0.027,3.033c0.469,3.756-0.479,7.015-2.96,9.918c-0.67,0.785-1.222,1.174-2.216,1.104
		c-0.946-0.068-1.901-0.016-2.857-0.016c-0.066-0.577,0.222-0.978,0.464-1.313c2.881-4.001,2.938-8.562,2.695-13.194
		c-0.066-1.283-0.747-2.027-1.881-2.479c-2.202-0.875-4.375-1.83-6.602-2.639c-2.826-1.021-4.301-3.06-5.182-5.86
		c-0.717-2.281-0.418-4.062,1.043-5.97c2.022-2.644,3.769-5.5,5.578-8.301c0.507-0.785,0.917-1.067,1.93-0.746
		c4.912,1.568,9.886,1.121,14.862,0.264c5.549-0.956,11.128-1.555,16.751-0.771c4.052,0.563,7.649,2.236,10.708,4.952
		c2.621,2.33,3.918,5.331,4.082,8.826c0.012,0.253,0.055,0.513,0.008,0.759c-0.756,4.108,0.75,7.254,4.054,9.674
		c2.683,1.967,3.93,4.615,4.108,7.973c0.157,2.908,0.754,5.793,1.156,8.685C93.718,143.316,92.764,143.047,92.257,141.287z
		 M96.982,104.221c-0.93,0.918-1.188,1.891-1.176,3.211C95.863,112.689,96,117.949,96,123.21c0,0.485,0,0.976,0,1.919
		c-1-1.752-3.291-3.225-4.729-4.67c-0.385-0.386-0.388-0.833-0.381-1.273c0.043-2.935,0.028-5.871-1.019-8.677
		c-0.213-0.573,0.026-0.825,0.397-1.125c4.188-3.37,5.934-10.128,2.683-15.495c-0.296-0.486-0.166-0.822,0.071-1.226
		c2.822-4.836,5.642-9.672,8.455-14.515c0.266-0.459,0.533-0.754,1.154-0.746c2.827,0.041,5.653,0.02,8.536,0.02
		c-0.103,1.156-0.606,2.102-0.974,3.078c-0.521,1.396-0.182,2.46,0.968,3.329c0.04,0.028,0.081,0.062,0.116,0.095
		c1.025,0.955,2.931,1.623,2.949,2.781c0.016,0.965-1.687,1.972-2.65,2.938C106.723,94.51,101.873,99.386,96.982,104.221z
		 M129.458,131.376c-1.972-2.62-3.708-5.231-5.748-7.582c-4.819-5.547-8.114-11.826-9.888-18.954c-0.584-2.339-1.49-4.6-2.307-6.876
		c-0.272-0.764-0.158-1.247,0.436-1.838c2.361-2.347,4.828-4.591,7.111-7.347c0.832,3.3,1.621,6.408,2.402,9.521
		c1.079,4.304,2.167,8.604,3.219,12.916c0.223,0.906,0.604,1.685,1.19,2.408c2.481,3.062,4.917,6.159,7.41,9.211
		c0.55,0.671,0.669,1.156,0.153,1.95C132.078,126.889,130.839,129.07,129.458,131.376z M141.111,132.236
		c-1.03,2.521-2.031,5.051-3.03,7.582c-0.198,0.498-0.417,0.826-1.067,0.797c-1.363-0.063-2.729-0.02-4.096-0.021
		c-0.395-0.002-0.846,0.095-0.813-0.559c0.09-1.777-0.262-3.554,0.91-5.234c1.6-2.299,2.93-4.782,4.536-7.452
		c1.171,1.262,2.216,2.424,3.308,3.543C141.275,131.32,141.334,131.695,141.111,132.236z"/>
	<path fill="#6E9E96" d="M20.308,103.536c-1.155-0.022-2.094-0.994-2.086-2.153c0.008-1.132,1.009-2.105,2.146-2.087
		c1.146,0.021,2.105,1.007,2.089,2.147C22.44,102.579,21.433,103.561,20.308,103.536z"/>
</g>
</svg>
