<?xml version="1.0" encoding="utf-8"?>
<!-- Generator: Adobe Illustrator 16.0.0, SVG Export Plug-In . SVG Version: 6.00 Build 0)  -->
<!DOCTYPE svg PUBLIC "-//W3C//DTD SVG 1.1//EN" "http://www.w3.org/Graphics/SVG/1.1/DTD/svg11.dtd">
<svg version="1.1" id="Capa_1" xmlns="http://www.w3.org/2000/svg" xmlns:xlink="http://www.w3.org/1999/xlink" x="0px" y="0px"
	 width="150px" height="150px" viewBox="0 0 150 150" enable-background="new 0 0 150 150" xml:space="preserve">
<g>
	<path fill="#6E9E96" d="M22.048,3.357c0.044-0.076,0.06-0.157,0.047-0.244c0.563,0,1.125,0,1.688,0
		C23.252,3.538,22.652,3.459,22.048,3.357z"/>
	<path fill="#6E9E96" d="M145.641,91.2c0.754-0.386,1.359-0.906,1.359-1.729c0-0.563,0-1.125,0-1.688
		c-1-1.686-2.064-1.799-4.037-0.645c-2.166,1.269-4.021,2.822-5.479,4.883c-1.851,2.619-2.53,5.475-1.633,8.639
		c0.59,2.074,1.789,3.797,3.144,5.429c1.612,1.947,2.696,4.146,3.108,6.656c0.567,3.483-1.289,7.407-3.838,8.336
		c0-2.454-0.018-4.882,0.008-7.31c0.029-2.928-0.728-5.637-2.137-8.186c-1.82-3.291-4.371-5.956-7.227-8.342
		c-6.328-5.29-13.542-9.159-20.862-12.835c-6.219-3.123-12.479-6.165-18.75-9.183c-1.038-0.5-1.424-0.785-0.604-1.913
		c1.207-1.664,1.986-3.589,2.686-5.531c0.475-1.322,0.086-2.354-1.105-2.966c-4.196-2.154-8.42-4.258-12.647-6.354
		c-1.219-0.604-2.302-0.342-3.046,0.821c-0.654,1.022-1.223,2.099-1.822,3.155c-0.153,0.27-0.23,0.759-0.636,0.557
		c-0.784-0.391-1.706-0.477-2.021-1.668c-1.186-4.47-2.544-8.893-3.792-13.347c-0.291-1.038-0.787-1.823-1.858-2.059
		c-1.097-0.242-1.853,0.361-2.521,1.169c-2.865,3.466-5.754,6.914-8.628,10.372c-1.482,1.783-1.477,1.787-3.837,0.886
		c3.123-3.269,5.049-7.13,5.417-11.607c0.245-2.98,0.178-5.996,0.095-8.991c-0.045-1.617,0.273-2.977,1.272-4.28
		c0.789-1.028,1.376-2.226,1.959-3.395c2.327-4.673,3.456-9.551,1.693-14.647c-2.207-6.378-7.19-9.732-13.393-11.505
		C45.234,3.563,43.922,3,42.629,3c-6.282,0-12.565,0-18.847,0c-0.565,0-1.175,0.127-1.759,0.201
		c-3.649-0.046-6.883,1.273-9.887,3.201c-4.786,3.073-7.884,7.354-8.56,13.076c-0.615,5.198,0.379,10.22,3.451,14.458
		c2.192,3.024,2.971,6.133,2.587,9.698c-0.01,0.093,0.001,0.189-0.001,0.283c-0.167,5.729,1.977,10.489,6.019,14.476
		c1.328,1.31,2.87,2.321,4.489,3.345c-2.676,1.605-5.423,2.838-7.93,4.474c-3.614,2.359-5.495,5.715-5.704,10.086
		c-0.145,3.027,1.025,5.573,2.387,8.104c0.403,0.75,0.742,1.498,0.741,2.383c-0.002,10.17-0.008,20.34,0.006,30.51
		c0.001,0.898-0.468,1.455-1.236,1.928C5.508,120.989,4,123.365,3,126.884c0,1.595,0,3.188,0,4.782c1,1.65,0.818,3.262,1.909,4.634
		c2.3,2.896,5.345,4.435,9.024,4.47c6.263,0.057,12.558,0.01,18.821,0.023c0.479,0,1.023-0.15,1.559,0.253
		c-0.545,0.826-1.195,1.427-1.672,2.218c-0.993,1.65-0.508,2.736,1.269,3.736c5.063,0,10.127,0,15.19,0
		c0.717,0,1.322-0.555,1.837-1.139c4.304-4.877,8.836-9.51,13.26-14.276c3.501-3.772,6.998-7.536,10.547-11.265
		c0.779-0.819,1.33-0.799,2.121-0.151c1.669,1.362,3.402,2.646,5.091,3.983c1.887,1.498,3.836,2.921,5.862,4.613
		c-5.061,0.01-9.877-0.009-14.694,0.008c-5.122,0.02-9.389,3.545-10.362,8.59c-0.483,2.504-0.248,4.975-0.167,7.496
		c0.039,1.201,0.784,2.141,1.977,2.141c18.942,0,37.881,0,56.823,0c1.123,0,2.304-0.105,3.433-0.449
		c8.112-2.471,13.721-9.847,13.786-18.338c0.01-1.254,0.471-1.896,1.554-2.494c3.543-1.955,5.896-4.857,6.601-8.936
		c0.834-4.818-0.524-9.068-3.367-12.938c-0.746-1.02-1.612-1.947-2.209-3.078c-1.239-2.349-1.111-4.367,0.646-6.355
		C142.953,93.143,144.115,91.979,145.641,91.2z M77.055,63.871c0.217-0.445,0.457-0.471,0.861-0.265
		c2.662,1.351,5.324,2.701,8.003,4.017c0.53,0.261,0.485,0.554,0.276,0.972c-0.814,1.633-1.695,3.227-2.939,4.582
		c-1.709,1.861-3.111,2.333-4.792,1.64c-2.118-0.875-3.238-2.611-3.186-5.386C75.374,67.719,76.131,65.772,77.055,63.871z
		 M81.777,86.083c0.795,1.881,0.695,3.667-0.688,5.235c-1.601,1.815-3.771,2.693-5.986,3.477c-0.584,0.206-0.729-0.152-0.869-0.572
		c-0.908-2.746-1.792-5.498-2.743-8.229c-0.21-0.604,0.042-0.711,0.487-0.869c1.859-0.662,3.76-1.1,5.792-1.197
		C79.404,84.02,81.006,84.264,81.777,86.083z M52.57,64.158c1.07-0.443,1.924-1.062,2.66-1.965c2.51-3.082,5.081-6.115,7.792-9.362
		c1.048,3.696,2.071,7.146,2.99,10.625c0.378,1.431,1.067,2.453,2.512,2.911c0.398,0.126,0.753,0.397,1.155,0.5
		c1.108,0.282,1.311,0.855,1.169,2.018c-0.57,4.695,1.641,8.148,6.578,10.434c-1.503,0.4-2.959,0.307-4.305,0.779
		c-6.172,2.17-12.472,3.916-18.741,5.772c-1.889,0.56-3.603,0.14-5.369-0.146c-6.607-1.063-13.201-2.211-19.809-3.273
		c-0.91-0.146-1.268-0.412-1.225-1.387c0.083-1.871,0.074-3.75,0.002-5.624c-0.033-0.847,0.282-1.19,1.036-1.501
		C36.875,70.699,44.713,67.406,52.57,64.158z M20.32,8.188c0.769-0.193,1.563-0.388,2.348-0.4
		c7.345-0.117,14.702-0.687,22.021,0.388c1.577,0.231,3.055,0.858,4.475,1.591c6.065,3.13,8.384,8.711,6.302,15.206
		c-0.603,1.878-1.463,3.639-2.51,5.34c-0.484-0.1-0.566-0.554-0.768-0.875c-1.894-3.009-3.764-6.033-5.661-9.041
		c-1.202-1.906-2.604-2.047-4.23-0.442c-1.368,1.35-2.747,2.69-4.066,4.087c-0.521,0.552-0.823,0.523-1.332-0.012
		c-1.354-1.427-2.759-2.809-4.167-4.185c-1.494-1.459-2.864-1.304-4.063,0.438c-0.742,1.079-1.465,2.171-2.2,3.255
		c-0.02,0.029-0.079,0.031-0.249,0.092c-0.753-1.118-1.514-2.277-2.306-3.414c-1.292-1.855-3.042-1.823-4.242,0.102
		c-1.286,2.064-2.523,4.159-3.786,6.237c-1.238,2.038-2.483,4.073-3.786,6.209C4.686,22.96,8.13,11.26,20.32,8.188z M14.43,44.101
		c-0.218-4.605,0.685-8.601,3.475-12.284c1.513-1.999,2.66-4.274,4.012-6.49c0.849,1.261,1.606,2.441,2.42,3.581
		c1.175,1.646,2.832,1.632,4.006-0.033c0.941-1.336,1.831-2.708,2.869-4.251c1.457,1.479,2.841,2.9,4.244,4.303
		c1.636,1.636,2.615,1.626,4.271-0.017c1.33-1.32,2.657-2.644,3.987-3.964c0.032-0.032,0.077-0.052,0.243-0.161
		c1.423,2.27,2.708,4.643,4.306,6.781c1.835,2.456,2.538,5.064,2.286,8.093c-0.247,2.973,0.231,5.983-0.552,8.942
		c-1.678,6.343-7.185,10.751-13.748,10.747c-3.451-0.002-6.93,0.393-10.346-0.52C19.155,57.026,14.758,51.053,14.43,44.101z
		 M15.359,69.989c3.545-1.991,7.127-3.915,10.673-5.903c0.61-0.343,1.177-0.347,1.853-0.34c5.493,0.057,11.075,0.904,16.306-1.646
		c0.248-0.121,0.259-0.098,1.155,0.165c-3.613,1.511-7.075,2.961-10.539,4.407c-3.146,1.313-6.282,2.649-9.445,3.918
		c-1.302,0.521-1.894,1.361-1.875,2.775c0.045,3.421,0.008,6.843,0.018,10.264c0.005,1.771,0.594,2.482,2.297,2.771
		c5.029,0.849,10.06,1.684,15.09,2.521c0.366,0.063,0.752,0.059,1.135,0.426c-1.604,0.455-3.142,0.903-4.688,1.323
		c-0.666,0.181-1.061,0.368-0.699,1.22c0.452,1.063,0.283,2.717,1.158,3.168c0.733,0.377,2.09-0.436,3.165-0.74
		c8.36-2.37,16.722-4.732,25.07-7.146c0.807-0.233,1.112-0.155,1.371,0.677c0.773,2.498,1.627,4.971,2.483,7.442
		c0.24,0.694,0.172,1.009-0.624,1.285c-12.439,4.321-24.861,8.696-37.296,13.032c-1.915,0.668-3.419,0.091-4.41-1.683
		c-4.332-7.752-8.633-15.521-12.946-23.282c-0.769-1.386-1.565-2.756-2.308-4.153C10.2,76.534,11.456,72.181,15.359,69.989z
		 M54.996,106.956c-0.005-0.524,0.224-0.731,0.68-0.89c2.341-0.803,4.671-1.637,7.01-2.447c0.292-0.102,0.661-0.34,0.905-0.005
		c0.303,0.411-0.131,0.679-0.341,0.95c-2.662,3.44-5.333,6.873-8.244,10.619C55.006,112.186,55.019,109.568,54.996,106.956z
		 M14.5,94.131c0.528,0.229,0.614,0.706,0.809,1.055c2.738,4.895,5.448,9.805,8.185,14.698c2.246,4.017,5.867,5.382,10.231,3.867
		c5.25-1.819,10.495-3.653,15.741-5.483c0.305-0.105,0.586-0.31,1.039-0.166c0,3-0.027,6.034,0.018,9.067
		c0.013,0.847-0.476,0.724-0.985,0.726c-4.639,0.024-9.277,0.051-13.916,0.084c-6.653,0.047-13.306,0.096-19.958,0.158
		c-0.708,0.006-1.196,0.045-1.19-0.977C14.521,109.521,14.5,101.886,14.5,94.131z M38.121,135.893
		c-8.105-0.011-16.211,0.024-24.316-0.026c-3.439-0.022-6-2.765-6.055-6.273c-0.062-3.883,2.229-6.879,5.653-6.903
		c11.894-0.086,23.789-0.032,35.79-0.032c-3.288,4.226-6.595,8.461-9.876,12.717C38.982,135.807,38.617,135.895,38.121,135.893z
		 M133.768,127.512c-0.029,8.803-6.349,15.115-15.17,15.122c-16.594,0.013-33.188-0.012-49.781,0.033
		c-1.205,0.004-1.571-0.331-1.411-1.474c0.084-0.598,0.003-1.217,0.018-1.826c0.08-3.383,2.42-5.721,5.807-5.727
		c10.033-0.017,20.063-0.006,30.094-0.006c2.768-0.001,3.204-0.396,3.487-3.16c0.91-8.847,6.961-15.213,15.949-16.783
		c2.184-0.383,2.184-0.383,2.002-2.659c-0.174-2.148-0.174-2.148-2.164-1.867c-9.885,1.394-17.191,7.87-19.647,17.415
		c-0.656,2.555-0.667,2.41-3.328,2.598c-2.347,0.166-4.151-0.527-5.966-2.017c-4.563-3.742-9.271-7.306-13.953-10.896
		c-0.77-0.591-0.883-0.918-0.15-1.664c1.879-1.918,1.768-1.889-0.146-3.845c-1.046-1.069-1.566-0.929-2.537,0.12
		c-9.549,10.321-19.166,20.581-28.741,30.879c-0.587,0.633-1.155,0.934-2.04,0.904c-2.145-0.07-4.293-0.023-6.734-0.023
		c4.66-5.99,9.141-11.752,13.621-17.514c4.83-6.213,9.637-12.441,14.507-18.623c0.904-1.148,1.323-2.266,0.656-3.6
		c-0.46-0.918-0.03-1.153,0.754-1.463c3.007-1.181,6.181-1.836,9.197-2.973c2.393-0.9,4.525-2.199,6.305-4.081
		c4.16-4.403,2.752-12.905-3.914-14.665c1.387-0.379,2.72-0.697,3.824-1.525c0.397-0.299,0.688-0.125,1.018,0.043
		c10.923,5.623,22.283,10.394,32.787,16.832c3.88,2.38,7.604,4.968,10.791,8.261c3.264,3.373,5.17,7.221,4.912,12.092
		C133.602,119.439,133.781,123.48,133.768,127.512z"/>
	<path fill="#6E9E96" d="M30.401,48.121c0.911-0.11,1.794-0.051,2.471,1.317c0.771,1.556,3.156,1.179,3.754-0.537
		c0.254-0.731,0.57-0.801,1.164-0.786c0.84,0.022,1.691,0.083,2.521-0.014c1.028-0.12,1.017,0.405,0.915,1.146
		c-0.445,3.195-3.481,5.699-6.844,5.62c-3.326-0.078-6.223-2.773-6.528-5.993c-0.067-0.699,0.188-0.787,0.745-0.758
		C29.111,48.141,29.626,48.121,30.401,48.121z"/>
	<path fill="#6E9E96" d="M27.993,38.044c-0.031,1.851-1.608,3.366-3.454,3.317c-1.848-0.048-3.347-1.644-3.281-3.492
		c0.064-1.79,1.592-3.253,3.386-3.244C26.497,34.636,28.024,36.194,27.993,38.044z"/>
	<path fill="#6E9E96" d="M42.645,41.361c-1.846,0.009-3.394-1.541-3.383-3.39c0.009-1.792,1.49-3.301,3.283-3.346
		c1.852-0.046,3.424,1.465,3.452,3.317C46.024,39.791,44.493,41.353,42.645,41.361z"/>
	<path fill="#6E9E96" d="M52.674,72.875c-2.168,0-2.168,0-2.168-2.192c0-2.309,0-2.309,2.333-2.309c2.167,0,2.167,0,2.167,2.192
		C55.006,72.875,55.006,72.875,52.674,72.875z"/>
</g>
</svg>
