<?xml version="1.0" encoding="utf-8"?>
<!-- Generator: Adobe Illustrator 16.0.0, SVG Export Plug-In . SVG Version: 6.00 Build 0)  -->
<!DOCTYPE svg PUBLIC "-//W3C//DTD SVG 1.1//EN" "http://www.w3.org/Graphics/SVG/1.1/DTD/svg11.dtd">
<svg version="1.1" id="Capa_1" xmlns="http://www.w3.org/2000/svg" xmlns:xlink="http://www.w3.org/1999/xlink" x="0px" y="0px"
	 width="150px" height="150px" viewBox="0 0 150 150" enable-background="new 0 0 150 150" xml:space="preserve">
<g>
	<path fill-rule="evenodd" clip-rule="evenodd" d="M147.651,136.526c-0.126-9.486-2.947-18.111-8.435-25.845
		c-0.723-1.019-1.207-2.038-1.41-3.284c-0.664-4.063-1.697-8.103-0.086-12.186c0.21-0.53,0.223-1.146,0.29-1.726
		c0.552-4.722,0.173-9.461,0.262-14.192c0.014-0.72,0.172-1.286,0.64-1.855c1.724-2.101,2.936-4.48,3.502-7.145
		c1.182-5.559,0.232-11.186,0.633-16.886c-1.065,0.196-1.959,0.385-2.859,0.521c-6.953,1.051-12.188,4.45-15.034,11.059
		c-0.3,0.696-0.745,0.637-1.274,0.637c-2.49,0-4.982-0.07-7.469,0.028c-1.338,0.054-1.38-0.325-0.945-1.432
		c2.135-5.431,3.368-11.072,3.834-16.893c0.442-5.511,0.191-11.028,0.224-16.542c0.03-5.291-3.792-9.427-8.8-9.678
		c-5.234-0.262-9.389,3.434-9.906,8.849c-0.051,0.534-0.147,0.858-0.695,1.108c-2.537,1.159-3.932,3.183-3.993,5.959
		c-0.063,2.853,1.339,4.924,3.868,6.203c0.556,0.281,0.799,0.571,0.732,1.225c-0.34,3.318-1.095,6.524-2.383,9.607
		c-0.262,0.629-0.528,0.708-1.197,0.531c-1.599-0.422-3.249-0.645-4.859-1.028c-0.731-0.175-0.902-0.021-0.893,0.723
		c0.039,2.929-0.011,5.858,0.035,8.787c0.012,0.754-0.212,1.258-0.773,1.758c-4.17,3.717-8.973,6.144-14.45,7.249
		c-4.547,0.918-9.147,0.479-13.726,0.565c-1.458,0.028-3.342,0.479-4.257-0.244c-0.912-0.721-0.802-2.686-1.236-4.076
		c-0.267-0.854-0.14-1.225,0.765-1.611c5.24-2.24,8.533-6.188,9.819-11.738c0.191-0.825,0.435-1.041,1.269-1.13
		c6.685-0.716,10.424-7.565,7.426-13.561c-0.308-0.617-0.319-1.135-0.17-1.795c0.842-3.722,1.307-7.49,1.248-11.317
		C77.143,13.751,65.954,2.53,52.525,2.364c-5.809-0.072-11.62-0.058-17.429-0.007C28.2,2.417,22.564,7.223,21.353,14.005
		c-0.127,0.712-0.419,1.208-0.996,1.678c-2.433,1.981-3.771,4.59-3.905,7.714c-0.22,5.134,0.01,10.249,1.254,15.265
		c0.143,0.575,0.076,1.007-0.17,1.516C14.5,46.438,18.18,53.11,25.093,53.87c0.596,0.065,0.889,0.13,1.044,0.845
		c1.249,5.74,4.596,9.79,10.027,12.061c0.682,0.284,0.896,0.581,0.691,1.289c-0.379,1.31-0.765,2.623-1.012,3.96
		c-0.143,0.772-0.527,1.029-1.217,1.188C15.146,77.677,2.357,93.72,2.351,113.687c-0.003,10.839,0.023,21.678-0.033,32.516
		c-0.007,1.242,0.321,1.484,1.513,1.482c22.458-0.04,44.917-0.041,67.375,0.002c1.234,0.003,1.491-0.308,1.487-1.507
		c-0.047-14.013-0.015-28.024-0.058-42.036c-0.003-1.145,0.232-1.66,1.434-1.962c3.307-0.831,6.482-2.081,9.57-3.534
		c4.375-2.058,8.446-4.614,12.458-7.767c0.279,2.496,0.429,4.752,1.156,6.881c0.509,1.49,0.485,2.923,0.146,4.426
		c-0.3,1.329-0.524,2.682-0.675,4.036c-0.209,1.874-0.828,3.489-1.952,5.069c-3.69,5.185-6.018,10.975-7.247,17.231
		c-1.199,6.103-0.648,12.26-0.814,18.396c-0.023,0.903,0.531,0.733,1.042,0.733c19.626,0.001,39.253-0.004,58.878,0.019
		c0.821,0.001,1.063-0.207,1.051-1.041C147.633,143.264,147.696,139.894,147.651,136.526z M138.32,59.144
		c-0.259,4.279,0.66,8.535-1.404,12.709c-1.693-2.823-4.01-4.785-7.172-5.748C131.684,62.485,134.397,60.18,138.32,59.144z
		 M126.635,70.327c3.654,0.024,6.845,2.846,6.899,6.418c0.085,5.552,0.375,11.117-0.239,16.66c-0.144,1.301-0.407,2.592-0.942,3.995
		c-0.979-1.692-1.894-3.275-3.258-4.509c-0.612-0.554-1.223-1.144-1.928-1.559c-1.634-0.964-3.104-1.753-3.438-4.086
		c-0.265-1.85-2.13-2.809-4.128-2.861c-1.561-0.042-3.121-0.034-4.682-0.005c-2.611,0.049-4.504,1.822-4.748,4.415
		c-0.044,0.462,0.045,0.865-0.535,1.207c-4.721,2.779-4.998,3.077-7.625,7.385c-0.763-2.304-1.149-4.512-1.182-6.754
		c-0.064-4.438-0.068-8.876-0.029-13.313c0.035-3.912,3.059-6.965,6.959-6.993C114.051,70.281,120.344,70.283,126.635,70.327z
		 M123.808,117.223c-0.351-0.874,0.389-0.746,0.731-0.879c3.957-1.529,6.684-4.271,8.205-8.222c0.177-0.188,0.346-0.19,0.506,0.021
		c1.589,5.599-2.666,11.882-8.392,13.312c-0.265,0.066-0.54,0.095-0.982,0.171C124.361,120.057,124.363,118.606,123.808,117.223z
		 M119.344,112.483c-2.284-0.018-4.586,0.271-6.853-0.249c-3.696-0.849-6.481-3.952-6.967-7.755
		c-0.467-3.649,1.649-7.889,4.712-9.585c0.604-0.335,0.817-0.175,1.113,0.329c0.475,0.809,1.091,1.64,1.939,1.935
		c1.627,0.566,1.607,1.729,1.579,3.086c-0.06,2.879-0.022,3.026-2.848,2.901c-1.479-0.066-1.978,0.313-1.899,1.882
		c0.145,2.873,0.041,2.973,2.871,2.973c1.415,0,2.83,0,4.244,0c2,0,4.001-0.117,6-0.082c0.702,0.014,1.076-0.138,1.006-0.978
		c-0.099-1.205,0.356-2.766-0.233-3.558c-0.558-0.749-2.188-0.271-3.333-0.215c-1.033,0.051-1.256-0.359-1.146-1.248
		c0.048-0.385,0.049-0.788,0.002-1.172c-0.211-1.684-0.049-3.124,1.873-3.805c0.499-0.178,0.993-0.711,1.236-1.206
		c0.666-1.355,1.35-1.039,2.303-0.297c3.359,2.614,4.786,6.938,3.488,10.823C127.133,110.148,123.736,112.518,119.344,112.483z
		 M119.531,119.479c0.029,1.315-1.08,2.422-2.396,2.388c-1.264-0.032-2.289-1.097-2.277-2.36c0.014-1.266,1.057-2.306,2.322-2.313
		C118.442,117.185,119.502,118.215,119.531,119.479z M110.457,121.416c-5.56,0.296-10.598-6.954-9.225-13.308
		c0.62,0.12,0.604,0.581,0.755,0.904c1.62,3.47,4.198,5.938,7.788,7.266c0.848,0.313,0.979,0.626,0.678,1.416
		C109.99,118.912,110.095,120.173,110.457,121.416z M114.88,89.279c0.08-0.125,0.321-0.205,0.488-0.208
		c1.211-0.018,2.423-0.04,3.633,0.005c0.548,0.02,0.546,0.088,0.537,1.631c-0.012,2.137-1.263,3.415-2.913,2.978
		C115.222,93.313,114.096,90.5,114.88,89.279z M100.869,36.647c0.27-0.917,0.941-1.435,1.943-1.494
		c0.859-0.051,2.066,0.398,2.486-0.208c0.438-0.634,0.154-1.771,0.174-2.689c0.016-0.731-0.033-1.466,0.025-2.193
		c0.191-2.375,2.207-4.241,4.58-4.279c2.367-0.038,4.658,1.76,4.711,4.113c0.26,11.653,0.574,23.331-4.355,34.33
		c-0.211,0.47-0.265,1.036-0.722,1.372c-0.358-0.11-0.377-0.431-0.49-0.692c-1.326-3.066-3.302-5.625-6.065-7.513
		c-0.722-0.493-0.746-0.888-0.432-1.633c1.857-4.405,2.736-9.011,2.773-13.795c0.008-0.898-0.204-1.438-1.062-1.783
		c-0.899-0.362-1.771-0.81-2.61-1.297C100.986,38.396,100.59,37.599,100.869,36.647z M61.805,77.392
		c-1.282,2.566-2.532,5.059-3.77,7.557c-0.268,0.54-0.524,0.226-0.783,0.02c-1.977-1.576-3.95-3.154-5.954-4.756
		C55.834,77.425,56.734,77.181,61.805,77.392z M46.903,76.799c-1.911,0.004-3.804-1.715-5.748-2.583
		c-0.739-0.33-0.902-0.712-0.701-1.437c0.364-1.309,0.726-2.622,0.992-3.953c0.147-0.733,0.496-0.896,1.18-0.873
		c1.458,0.049,2.919,0.015,4.379,0.015c0.146,0,0.292-0.005,0.438,0.001c1.549,0.064,3.617-0.647,4.511,0.251
		c1.003,1.008,0.922,3.071,1.376,4.657c0.208,0.726-0.055,1.018-0.686,1.312C50.713,75.089,48.816,76.795,46.903,76.799z
		 M68.838,49.164c-0.767,0.143-0.901-0.144-0.877-0.828c0.047-1.313,0.014-2.63,0.014-3.946c0-1.266,0.038-2.534-0.015-3.799
		c-0.03-0.72,0.271-0.794,0.864-0.693c2.083,0.353,3.801,2.377,3.834,4.551C72.692,46.692,70.982,48.767,68.838,49.164z
		 M24.837,49.142c-2.124-0.469-3.743-2.439-3.733-4.635c0.009-2.199,1.66-4.183,3.776-4.599c0.695-0.137,0.955,0.016,0.923,0.771
		c-0.055,1.313-0.015,2.631-0.015,3.946c0,1.219-0.041,2.439,0.015,3.654C25.838,49.047,25.657,49.322,24.837,49.142z
		 M28.369,25.581c-2.025,2.444-2.748,5.317-2.569,8.438c0.046,0.806-0.069,1.329-1.045,1.195c-0.182-0.025-0.38,0.066-0.57,0.108
		c-0.734,0.161-1.7,0.686-2.146,0.399c-0.637-0.41-0.442-1.518-0.547-2.322c-0.277-2.123-0.481-4.258-0.39-6.408
		c0.1-1.736-0.271-3.513,0.415-5.201c0.146-0.359,0.316-0.713,0.519-1.042c0.876-1.417,0.997-1.427,2.176-0.25
		c1.31,1.307,2.616,2.617,3.929,3.92C28.483,24.758,28.852,24.998,28.369,25.581z M26.497,16.156
		c-0.503-0.49-0.665-0.929-0.511-1.66c0.883-4.171,4.535-7.384,8.804-7.437c6.052-0.075,12.108-0.136,18.157,0.013
		c10.378,0.255,19.259,9.149,19.695,19.541c0.119,2.841-0.188,5.652-0.605,8.455c-0.09,0.603-0.226,0.94-1.003,0.672
		c-0.95-0.328-2.343-0.143-2.852-0.755c-0.519-0.625-0.141-1.954-0.252-2.963c-0.392-3.577-3.692-6.186-7.424-6.239
		C58.3,25.75,58,25.75,58,23.59c0-0.83,0-1.66,0-2.489c0-0.391,0-0.781,0-1.171c0-3.564,0.3-3.527-3.208-3.548
		c-0.945-0.006-1.083,0.224-1.053,1.193c0.074,2.39,0.065,4.784,0.119,7.174c0.018,0.822-0.172,1.045-1.004,1.055
		c-3.666,0.042-3.646,0.072-3.646-3.537c0-1.659-0.024-3.32,0.025-4.978c0.021-0.703-0.189-0.877-0.889-0.903
		c-3.811-0.145-3.807-0.167-3.807,3.684c0,1.611-0.034,3.223,0.017,4.832c0.021,0.705-0.194,0.878-0.894,0.901
		c-3.08,0.099-3.808-0.573-3.808-3.673c0-1.61-0.032-3.222,0.015-4.832c0.021-0.69-0.172-0.885-0.885-0.912
		c-3.801-0.149-3.785-0.172-3.837,3.675c-0.007,0.48,0.422,1.247-0.545,1.385c-0.937,0.134-1.758,1.228-2.84,0.007
		C30.109,19.594,28.281,17.892,26.497,16.156z M30.507,51.977c-0.086-6.443-0.073-12.889-0.006-19.333
		c0.03-2.893,1.549-4.949,4.117-6.247c0.627-0.317,1.022-0.385,1.467,0.417c1.367,2.467,3.562,3.65,6.38,3.652
		c5.908,0.005,11.815-0.001,17.723,0.003c2.315,0.001,3.093,0.765,3.098,3.042c0.007,3.076,0.002,6.152,0.002,9.898
		c-0.171,2.983,0.381,6.666-0.252,10.292c-0.967,5.539-5.689,9.537-11.317,9.549c-3.946,0.008-7.923,0.431-11.837-0.253
		C34.585,62.071,30.579,57.354,30.507,51.977z M33.34,78.288c2.234-0.729,4.402-1.089,6.499,0.474
		c0.76,0.566,1.705,0.883,2.708,1.385c-2.067,1.651-4.055,3.214-6.009,4.818c-0.514,0.422-0.699,0.248-0.942-0.248
		c-0.897-1.835-1.8-3.669-2.754-5.476C32.493,78.578,32.825,78.456,33.34,78.288z M20.062,142.986
		c-4.002-0.041-8.006-0.044-12.008,0.002c-0.848,0.009-1.043-0.251-1.034-1.061c0.042-3.563,0.019-7.127,0.019-10.69
		c0-3.515,0.019-7.03-0.015-10.545c-0.007-0.792,0.041-1.208,1.054-1.19c4.002,0.069,8.006,0.054,12.008,0.008
		c0.847-0.009,1.036,0.252,1.033,1.061c-0.03,7.127-0.032,14.255,0.002,21.382C21.124,142.797,20.872,142.994,20.062,142.986z
		 M89.743,89.773c-5.171,3.477-10.71,6.147-16.724,7.81c-0.083,0.022-0.186-0.03-0.356-0.063c0-1.69-0.048-3.397,0.02-5.1
		c0.034-0.85-0.252-1.027-1.059-1.036c-3.649-0.039-3.648-0.066-3.648,3.551c0,15.521-0.016,31.042,0.03,46.563
		c0.004,1.212-0.273,1.505-1.494,1.5c-13.081-0.051-26.162-0.049-39.242-0.002c-1.189,0.005-1.52-0.235-1.515-1.48
		c0.053-13.08,0.017-26.161,0.061-39.241c0.004-1.166-0.192-1.571-1.467-1.531c-3.246,0.103-3.249,0.03-3.249,3.233
		c0,3.27-0.023,6.54,0.017,9.811c0.01,0.786-0.144,1.087-1.016,1.076c-4.002-0.049-8.005-0.041-12.007-0.005
		c-0.783,0.007-1.085-0.139-1.076-1.014c0.162-14.957,6.853-25.954,19.949-33.121c0.893-0.488,1.269-0.383,1.715,0.541
		c1.837,3.806,3.755,7.571,5.684,11.431c3.829-3.061,7.598-5.998,11.267-9.057c1.015-0.847,1.6-0.726,2.542,0.052
		c3.648,3.009,7.371,5.928,11.211,8.996c0.392-0.772,0.757-1.482,1.113-2.196c2.023-4.048,4.066-8.087,6.048-12.155
		c0.377-0.774,0.822-1.042,1.672-1.01c5.072,0.191,10.021-0.475,14.761-2.356c0.695-0.276,0.895-0.045,1.148,0.532
		c1.919,4.362,3.865,8.714,5.81,13.066C90.143,89.024,90.346,89.368,89.743,89.773z M94.092,86.314
		c-0.564-1.239-1.165-2.529-1.742-3.829c-1.304-2.931-2.549-5.889-3.92-8.786c-0.443-0.936-0.256-1.353,0.587-1.815
		c0.968-0.531,1.854-1.211,2.838-1.867c0.75,2.927,1.941,5.506,3.848,7.715c0.353,0.408,0.411,0.847,0.403,1.348
		c-0.019,1.121-0.113,2.257,0.02,3.362C96.333,84.178,95.839,85.481,94.092,86.314z M97.59,71.723
		c-1.768-2.732-1.531-5.366-1.438-12.497c3.739,0.886,6.659,3.273,8.423,6.879C101.559,67.096,99.195,68.93,97.59,71.723z
		 M142.996,142.153c-0.011,0.801-0.354,0.838-0.967,0.824c-1.414-0.031-2.83-0.01-4.244-0.01c-14.932,0-29.861-0.022-44.793,0.037
		c-1.396,0.006-1.582-0.432-1.613-1.681c-0.175-6.887,0.409-13.631,3.208-20.037c0.741-1.695,1.531-3.361,2.63-5.166
		c1.187,2.729,2.745,4.938,4.899,6.692c2.936,2.391,6.297,3.705,10.081,3.722c3.947,0.017,7.92,0.354,11.842-0.169
		c5.961-0.794,10.176-4.113,12.783-9.506c0.083-0.17,0.18-0.333,0.344-0.637c1.006,1.415,1.688,2.875,2.309,4.356
		c0.619,1.479,1.201,2.978,1.704,4.499C143.014,130.636,143.073,136.386,142.996,142.153z"/>
	<path fill-rule="evenodd" clip-rule="evenodd" fill="#8C8C8C" d="M133.25,108.143c-0.168-0.007-0.337-0.014-0.506-0.021
		c-0.057-0.302,0.037-0.634,0.334-0.609C133.435,107.542,133.285,107.899,133.25,108.143z"/>
	<path fill-rule="evenodd" clip-rule="evenodd" d="M45.283,58.593c-1.514,0-3.028-0.033-4.541,0.016
		c-0.689,0.021-0.886-0.17-0.914-0.884c-0.15-3.82-0.174-3.819,3.678-3.819c1.807,0,3.613,0.013,5.42-0.003
		c2.548-0.021,4.347-1.342,4.864-3.778c0.183-0.859,0.523-0.977,1.233-0.915c0.533,0.046,1.074,0.009,1.61,0.009
		c2.181,0,2.181,0,1.702,2.104c-0.941,4.133-4.566,7.135-8.805,7.258c-1.415,0.04-2.832,0.006-4.248,0.006
		C45.283,58.588,45.283,58.591,45.283,58.593z"/>
	<path fill-rule="evenodd" clip-rule="evenodd" fill="#030303" d="M37.459,39.836c-1.263-0.026-2.295-1.085-2.289-2.348
		c0.007-1.322,1.14-2.396,2.455-2.326c1.261,0.066,2.264,1.161,2.218,2.419C39.797,38.841,38.718,39.862,37.459,39.836z"/>
	<path fill-rule="evenodd" clip-rule="evenodd" fill="#030303" d="M56.326,35.162c1.264,0.039,2.286,1.107,2.267,2.37
		c-0.02,1.317-1.169,2.385-2.48,2.302c-1.259-0.08-2.252-1.186-2.193-2.442C53.98,36.128,55.065,35.123,56.326,35.162z"/>
	<path fill-rule="evenodd" clip-rule="evenodd" fill="#030303" d="M107.867,79.693c1.263,0.027,2.293,1.085,2.287,2.349
		c-0.006,1.316-1.146,2.395-2.457,2.325c-1.262-0.068-2.262-1.162-2.215-2.422C105.53,80.68,106.604,79.666,107.867,79.693z"/>
	<path fill-rule="evenodd" clip-rule="evenodd" fill="#030303" d="M128.904,82.093c-0.033,1.26-1.104,2.289-2.363,2.274
		c-1.32-0.016-2.385-1.158-2.307-2.474c0.075-1.262,1.176-2.256,2.434-2.2C127.93,79.749,128.939,80.832,128.904,82.093z"/>
</g>
</svg>
