<?xml version="1.0" encoding="utf-8"?>
<!-- Generator: Adobe Illustrator 16.0.0, SVG Export Plug-In . SVG Version: 6.00 Build 0)  -->
<!DOCTYPE svg PUBLIC "-//W3C//DTD SVG 1.1//EN" "http://www.w3.org/Graphics/SVG/1.1/DTD/svg11.dtd">
<svg version="1.1" id="Capa_1" xmlns="http://www.w3.org/2000/svg" xmlns:xlink="http://www.w3.org/1999/xlink" x="0px" y="0px"
	 width="150px" height="150px" viewBox="0 0 150 150" enable-background="new 0 0 150 150" xml:space="preserve">
<g>
	<path fill="#6E9E96" d="M50.828,37.039c0,1.273,0.006,2.546,0,3.819c-0.012,2.33-0.757,3.092-3.049,3.105
		c-1.665,0.009-3.331,0.047-4.993-0.017c-0.873-0.033-1.208,0.174-1.165,1.124c0.082,1.808,0.043,3.622,0.018,5.434
		c-0.025,1.76-0.861,2.6-2.623,2.614c-2.839,0.022-5.679,0.021-8.519,0c-1.822-0.013-2.638-0.861-2.658-2.733
		c-0.02-1.811-0.04-3.624,0.013-5.434c0.022-0.768-0.201-1.025-0.984-1.002c-1.81,0.052-3.623,0.035-5.434,0.011
		c-1.941-0.026-2.755-0.844-2.768-2.786c-0.019-2.741-0.018-5.483,0-8.225c0.013-2.044,0.781-2.783,2.869-2.797
		c1.567-0.011,3.139-0.085,4.699,0.023c1.238,0.086,1.758-0.174,1.636-1.561c-0.146-1.652-0.06-3.327-0.026-4.991
		c0.033-1.651,0.901-2.532,2.557-2.55c2.888-0.033,5.777-0.032,8.666,0c1.715,0.019,2.552,0.913,2.573,2.68
		c0.021,1.762,0.058,3.527-0.017,5.286c-0.041,0.935,0.274,1.164,1.165,1.131c1.809-0.067,3.622-0.04,5.434-0.013
		c1.773,0.027,2.566,0.83,2.602,2.624C50.85,34.199,50.828,35.619,50.828,37.039z"/>
	<path fill="#6E9E96" d="M121.124,83.066c1.125,0.002,2.251-0.041,3.373,0.014c1.315,0.064,2.243,1.021,2.265,2.23
		c0.021,1.213-0.859,2.252-2.188,2.299c-2.345,0.082-4.694,0.084-7.038,0.011c-1.419-0.045-2.309-1.093-2.25-2.38
		c0.058-1.229,0.963-2.11,2.318-2.164C118.775,83.029,119.951,83.066,121.124,83.066z"/>
	<path fill="#6E9E96" d="M137.145,83.064c1.123,0,2.25-0.037,3.373,0.01c1.383,0.056,2.256,0.9,2.314,2.152
		c0.063,1.314-0.801,2.348-2.223,2.396c-2.297,0.079-4.599,0.069-6.896,0.007c-1.418-0.04-2.368-1.061-2.354-2.307
		c0.018-1.245,1.009-2.176,2.408-2.26c0.099-0.006,0.195-0.006,0.293-0.006c1.027-0.002,2.055-0.002,3.082-0.002
		C137.145,83.061,137.145,83.063,137.145,83.064z"/>
	<path fill="#6E9E96" d="M131.338,93.381c0,1.174,0.043,2.348-0.012,3.518c-0.061,1.303-1.041,2.25-2.232,2.266
		c-1.197,0.014-2.234-0.906-2.271-2.215c-0.066-2.344-0.066-4.691-0.007-7.034c0.037-1.36,0.982-2.222,2.229-2.233
		c1.3-0.013,2.231,0.903,2.29,2.33c0.045,1.121,0.01,2.247,0.01,3.37C131.342,93.381,131.34,93.381,131.338,93.381z"/>
	<path fill="#6E9E96" d="M131.34,77.339c0.002,1.125,0.039,2.251-0.008,3.373c-0.059,1.397-1.043,2.362-2.303,2.341
		c-1.211-0.021-2.18-0.93-2.213-2.271c-0.06-2.345-0.063-4.694,0.008-7.039c0.04-1.351,1.014-2.181,2.283-2.162
		c1.263,0.019,2.158,0.879,2.22,2.238C131.381,74.99,131.338,76.165,131.34,77.339z"/>
	<path fill="#6E9E96" d="M16.35,11.697c-1.302,0.005-2.351-1.048-2.314-2.328c0.035-1.23,1.041-2.199,2.288-2.204
		c1.295-0.005,2.363,1.063,2.326,2.326C18.614,10.701,17.581,11.691,16.35,11.697z"/>
	<path fill="#6E9E96" d="M41.639,76.135c0.006,1.301-1.035,2.307-2.353,2.278c-1.23-0.027-2.241-1.039-2.249-2.251
		c-0.009-1.269,1.075-2.312,2.37-2.283C40.65,73.907,41.633,74.9,41.639,76.135z"/>
	<path fill="#6E9E96" d="M134.787,35.282c-2.583-1.048-5.129-2.224-7.783-3.048c-3.791-1.177-6.84-3.186-8.928-6.615
		c-0.557-0.912-1.328-1.694-2.016-2.524c-4.26-5.151-9.74-7.716-16.418-7.733c-3.771-0.009-7.543-0.029-11.314,0.019
		c-0.917,0.012-1.533-0.219-2.102-0.982c-1.347-1.806-2.763-3.561-4.215-5.282c-2.22-2.628-5.675-2.573-7.833,0.119
		c-1.288,1.605-1.742,3.454-1.472,5.511c1.273,9.718,2.098,19.471,2.27,29.277c0.02,1.132-0.229,2.058-0.822,3.017
		c-9.262,14.995-18.494,30.008-27.73,45.018c-5.131,8.338-10.257,16.682-15.394,25.018c-0.313,0.509-0.491,1.152-1.387,1.02
		c-5.455-0.818-10.696-3.835-12.325-10.021c-0.414-1.573-0.533-3.18-0.625-4.795c-0.071-1.262-1-2.164-2.176-2.146
		c-1.209,0.02-2.044,0.618-2.306,1.852c-0.091,0.43-0.134,0.873-0.149,1.313c-0.16,4.49,0.303,8.914,1.683,13.196
		c2.843,8.821,8.503,14.821,17.885,16.183c4.115,0.598,7.415,2.158,10.437,4.752c0.482,0.413,1.032,0.747,1.522,1.152
		c2.842,2.354,6.095,3.324,9.787,3.304c12.05-0.067,24.101-0.024,36.149-0.026c0.686,0,1.373,0.027,2.057-0.019
		c1.5-0.103,2.313-0.957,2.33-2.462c0.023-1.893-0.426-3.693-1.197-5.409c-1.336-2.965-3.477-5.174-6.363-6.669
		c-0.373-0.193-1.119-0.283-0.393-0.968c3.34-3.14,6.104-6.726,8.486-10.738c0.246,1.731,0.494,3.464,0.742,5.194
		c0.895,6.252,1.793,12.504,2.684,18.757c0.188,1.32,0.832,2.267,2.238,2.276c5.779,0.039,11.559,0.039,17.338-0.006
		c1.309-0.01,2.078-0.842,2.158-2.146c0.069-1.171,0.061-2.354-0.004-3.523c-0.256-4.557-3.107-8.332-7.463-9.74
		c-0.916-0.297-1.212-0.684-1.252-1.604c-0.236-5.284-0.49-10.567-0.82-15.847c-0.801-12.805-1.004-25.645-2.51-38.403
		c-0.43-3.64,0.645-6.884,3.123-9.609c1.021-1.122,2.189-2.114,3.17-3.269c0.996-1.173,2.116-1.574,3.68-1.574
		c7.99,0,14.303-4.567,16.947-12.116c0.694-1.985,1.342-3.986,1.994-5.986C137.113,37.026,136.682,36.051,134.787,35.282z
		 M71.715,59.697c1.877-2.92,3.684-5.887,5.467-8.866c0.443-0.741,0.805-0.853,1.619-0.486c8.334,3.747,16.688,7.453,25.051,11.135
		c0.818,0.361,1.113,0.597,0.633,1.552c-1.711,3.404-1.834,7.044-1.344,10.75c0.17,1.29,0.269,2.59,0.424,4.134
		c-2.932-1.525-5.649-2.933-8.362-4.353C87.537,69.549,79.887,65.51,72.2,61.538C71.178,61.01,71.123,60.619,71.715,59.697z
		 M109.256,131.473c3.217,0.404,5.492,2.657,5.792,5.682c0.077,0.775-0.045,1.164-0.97,1.152c-3.624-0.046-7.249-0.056-10.873,0.004
		c-0.984,0.018-1.105-0.498-1.211-1.235c-1.484-10.519-2.932-21.043-4.503-31.548c-0.562-3.756-0.55-7.647-2.229-11.182
		c-3.041-6.402-8.104-9.873-15.184-10.347c-6.956-0.467-12.703,1.782-16.807,7.618c-1.051,1.494-1.777,3.15-2.289,4.9
		c-0.494,1.689,0.039,2.957,1.394,3.35c1.374,0.396,2.448-0.327,3.01-2.027c2.95-8.93,13.912-12.415,21.515-6.813
		c3.363,2.479,4.893,5.884,5.313,10.029c1.149,11.344-4.485,19.226-12.823,25.793c-0.943,0.742-1.714,1.487-1.399,2.803
		c0.335,1.406,1.399,1.722,2.668,1.813c3.698,0.271,6.294,2.144,7.907,5.474c0.547,1.129,0.281,1.375-0.928,1.371
		c-11.607-0.037-23.216-0.028-34.824-0.019c-2.185,0.003-4.134-0.603-5.872-1.944c-1.86-1.438-3.775-2.803-5.631-4.244
		c-1.995-1.549-4.216-2.358-6.745-2.578c-6.664-0.573-11.796-3.601-14.922-9.674c-0.106-0.207-0.19-0.426-0.285-0.639
		c3.381,1.95,6.95,3.021,10.729,3.561c1.889,0.271,3.093-0.319,4.114-1.988c11.165-18.246,22.402-36.447,33.571-54.691
		c0.67-1.096,1.109-1.18,2.222-0.589C80.891,71.28,91.813,77,102.754,82.686c0.947,0.491,1.346,1.031,1.398,2.098
		c0.593,11.837,1.231,23.671,1.854,35.506c0.145,2.738,0.256,5.479,0.412,8.217C106.54,130.65,107.086,131.198,109.256,131.473z
		 M131.279,40.138c-0.543,1.361-0.883,2.806-1.459,4.152c-2.188,5.125-6.092,8.162-11.662,8.093
		c-3.471-0.043-5.926,0.965-8.125,3.552c-2.045,2.407-2.209,2.283-5.152,0.975c-8.047-3.573-16.082-7.17-24.143-10.713
		c-0.84-0.369-1.176-0.8-1.186-1.726c-0.104-10.05-0.974-20.046-2.229-30.012c-0.025-0.194-0.046-0.389-0.089-0.759
		c0.024-0.168,0.041-0.513,0.131-0.838c0.104-0.375,0.244-0.797,0.65-0.917c0.494-0.146,0.645,0.354,0.871,0.635
		c1.574,1.939,3.174,3.86,4.676,5.854c0.853,1.133,1.873,1.564,3.271,1.546c4.261-0.054,8.522-0.018,12.783-0.02
		c5.338-0.003,9.68,2.086,13.036,6.222c1.514,1.863,3.07,3.696,4.479,5.636c1.083,1.492,2.432,2.436,4.153,3.067
		c3.122,1.144,6.17,2.489,9.282,3.66C131.486,38.893,131.623,39.275,131.279,40.138z"/>
	<path fill="#6E9E96" d="M15.26,62.351c-4.42-0.055-8.057,3.527-8.095,7.974c-0.039,4.464,3.5,8.065,7.951,8.093
		c4.481,0.025,8.06-3.487,8.097-7.949C23.249,66.014,19.715,62.406,15.26,62.351z M15.227,73.842
		c-1.866,0.023-3.469-1.54-3.494-3.409c-0.024-1.856,1.553-3.466,3.417-3.488c1.861-0.021,3.47,1.548,3.497,3.412
		C18.673,72.21,17.096,73.817,15.227,73.842z"/>
	<path fill="#6E9E96" d="M105.954,34.846c-0.022-1.617,1.252-2.917,2.843-2.901c1.514,0.015,2.797,1.289,2.826,2.804
		c0.031,1.59-1.266,2.883-2.877,2.869C107.164,37.604,105.977,36.424,105.954,34.846z"/>
</g>
</svg>
