<?xml version="1.0" encoding="utf-8"?>
<!-- Generator: Adobe Illustrator 16.0.0, SVG Export Plug-In . SVG Version: 6.00 Build 0)  -->
<!DOCTYPE svg PUBLIC "-//W3C//DTD SVG 1.1//EN" "http://www.w3.org/Graphics/SVG/1.1/DTD/svg11.dtd">
<svg version="1.1" id="Capa_1" xmlns="http://www.w3.org/2000/svg" xmlns:xlink="http://www.w3.org/1999/xlink" x="0px" y="0px"
	 width="50px" height="50px" viewBox="0 0 50 50" enable-background="new 0 0 50 50" xml:space="preserve">
<g>
	<path fill-rule="evenodd" clip-rule="evenodd" fill="#BDBDBD" d="M31.883,37.939c-0.135,1.342-0.106,2.727-0.444,4.017
		c-0.489,1.871-1.315,2.16-3.132,1.535c-2.12-0.729-4.244-1.458-6.401-2.064c-0.564-0.157-1.386-0.049-1.865,0.272
		c-1.159,0.777-2.241,1.692-3.254,2.658c-1.791,1.705-3.777,2.153-6.075,1.229c-2.334-0.94-3.889-2.612-4.048-5.136
		c-0.103-1.632,0.035-3.393,0.557-4.929c2.498-7.357,7.368-12.27,15.184-13.755c1.602-0.305,3.355-0.206,4.977,0.072
		c2.536,0.436,3.616,1.826,3.773,4.413c0.237,3.888,0.417,7.78,0.62,11.671C31.811,37.929,31.846,37.935,31.883,37.939z"/>
	<path fill-rule="evenodd" clip-rule="evenodd" fill="#BDBDBD" d="M29.047,7.505c-0.303,2.535-1.099,5.453-2.505,8.177
		c-0.665,1.288-2.938,2.155-4.394,1.808c-1.032-0.246-1.819-1.467-1.832-3.206c-0.02-2.812,0.496-5.561,2.142-7.878
		c0.685-0.963,1.834-1.803,2.95-2.208C27.68,3.371,29.102,4.575,29.047,7.505z"/>
	<path fill-rule="evenodd" clip-rule="evenodd" fill="#BDBDBD" d="M39.445,10.112c-0.283,3.022-1.492,6.021-3.994,8.298
		c-0.812,0.738-2.171,1.191-3.286,1.205c-1.977,0.026-3.099-1.592-2.68-3.519c0.628-2.885,1.966-5.439,4.021-7.553
		c0.633-0.65,1.519-1.17,2.386-1.454C38.024,6.394,39.483,7.556,39.445,10.112z"/>
	<path fill-rule="evenodd" clip-rule="evenodd" fill="#BDBDBD" d="M10.207,15.473c0.295-1.084,0.552-2.514,1.079-3.836
		c0.531-1.329,1.622-2.174,3.104-2.348c1.76-0.206,2.964,0.579,3.26,2.317c0.484,2.843-0.117,5.516-1.768,7.883
		c-0.667,0.957-1.642,1.595-2.928,1.336c-1.261-0.255-1.939-1.134-2.229-2.309C10.51,17.644,10.417,16.739,10.207,15.473z"/>
	<path fill-rule="evenodd" clip-rule="evenodd" fill="#BDBDBD" d="M40.659,19.599c1.808-0.009,2.85,0.905,2.694,2.272
		c-0.296,2.623-1.35,4.876-3.805,6.193c-0.543,0.292-1.186,0.483-1.8,0.541c-2.476,0.234-3.497-1.112-2.597-3.402
		c0.798-2.029,2.104-3.688,3.917-4.897C39.649,19.917,40.36,19.727,40.659,19.599z"/>
</g>
</svg>
