<?xml version="1.0" encoding="utf-8"?>
<!-- Generator: Adobe Illustrator 16.0.0, SVG Export Plug-In . SVG Version: 6.00 Build 0)  -->
<!DOCTYPE svg PUBLIC "-//W3C//DTD SVG 1.1//EN" "http://www.w3.org/Graphics/SVG/1.1/DTD/svg11.dtd">
<svg version="1.1" id="Capa_1" xmlns="http://www.w3.org/2000/svg" xmlns:xlink="http://www.w3.org/1999/xlink" x="0px" y="0px"
	 width="150px" height="50px" viewBox="0 0 150 50" enable-background="new 0 0 150 50" xml:space="preserve">
<g>
	<path fill="#6E9E96" d="M12.565,22.49c-0.857,3.938-1.643,7.555-2.433,11.171c-0.611,2.784-1.201,5.571-1.849,8.345
		c-0.331,1.416-0.927,2.725-2.508,3.102c-0.541,0.128-1.25,0.075-1.732-0.177c-1.513-0.799-2.578-3.324-2.272-5.025
		c1.635-9.089,3.262-18.183,4.894-27.272c0.229-1.276,0.088-2.413-0.646-3.582C4.585,6.767,5.705,4.768,8.382,4.828
		C9.771,4.858,11.249,5.04,12.5,5.583c0.763,0.33,1.352,1.404,1.708,2.272c1.441,3.513,2.767,7.074,4.125,10.622
		c1.046,2.73,2.069,5.469,3.12,8.198c0.217,0.562,0.511,1.092,0.854,1.818c1.292-1.68,2.397-3.304,3.689-4.765
		c4.289-4.848,8.646-9.638,12.974-14.454c0.226-0.251,0.478-0.51,0.612-0.812c1.058-2.392,2.973-3.05,5.341-1.721
		c1.494,0.839,2.468,2.026,2.538,3.903c0.145,3.801,0.742,7.612,0.564,11.392c-0.207,4.352-1.043,8.672-1.614,13.005
		c-0.259,1.961-0.605,3.913-0.781,5.881c-0.244,2.707-1.029,3.677-3.285,3.766c-2.372,0.092-4.422-1.432-4.522-3.708
		c-0.072-1.642,0.307-3.313,0.567-4.958c0.99-6.232,2.017-12.459,3.001-18.691c0.042-0.252-0.19-0.76-0.347-0.783
		c-0.303-0.044-0.719,0.09-0.957,0.297c-2.083,1.814-3.748,3.973-5.24,6.296c-2.958,4.614-5.973,9.19-9.004,13.754
		c-1.544,2.323-3.487,3.033-5.645,2.154c-1.388-0.567-2.264-1.629-2.756-3.027c-1.437-4.084-2.875-8.167-4.317-12.25
		C13.005,23.435,12.839,23.112,12.565,22.49z"/>
	<path fill="#6E9E96" d="M95.069,22.263c-3.769,4.962-7.501,9.438-10.118,14.691c-0.917,1.839-1.822,3.684-2.795,5.492
		c-1.247,2.316-2.912,2.619-4.871,0.889c-1.482-1.311-2.422-2.751-1.945-4.979c1.679-7.84,3.192-15.716,4.8-23.571
		c0.436-2.12,1.727-3.043,3.529-2.67c2.034,0.419,3.056,1.854,2.68,3.933c-0.458,2.541-1.007,5.065-1.508,7.599
		c-0.07,0.356-0.09,0.721,0.122,1.242c0.283-0.247,0.601-0.461,0.847-0.744c2.918-3.316,5.83-6.638,8.729-9.97
		c1.173-1.351,2.485-2.255,4.383-1.619c1.942,0.65,2.993,2.029,3.18,4.038c0.19,2.031,0.311,4.067,0.465,6.159
		c1.668-1.611,3.25-3.13,4.822-4.662c0.736-0.718,1.423-1.489,2.186-2.178c1.837-1.655,3.996-1.428,5.377,0.618
		c2.006,2.971,2.221,6.277,1.432,9.643c-1.11,4.732-2.355,9.432-3.557,14.142c-0.609,2.403-2.278,3.473-4.481,2.907
		c-1.815-0.466-3.201-2.869-2.728-4.819c0.906-3.725,1.849-7.442,2.769-11.167c0.073-0.293,0.14-0.61,0.101-0.901
		c-0.025-0.178-0.23-0.414-0.399-0.463c-0.153-0.046-0.408,0.087-0.552,0.216c-0.163,0.146-0.265,0.368-0.379,0.565
		c-2.639,4.448-5.278,8.896-7.907,13.352c-0.876,1.486-1.475,1.662-2.943,0.795c-2.498-1.479-3.121-3.027-2.571-6.309
		c0.599-3.599,1.195-7.198,1.749-10.803C95.538,23.334,95.275,22.934,95.069,22.263z"/>
	<path fill="#6E9E96" d="M138.629,37.043c-0.112,1.127-0.089,2.289-0.371,3.374c-0.412,1.572-1.105,1.815-2.632,1.289
		c-1.781-0.612-3.566-1.225-5.378-1.733c-0.476-0.133-1.165-0.041-1.566,0.229c-0.973,0.653-1.883,1.422-2.734,2.232
		c-1.503,1.432-3.172,1.811-5.103,1.033c-1.961-0.791-3.268-2.195-3.401-4.315c-0.086-1.371,0.028-2.85,0.469-4.142
		c2.098-6.179,6.189-10.307,12.754-11.554c1.346-0.256,2.82-0.173,4.182,0.061c2.132,0.366,3.038,1.534,3.17,3.708
		c0.199,3.267,0.352,6.536,0.521,9.806C138.57,37.033,138.6,37.037,138.629,37.043z"/>
	<path fill="#6E9E96" d="M51.448,29.466c-0.234-3.334,0.068-6.576,1.188-9.757c0.402-1.144,0.76-2.176,2.123-2.343
		c1.331-0.164,2.791,0.67,3.405,1.871c0.692,1.354,0.754,2.755,0.346,4.2c-0.894,3.155-1.156,6.314-0.33,9.547
		c0.465,1.82,1.07,2.467,2.947,2.415c1.95-0.056,3.475-0.771,4.449-2.636c0.944-1.807,1.327-3.708,1.516-5.686
		c0.166-1.738,0.279-3.481,0.458-5.218c0.237-2.306,1.515-3.455,3.811-3.283c0.525,0.039,1.2,0.527,1.475,1.002
		c1.351,2.336,1.591,4.93,1.068,7.503c-0.929,4.564-2.787,8.755-5.805,12.346c-2.456,2.923-5.731,3.528-9.309,2.92
		c-1.928-0.327-3.482-1.411-4.915-2.729c-1.535-1.408-1.866-3.262-2.084-5.15C51.6,32.81,51.558,31.134,51.448,29.466z"/>
	<path fill="#6E9E96" d="M136.246,11.474c-0.253,2.13-0.922,4.581-2.103,6.87c-0.56,1.082-2.47,1.811-3.691,1.518
		c-0.867-0.207-1.528-1.232-1.539-2.692c-0.016-2.362,0.417-4.672,1.799-6.619c0.576-0.808,1.543-1.514,2.479-1.854
		C135.1,8,136.295,9.012,136.246,11.474z"/>
	<path fill="#6E9E96" d="M144.982,13.664c-0.237,2.54-1.254,5.06-3.354,6.971c-0.682,0.621-1.824,1.001-2.761,1.014
		c-1.659,0.021-2.604-1.338-2.252-2.958c0.527-2.423,1.652-4.569,3.379-6.344c0.529-0.546,1.275-0.983,2.005-1.221
		C143.789,10.539,145.015,11.516,144.982,13.664z"/>
	<path fill="#6E9E96" d="M120.42,18.167c0.249-0.91,0.465-2.111,0.905-3.222c0.446-1.118,1.364-1.827,2.609-1.973
		c1.478-0.174,2.488,0.486,2.738,1.946c0.406,2.389-0.098,4.634-1.485,6.624c-0.562,0.802-1.38,1.338-2.459,1.121
		c-1.06-0.214-1.629-0.952-1.872-1.939C120.674,19.99,120.597,19.23,120.42,18.167z"/>
	<path fill="#6E9E96" d="M146.003,21.633c1.519-0.007,2.395,0.761,2.265,1.909c-0.249,2.204-1.137,4.097-3.197,5.205
		c-0.457,0.243-0.995,0.406-1.512,0.455c-2.081,0.196-2.939-0.935-2.182-2.859c0.671-1.705,1.767-3.098,3.292-4.115
		C145.155,21.902,145.752,21.74,146.003,21.633z"/>
</g>
</svg>
