<?xml version="1.0" encoding="utf-8"?>
<!-- Generator: Adobe Illustrator 16.0.0, SVG Export Plug-In . SVG Version: 6.00 Build 0)  -->
<!DOCTYPE svg PUBLIC "-//W3C//DTD SVG 1.1//EN" "http://www.w3.org/Graphics/SVG/1.1/DTD/svg11.dtd">
<svg version="1.1" id="Capa_1" xmlns="http://www.w3.org/2000/svg" xmlns:xlink="http://www.w3.org/1999/xlink" x="0px" y="0px"
	 width="300px" height="100px" viewBox="0 0 300 100" enable-background="new 0 0 300 100" xml:space="preserve">
<g>
	<path fill-rule="evenodd" clip-rule="evenodd" fill="#FFFFFF" d="M22.763,44.884c-1.748,8.025-3.348,15.397-4.959,22.767
		c-1.243,5.674-2.448,11.354-3.768,17.006c-0.673,2.887-1.887,5.552-5.11,6.32c-1.101,0.261-2.546,0.155-3.53-0.362
		c-3.082-1.626-5.252-6.772-4.629-10.24c3.332-18.522,6.648-37.053,9.973-55.578c0.468-2.602,0.179-4.918-1.316-7.299
		C6.5,12.843,8.782,8.768,14.238,8.89c2.829,0.063,5.841,0.432,8.391,1.538c1.555,0.673,2.755,2.862,3.48,4.631
		c2.937,7.159,5.639,14.416,8.407,21.646c2.131,5.564,4.217,11.146,6.358,16.707c0.441,1.142,1.04,2.223,1.741,3.705
		c2.633-3.424,4.885-6.735,7.517-9.711c8.741-9.881,17.622-19.641,26.44-29.455c0.461-0.512,0.975-1.04,1.249-1.655
		c2.156-4.874,6.057-6.217,10.883-3.507c3.046,1.709,5.029,4.128,5.172,7.955c0.294,7.746,1.513,15.514,1.149,23.217
		c-0.421,8.866-2.127,17.672-3.291,26.503c-0.526,3.995-1.231,7.974-1.589,11.983c-0.497,5.517-2.097,7.495-6.697,7.675
		c-4.833,0.187-9.011-2.917-9.216-7.555c-0.146-3.348,0.626-6.754,1.156-10.106c2.018-12.701,4.112-25.39,6.118-38.092
		c0.083-0.514-0.387-1.548-0.708-1.595c-0.617-0.091-1.463,0.184-1.951,0.606c-4.246,3.697-7.637,8.098-10.677,12.832
		c-6.029,9.401-12.173,18.727-18.351,28.03c-3.146,4.734-7.104,6.182-11.504,4.389c-2.828-1.156-4.614-3.318-5.616-6.167
		c-2.929-8.323-5.856-16.645-8.797-24.964C23.659,46.809,23.32,46.152,22.763,44.884z"/>
	<path fill-rule="evenodd" clip-rule="evenodd" fill="#FFFFFF" d="M190.901,44.423c-7.682,10.115-15.289,19.234-20.621,29.937
		c-1.867,3.748-3.713,7.508-5.696,11.194c-2.541,4.72-5.936,5.337-9.928,1.812c-3.02-2.671-4.935-5.607-3.962-10.147
		c3.422-15.977,6.506-32.028,9.783-48.035c0.886-4.32,3.519-6.201,7.192-5.441c4.145,0.854,6.227,3.779,5.463,8.014
		c-0.937,5.178-2.053,10.323-3.074,15.486c-0.146,0.725-0.184,1.47,0.246,2.53c0.579-0.502,1.225-0.942,1.727-1.515
		c5.945-6.76,11.882-13.529,17.789-20.32c2.392-2.752,5.066-4.595,8.934-3.3c3.958,1.327,6.097,4.136,6.479,8.229
		c0.388,4.139,0.632,8.289,0.949,12.551c3.399-3.282,6.62-6.38,9.825-9.502c1.501-1.463,2.899-3.034,4.457-4.438
		c3.742-3.372,8.142-2.91,10.956,1.261c4.086,6.054,4.525,12.792,2.916,19.652c-2.262,9.642-4.799,19.221-7.246,28.819
		c-1.245,4.898-4.644,7.076-9.132,5.925c-3.701-0.951-6.527-5.847-5.562-9.822c1.849-7.592,3.771-15.169,5.646-22.759
		c0.146-0.597,0.282-1.241,0.202-1.835c-0.05-0.363-0.468-0.845-0.814-0.944c-0.313-0.092-0.83,0.178-1.124,0.439
		c-0.334,0.297-0.538,0.753-0.772,1.153c-5.375,9.066-10.757,18.131-16.114,27.212c-1.786,3.026-3.006,3.387-5.998,1.617
		c-5.089-3.015-6.36-6.168-5.241-12.854c1.22-7.335,2.436-14.671,3.566-22.018C191.855,46.607,191.321,45.79,190.901,44.423z"/>
	<path fill-rule="evenodd" clip-rule="evenodd" fill="#FFFFFF" d="M279.672,74.541c-0.229,2.297-0.182,4.667-0.757,6.877
		c-0.838,3.204-2.254,3.699-5.364,2.628c-3.63-1.248-7.267-2.496-10.96-3.532c-0.967-0.271-2.373-0.085-3.193,0.464
		c-1.981,1.331-3.836,2.898-5.572,4.551c-3.062,2.919-6.465,3.689-10.398,2.104c-3.997-1.611-6.658-4.473-6.932-8.794
		c-0.175-2.793,0.059-5.807,0.956-8.438c4.275-12.595,12.612-21.007,25.992-23.549c2.743-0.521,5.745-0.353,8.521,0.123
		c4.344,0.746,6.191,3.128,6.462,7.556c0.404,6.657,0.714,13.32,1.061,19.983C279.552,74.522,279.611,74.532,279.672,74.541z"/>
	<path fill-rule="evenodd" clip-rule="evenodd" fill="#FFFFFF" d="M102.004,59.099c-0.479-6.792,0.139-13.4,2.42-19.881
		c0.822-2.332,1.549-4.434,4.327-4.775c2.711-0.333,5.688,1.367,6.938,3.813c1.412,2.76,1.539,5.616,0.707,8.558
		c-1.82,6.43-2.357,12.867-0.672,19.457c0.948,3.709,2.183,5.027,6.007,4.922c3.975-0.112,7.082-1.574,9.067-5.371
		c1.922-3.682,2.705-7.557,3.088-11.588c0.338-3.541,0.569-7.094,0.934-10.632c0.484-4.7,3.088-7.041,7.766-6.691
		c1.07,0.08,2.448,1.076,3.006,2.043c2.752,4.762,3.242,10.05,2.177,15.29c-1.892,9.301-5.679,17.843-11.829,25.16
		c-5.006,5.957-11.682,7.19-18.973,5.95c-3.93-0.667-7.097-2.876-10.016-5.559c-3.129-2.868-3.802-6.646-4.248-10.498
		C102.313,65.917,102.227,62.501,102.004,59.099z"/>
	<path fill-rule="evenodd" clip-rule="evenodd" fill="#FFFFFF" d="M274.816,22.434c-0.517,4.341-1.88,9.337-4.285,14
		c-1.141,2.206-5.032,3.69-7.522,3.095c-1.769-0.422-3.116-2.512-3.138-5.488c-0.032-4.814,0.85-9.521,3.665-13.489
		c1.176-1.647,3.144-3.086,5.053-3.78C272.479,15.356,274.914,17.417,274.816,22.434z"/>
	<path fill-rule="evenodd" clip-rule="evenodd" fill="#FFFFFF" d="M292.619,26.897c-0.483,5.176-2.555,10.311-6.838,14.207
		c-1.387,1.264-3.714,2.041-5.625,2.064c-3.383,0.044-5.305-2.727-4.588-6.026c1.075-4.938,3.367-9.312,6.886-12.929
		c1.08-1.114,2.6-2.004,4.086-2.49C290.187,20.53,292.685,22.521,292.619,26.897z"/>
	<path fill-rule="evenodd" clip-rule="evenodd" fill="#FFFFFF" d="M242.562,36.075c0.508-1.855,0.948-4.303,1.847-6.566
		c0.907-2.277,2.779-3.723,5.316-4.02c3.012-0.354,5.072,0.991,5.582,3.967c0.829,4.869-0.2,9.444-3.029,13.497
		c-1.143,1.637-2.811,2.729-5.012,2.286c-2.157-0.437-3.318-1.941-3.815-3.952C243.081,39.792,242.923,38.243,242.562,36.075z"/>
	<path fill-rule="evenodd" clip-rule="evenodd" fill="#FFFFFF" d="M294.7,43.14c3.094-0.016,4.878,1.551,4.614,3.891
		c-0.508,4.49-2.315,8.348-6.515,10.604c-0.932,0.499-2.03,0.828-3.082,0.927c-4.241,0.402-5.988-1.904-4.446-5.825
		c1.368-3.474,3.601-6.313,6.709-8.387C292.97,43.687,294.186,43.358,294.7,43.14z"/>
</g>
</svg>
